<ttFont>
    <TTGlyph name=".notdef" xMin="233" yMin="0" xMax="1649" yMax="1416">
      <contour>
        <pt x="233" y="1416" on="1"/>
        <pt x="1649" y="1416" on="1"/>
        <pt x="1649" y="0" on="1"/>
        <pt x="233" y="0" on="1"/>
      </contour>
      <contour>
        <pt x="591" y="219" on="1"/>
        <pt x="938" y="587" on="1"/>
        <pt x="1300" y="219" on="1"/>
        <pt x="1422" y="341" on="1"/>
        <pt x="1059" y="709" on="1"/>
        <pt x="1422" y="1067" on="1"/>
        <pt x="1294" y="1191" on="1"/>
        <pt x="942" y="825" on="1"/>
        <pt x="585" y="1193" on="1"/>
        <pt x="462" y="1068" on="1"/>
        <pt x="821" y="705" on="1"/>
        <pt x="463" y="363" on="1"/>
      </contour>
    </TTGlyph>
    <TTGlyph name="A" xMin="-15" yMin="0" xMax="1436" yMax="1538">
      <contour>
        <pt x="547" y="1538" on="1"/>
        <pt x="869" y="1538" on="1"/>
        <pt x="1436" y="0" on="1"/>
        <pt x="1089" y="0" on="1"/>
        <pt x="987" y="322" on="1"/>
        <pt x="427" y="322" on="1"/>
        <pt x="327" y="0" on="1"/>
        <pt x="-15" y="0" on="1"/>
      </contour>
      <contour>
        <pt x="914" y="551" on="1"/>
        <pt x="749" y="1073" on="1"/>
        <pt x="706" y="1230" on="1"/>
        <pt x="662" y="1073" on="1"/>
        <pt x="499" y="551" on="1"/>
      </contour>
    </TTGlyph>
    <TTGlyph name="AE" xMin="-111" yMin="0" xMax="1853" yMax="1522">
      <contour>
        <pt x="655" y="1522" on="1"/>
        <pt x="1788" y="1522" on="1"/>
        <pt x="1788" y="1278" on="1"/>
        <pt x="1178" y="1278" on="1"/>
        <pt x="1178" y="904" on="1"/>
        <pt x="1646" y="904" on="1"/>
        <pt x="1646" y="663" on="1"/>
        <pt x="1178" y="663" on="1"/>
        <pt x="1178" y="251" on="1"/>
        <pt x="1853" y="251" on="1"/>
        <pt x="1853" y="0" on="1"/>
        <pt x="860" y="0" on="1"/>
        <pt x="860" y="376" on="1"/>
        <pt x="411" y="376" on="1"/>
        <pt x="234" y="0" on="1"/>
        <pt x="-111" y="0" on="1"/>
      </contour>
      <contour>
        <pt x="860" y="598" on="1"/>
        <pt x="860" y="1324" on="1"/>
        <pt x="516" y="598" on="1"/>
      </contour>
    </TTGlyph>
    <TTGlyph name="AEacute" xMin="-111" yMin="0" xMax="1853" yMax="1980">
      <component glyphName="acute.cap" x="820" y="0" flags="0x1004"/>
      <component glyphName="AE" x="0" y="0" flags="0x1004"/>
    </TTGlyph>
    <TTGlyph name="Aacute" xMin="-15" yMin="0" xMax="1436" yMax="1980">
      <component glyphName="A" x="0" y="0" flags="0x1204"/>
      <component glyphName="acute.cap" x="484" y="0" flags="0x1004"/>
    </TTGlyph>
    <TTGlyph name="Abreve" xMin="-15" yMin="0" xMax="1436" yMax="1960">
      <component glyphName="A" x="0" y="0" flags="0x1204"/>
      <component glyphName="breve.cap" x="302" y="0" flags="0x1004"/>
    </TTGlyph>
    <TTGlyph name="Acircumflex" xMin="-15" yMin="0" xMax="1436" yMax="1960">
      <component glyphName="A" x="0" y="0" flags="0x1204"/>
      <component glyphName="circumflex.cap" x="278" y="0" flags="0x1004"/>
    </TTGlyph>
    <TTGlyph name="Adieresis" xMin="-15" yMin="0" xMax="1436" yMax="1960">
      <component glyphName="A" x="0" y="0" flags="0x1204"/>
      <component glyphName="dieresis.cap" x="217" y="0" flags="0x1004"/>
    </TTGlyph>
    <TTGlyph name="Agrave" xMin="-15" yMin="0" xMax="1436" yMax="1980">
      <component glyphName="A" x="0" y="0" flags="0x1204"/>
      <component glyphName="grave.cap" x="286" y="0" flags="0x1004"/>
    </TTGlyph>
    <TTGlyph name="Amacron" xMin="-15" yMin="0" xMax="1436" yMax="1893">
      <component glyphName="A" x="0" y="0" flags="0x1204"/>
      <component glyphName="macron.cap" x="364" y="0" flags="0x1004"/>
    </TTGlyph>
    <TTGlyph name="Aogonek" xMin="-15" yMin="-516" xMax="1436" yMax="1538">
      <contour>
        <pt x="1433" y="-448" on="1"/>
        <pt x="1340" y="-516" on="0"/>
        <pt x="1203" y="-516" on="1"/>
        <pt x="1103" y="-516" on="0"/>
        <pt x="1028" y="-464" on="1"/>
        <pt x="942" y="-403" on="0"/>
        <pt x="942" y="-300" on="1"/>
        <pt x="942" y="-119" on="0"/>
        <pt x="1158" y="0" on="1"/>
        <pt x="1089" y="0" on="1"/>
        <pt x="987" y="322" on="1"/>
        <pt x="427" y="322" on="1"/>
        <pt x="327" y="0" on="1"/>
        <pt x="-15" y="0" on="1"/>
        <pt x="547" y="1538" on="1"/>
        <pt x="869" y="1538" on="1"/>
        <pt x="1436" y="0" on="1"/>
        <pt x="1365" y="0" on="1"/>
        <pt x="1271" y="-62" on="0"/>
        <pt x="1241" y="-95" on="1"/>
        <pt x="1186" y="-155" on="0"/>
        <pt x="1186" y="-210" on="1"/>
        <pt x="1186" y="-217" on="0"/>
        <pt x="1187" y="-223" on="1"/>
        <pt x="1191" y="-311" on="0"/>
        <pt x="1308" y="-311" on="1"/>
        <pt x="1362" y="-311" on="0"/>
        <pt x="1433" y="-291" on="1"/>
      </contour>
      <contour>
        <pt x="914" y="551" on="1"/>
        <pt x="749" y="1073" on="1"/>
        <pt x="706" y="1230" on="1"/>
        <pt x="662" y="1073" on="1"/>
        <pt x="499" y="551" on="1"/>
      </contour>
    </TTGlyph>
    <TTGlyph name="Aring" xMin="-15" yMin="0" xMax="1436" yMax="1969">
      <contour>
        <pt x="515" y="1451" on="1"/>
        <pt x="367" y="1518" on="0"/>
        <pt x="367" y="1690" on="1"/>
        <pt x="367" y="1838" on="0"/>
        <pt x="479" y="1910" on="1"/>
        <pt x="570" y="1969" on="0"/>
        <pt x="714" y="1969" on="1"/>
        <pt x="958" y="1969" on="0"/>
        <pt x="1027" y="1816" on="1"/>
        <pt x="1050" y="1764" on="0"/>
        <pt x="1050" y="1648" on="0"/>
        <pt x="1027" y="1573" on="0"/>
        <pt x="1007" y="1544" on="1"/>
        <pt x="967" y="1484" on="0"/>
        <pt x="900" y="1454" on="1"/>
        <pt x="1436" y="0" on="1"/>
        <pt x="1089" y="0" on="1"/>
        <pt x="987" y="322" on="1"/>
        <pt x="427" y="322" on="1"/>
        <pt x="327" y="0" on="1"/>
        <pt x="-15" y="0" on="1"/>
      </contour>
      <contour>
        <pt x="551" y="1635" on="0"/>
        <pt x="639" y="1567" on="0"/>
        <pt x="744" y="1567" on="0"/>
        <pt x="802" y="1576" on="0"/>
        <pt x="823" y="1590" on="1"/>
        <pt x="867" y="1618" on="0"/>
        <pt x="867" y="1691" on="1"/>
        <pt x="867" y="1786" on="0"/>
        <pt x="771" y="1814" on="1"/>
        <pt x="742" y="1823" on="0"/>
        <pt x="677" y="1823" on="0"/>
        <pt x="620" y="1813" on="0"/>
        <pt x="598" y="1800" on="1"/>
        <pt x="551" y="1770" on="0"/>
      </contour>
      <contour>
        <pt x="914" y="551" on="1"/>
        <pt x="749" y="1073" on="1"/>
        <pt x="706" y="1230" on="1"/>
        <pt x="662" y="1073" on="1"/>
        <pt x="499" y="551" on="1"/>
      </contour>
    </TTGlyph>
    <TTGlyph name="Atilde" xMin="-15" yMin="0" xMax="1436" yMax="1958">
      <component glyphName="A" x="0" y="0" flags="0x1204"/>
      <component glyphName="tilde.cap" x="245" y="0" flags="0x1004"/>
    </TTGlyph>
    <TTGlyph name="B" xMin="188" yMin="-14" xMax="1338" yMax="1537">
      <contour>
        <pt x="727" y="-14" on="1"/>
        <pt x="559" y="-14" on="0"/>
        <pt x="349" y="0" on="1"/>
        <pt x="188" y="0" on="1"/>
        <pt x="188" y="1523" on="1"/>
        <pt x="342" y="1522" on="1"/>
        <pt x="700" y="1537" on="1"/>
        <pt x="979" y="1537" on="0"/>
        <pt x="1123" y="1429" on="1"/>
        <pt x="1257" y="1328" on="0"/>
        <pt x="1257" y="1152" on="1"/>
        <pt x="1257" y="956" on="0"/>
        <pt x="1126" y="856" on="1"/>
        <pt x="1083" y="823" on="0"/>
        <pt x="1029" y="809" on="1"/>
        <pt x="1166" y="793" on="0"/>
        <pt x="1250" y="701" on="1"/>
        <pt x="1338" y="606" on="0"/>
        <pt x="1338" y="461" on="1"/>
        <pt x="1338" y="237" on="0"/>
        <pt x="1206" y="120" on="1"/>
        <pt x="1055" y="-14" on="0"/>
      </contour>
      <contour>
        <pt x="666" y="1304" on="1"/>
        <pt x="532" y="1304" on="0"/>
        <pt x="503" y="1291" on="1"/>
        <pt x="503" y="893" on="1"/>
        <pt x="548" y="884" on="0"/>
        <pt x="763" y="884" on="0"/>
        <pt x="861" y="911" on="0"/>
        <pt x="892" y="940" on="1"/>
        <pt x="954" y="997" on="0"/>
        <pt x="954" y="1125" on="1"/>
        <pt x="954" y="1304" on="0"/>
      </contour>
      <contour>
        <pt x="1016" y="564" on="0"/>
        <pt x="875" y="671" on="0"/>
        <pt x="542" y="671" on="0"/>
        <pt x="503" y="664" on="1"/>
        <pt x="503" y="232" on="1"/>
        <pt x="535" y="206" on="0"/>
        <pt x="796" y="206" on="0"/>
        <pt x="905" y="231" on="0"/>
        <pt x="942" y="259" on="1"/>
        <pt x="1016" y="316" on="0"/>
      </contour>
    </TTGlyph>
    <TTGlyph name="C" xMin="100" yMin="-16" xMax="1260" yMax="1538">
      <contour>
        <pt x="100" y="765" on="1"/>
        <pt x="100" y="946" on="0"/>
        <pt x="216" y="1237" on="0"/>
        <pt x="317" y="1336" on="1"/>
        <pt x="522" y="1538" on="0"/>
        <pt x="846" y="1538" on="1"/>
        <pt x="1026" y="1538" on="0"/>
        <pt x="1186" y="1496" on="1"/>
        <pt x="1224" y="1486" on="0"/>
        <pt x="1260" y="1479" on="1"/>
        <pt x="1214" y="1199" on="1"/>
        <pt x="1142" y="1239" on="0"/>
        <pt x="1099" y="1253" on="1"/>
        <pt x="998" y="1286" on="0"/>
        <pt x="773" y="1286" on="0"/>
        <pt x="613" y="1217" on="0"/>
        <pt x="554" y="1152" on="1"/>
        <pt x="428" y="1012" on="0"/>
        <pt x="428" y="777" on="1"/>
        <pt x="428" y="535" on="0"/>
        <pt x="550" y="385" on="1"/>
        <pt x="677" y="230" on="0"/>
        <pt x="890" y="230" on="1"/>
        <pt x="1036" y="230" on="0"/>
        <pt x="1185" y="294" on="1"/>
        <pt x="1223" y="311" on="0"/>
        <pt x="1243" y="326" on="1"/>
        <pt x="1244" y="64" on="1"/>
        <pt x="1098" y="6" on="0"/>
        <pt x="929" y="-16" on="0"/>
        <pt x="860" y="-16" on="1"/>
        <pt x="512" y="-16" on="0"/>
        <pt x="304" y="198" on="1"/>
        <pt x="100" y="408" on="0"/>
      </contour>
    </TTGlyph>
    <TTGlyph name="Cacute" xMin="100" yMin="-16" xMax="1260" yMax="1980">
      <component glyphName="C" x="0" y="0" flags="0x1204"/>
      <component glyphName="acute.cap" x="605" y="0" flags="0x1004"/>
    </TTGlyph>
    <TTGlyph name="Ccaron" xMin="100" yMin="-16" xMax="1260" yMax="1960">
      <component glyphName="C" x="0" y="0" flags="0x1204"/>
      <component glyphName="caron.cap" x="407" y="0" flags="0x1004"/>
    </TTGlyph>
    <TTGlyph name="Ccedilla" xMin="100" yMin="-464" xMax="1260" yMax="1538">
      <contour>
        <pt x="556" y="-271" on="1"/>
        <pt x="579" y="-285" on="0"/>
        <pt x="682" y="-285" on="0"/>
        <pt x="751" y="-212" on="0"/>
        <pt x="754" y="-135" on="1"/>
        <pt x="755" y="-116" on="0"/>
        <pt x="755" y="-97" on="1"/>
        <pt x="755" y="-48" on="0"/>
        <pt x="741" y="-9" on="1"/>
        <pt x="443" y="27" on="0"/>
        <pt x="271" y="234" on="1"/>
        <pt x="100" y="440" on="0"/>
        <pt x="100" y="757" on="1"/>
        <pt x="100" y="1123" on="0"/>
        <pt x="317" y="1336" on="1"/>
        <pt x="522" y="1538" on="0"/>
        <pt x="846" y="1538" on="1"/>
        <pt x="1026" y="1538" on="0"/>
        <pt x="1186" y="1496" on="1"/>
        <pt x="1224" y="1486" on="0"/>
        <pt x="1260" y="1479" on="1"/>
        <pt x="1214" y="1199" on="1"/>
        <pt x="1142" y="1239" on="0"/>
        <pt x="1099" y="1253" on="1"/>
        <pt x="998" y="1286" on="0"/>
        <pt x="773" y="1286" on="0"/>
        <pt x="613" y="1217" on="0"/>
        <pt x="554" y="1152" on="1"/>
        <pt x="428" y="1012" on="0"/>
        <pt x="428" y="777" on="1"/>
        <pt x="428" y="535" on="0"/>
        <pt x="550" y="385" on="1"/>
        <pt x="677" y="230" on="0"/>
        <pt x="890" y="230" on="1"/>
        <pt x="1036" y="230" on="0"/>
        <pt x="1185" y="294" on="1"/>
        <pt x="1223" y="311" on="0"/>
        <pt x="1243" y="326" on="1"/>
        <pt x="1244" y="64" on="1"/>
        <pt x="1075" y="-2" on="0"/>
        <pt x="938" y="-13" on="1"/>
        <pt x="971" y="-83" on="0"/>
        <pt x="971" y="-199" on="1"/>
        <pt x="971" y="-401" on="0"/>
        <pt x="812" y="-450" on="1"/>
        <pt x="766" y="-464" on="0"/>
        <pt x="694" y="-464" on="0"/>
        <pt x="640" y="-460" on="0"/>
        <pt x="614" y="-456" on="1"/>
        <pt x="552" y="-446" on="0"/>
        <pt x="536" y="-436" on="1"/>
      </contour>
    </TTGlyph>
    <TTGlyph name="Ccircumflex" xMin="100" yMin="-16" xMax="1260" yMax="1960">
      <component glyphName="C" x="0" y="0" flags="0x1204"/>
      <component glyphName="circumflex.cap" x="399" y="0" flags="0x1004"/>
    </TTGlyph>
    <TTGlyph name="Cdotaccent" xMin="100" yMin="-16" xMax="1260" yMax="1959">
      <component glyphName="dotaccent.cap" x="593" y="0" flags="0x1004"/>
      <component glyphName="C" x="0" y="0" flags="0x1004"/>
    </TTGlyph>
    <TTGlyph name="D" xMin="188" yMin="-17" xMax="1454" yMax="1538">
      <contour>
        <pt x="188" y="1522" on="1"/>
        <pt x="339" y="1522" on="1"/>
        <pt x="373" y="1522" on="0"/>
        <pt x="457" y="1528" on="1"/>
        <pt x="616" y="1538" on="0"/>
        <pt x="708" y="1538" on="1"/>
        <pt x="1269" y="1538" on="0"/>
        <pt x="1409" y="1113" on="1"/>
        <pt x="1454" y="976" on="0"/>
        <pt x="1454" y="606" on="0"/>
        <pt x="1400" y="454" on="1"/>
        <pt x="1290" y="147" on="0"/>
        <pt x="1002" y="36" on="1"/>
        <pt x="865" y="-16" on="0"/>
        <pt x="696" y="-16" on="1"/>
        <pt x="589" y="-16" on="0"/>
        <pt x="411" y="0" on="0"/>
        <pt x="342" y="0" on="1"/>
        <pt x="188" y="0" on="1"/>
      </contour>
      <contour>
        <pt x="678" y="1298" on="1"/>
        <pt x="509" y="1284" on="1"/>
        <pt x="509" y="246" on="1"/>
        <pt x="574" y="228" on="0"/>
        <pt x="804" y="229" on="0"/>
        <pt x="953" y="291" on="0"/>
        <pt x="1006" y="356" on="1"/>
        <pt x="1118" y="493" on="0"/>
        <pt x="1118" y="767" on="1"/>
        <pt x="1118" y="1058" on="0"/>
        <pt x="1010" y="1181" on="1"/>
        <pt x="907" y="1298" on="0"/>
      </contour>
    </TTGlyph>
    <TTGlyph name="Dcaron" xMin="188" yMin="-17" xMax="1454" yMax="1960">
      <component glyphName="caron.cap" x="341" y="0" flags="0x1004"/>
      <component glyphName="D" x="0" y="0" flags="0x1004"/>
    </TTGlyph>
    <TTGlyph name="Dcroat" xMin="69" yMin="-17" xMax="1454" yMax="1538">
      <component glyphName="Eth" x="0" y="0" flags="0x1204"/>
    </TTGlyph>
    <TTGlyph name="Delta" xMin="78" yMin="0" xMax="1544" yMax="1508">
      <contour>
        <pt x="765" y="1508" on="1"/>
        <pt x="797" y="1508" on="1"/>
        <pt x="1544" y="27" on="1"/>
        <pt x="1528" y="0" on="1"/>
        <pt x="92" y="0" on="1"/>
        <pt x="78" y="22" on="1"/>
      </contour>
      <contour>
        <pt x="1137" y="252" on="1"/>
        <pt x="785" y="986" on="1"/>
        <pt x="453" y="252" on="1"/>
      </contour>
    </TTGlyph>
    <TTGlyph name="E" xMin="188" yMin="0" xMax="1181" yMax="1522">
      <contour>
        <pt x="188" y="1522" on="1"/>
        <pt x="1116" y="1522" on="1"/>
        <pt x="1116" y="1278" on="1"/>
        <pt x="506" y="1278" on="1"/>
        <pt x="506" y="900" on="1"/>
        <pt x="974" y="900" on="1"/>
        <pt x="974" y="659" on="1"/>
        <pt x="506" y="659" on="1"/>
        <pt x="506" y="251" on="1"/>
        <pt x="1181" y="251" on="1"/>
        <pt x="1181" y="0" on="1"/>
        <pt x="188" y="0" on="1"/>
      </contour>
    </TTGlyph>
    <TTGlyph name="Eacute" xMin="188" yMin="0" xMax="1181" yMax="1980">
      <component glyphName="acute.cap" x="473" y="0" flags="0x1004"/>
      <component glyphName="E" x="0" y="0" flags="0x1004"/>
    </TTGlyph>
    <TTGlyph name="Ebreve" xMin="188" yMin="0" xMax="1181" yMax="1960">
      <component glyphName="breve.cap" x="291" y="0" flags="0x1004"/>
      <component glyphName="E" x="0" y="0" flags="0x1004"/>
    </TTGlyph>
    <TTGlyph name="Ecaron" xMin="188" yMin="0" xMax="1181" yMax="1960">
      <component glyphName="caron.cap" x="275" y="0" flags="0x1004"/>
      <component glyphName="E" x="0" y="0" flags="0x1004"/>
    </TTGlyph>
    <TTGlyph name="Ecircumflex" xMin="188" yMin="0" xMax="1181" yMax="1960">
      <component glyphName="E" x="0" y="0" flags="0x1204"/>
      <component glyphName="circumflex.cap" x="267" y="0" flags="0x1004"/>
    </TTGlyph>
    <TTGlyph name="Edieresis" xMin="188" yMin="0" xMax="1181" yMax="1960">
      <component glyphName="dieresis.cap" x="206" y="0" flags="0x1004"/>
      <component glyphName="E" x="0" y="0" flags="0x1004"/>
    </TTGlyph>
    <TTGlyph name="Edotaccent" xMin="188" yMin="0" xMax="1181" yMax="1959">
      <component glyphName="dotaccent.cap" x="461" y="0" flags="0x1004"/>
      <component glyphName="E" x="0" y="0" flags="0x1004"/>
    </TTGlyph>
    <TTGlyph name="Egrave" xMin="188" yMin="0" xMax="1181" yMax="1980">
      <component glyphName="grave.cap" x="275" y="0" flags="0x1004"/>
      <component glyphName="E" x="0" y="0" flags="0x1004"/>
    </TTGlyph>
    <TTGlyph name="Emacron" xMin="188" yMin="0" xMax="1181" yMax="1893">
      <component glyphName="macron.cap" x="353" y="0" flags="0x1004"/>
      <component glyphName="E" x="0" y="0" flags="0x1004"/>
    </TTGlyph>
    <TTGlyph name="Eng" xMin="187" yMin="-441" xMax="1432" yMax="1522">
      <contour>
        <pt x="1431" y="409" on="1"/>
        <pt x="1432" y="260" on="1"/>
        <pt x="1432" y="76" on="0"/>
        <pt x="1376" y="-123" on="0"/>
        <pt x="1262" y="-268" on="0"/>
        <pt x="1182" y="-321" on="1"/>
        <pt x="1015" y="-433" on="0"/>
        <pt x="811" y="-441" on="1"/>
        <pt x="741" y="-316" on="1"/>
        <pt x="878" y="-278" on="0"/>
        <pt x="987" y="-183" on="1"/>
        <pt x="1105" y="-81" on="0"/>
        <pt x="1105" y="19" on="1"/>
        <pt x="579" y="861" on="1"/>
        <pt x="464" y="1092" on="1"/>
        <pt x="502" y="741" on="1"/>
        <pt x="502" y="0" on="1"/>
        <pt x="188" y="0" on="1"/>
        <pt x="187" y="1522" on="1"/>
        <pt x="495" y="1522" on="1"/>
        <pt x="1039" y="627" on="1"/>
        <pt x="1151" y="404" on="1"/>
        <pt x="1116" y="765" on="1"/>
        <pt x="1116" y="1522" on="1"/>
        <pt x="1431" y="1522" on="1"/>
      </contour>
    </TTGlyph>
    <TTGlyph name="Eogonek" xMin="188" yMin="-516" xMax="1187" yMax="1522">
      <contour>
        <pt x="1187" y="-448" on="1"/>
        <pt x="1094" y="-516" on="0"/>
        <pt x="957" y="-516" on="1"/>
        <pt x="857" y="-516" on="0"/>
        <pt x="782" y="-464" on="1"/>
        <pt x="696" y="-403" on="0"/>
        <pt x="696" y="-300" on="1"/>
        <pt x="696" y="-119" on="0"/>
        <pt x="912" y="0" on="1"/>
        <pt x="188" y="0" on="1"/>
        <pt x="188" y="1522" on="1"/>
        <pt x="1116" y="1522" on="1"/>
        <pt x="1116" y="1278" on="1"/>
        <pt x="506" y="1278" on="1"/>
        <pt x="506" y="900" on="1"/>
        <pt x="974" y="900" on="1"/>
        <pt x="974" y="659" on="1"/>
        <pt x="506" y="659" on="1"/>
        <pt x="506" y="251" on="1"/>
        <pt x="1181" y="251" on="1"/>
        <pt x="1181" y="0" on="1"/>
        <pt x="1119" y="0" on="1"/>
        <pt x="1025" y="-62" on="0"/>
        <pt x="995" y="-95" on="1"/>
        <pt x="940" y="-155" on="0"/>
        <pt x="940" y="-210" on="1"/>
        <pt x="940" y="-217" on="0"/>
        <pt x="941" y="-223" on="1"/>
        <pt x="945" y="-311" on="0"/>
        <pt x="1062" y="-311" on="1"/>
        <pt x="1116" y="-311" on="0"/>
        <pt x="1187" y="-291" on="1"/>
      </contour>
    </TTGlyph>
    <TTGlyph name="Eth" xMin="69" yMin="-17" xMax="1454" yMax="1538">
      <contour>
        <pt x="188" y="694" on="1"/>
        <pt x="69" y="694" on="1"/>
        <pt x="69" y="895" on="1"/>
        <pt x="188" y="895" on="1"/>
        <pt x="188" y="1522" on="1"/>
        <pt x="339" y="1522" on="1"/>
        <pt x="373" y="1522" on="0"/>
        <pt x="457" y="1528" on="1"/>
        <pt x="616" y="1538" on="0"/>
        <pt x="708" y="1538" on="1"/>
        <pt x="1269" y="1538" on="0"/>
        <pt x="1409" y="1113" on="1"/>
        <pt x="1454" y="976" on="0"/>
        <pt x="1454" y="606" on="0"/>
        <pt x="1400" y="454" on="1"/>
        <pt x="1290" y="147" on="0"/>
        <pt x="1002" y="36" on="1"/>
        <pt x="865" y="-16" on="0"/>
        <pt x="696" y="-16" on="1"/>
        <pt x="589" y="-16" on="0"/>
        <pt x="411" y="0" on="0"/>
        <pt x="342" y="0" on="1"/>
        <pt x="188" y="0" on="1"/>
      </contour>
      <contour>
        <pt x="678" y="1298" on="1"/>
        <pt x="509" y="1284" on="1"/>
        <pt x="509" y="895" on="1"/>
        <pt x="846" y="895" on="1"/>
        <pt x="846" y="694" on="1"/>
        <pt x="509" y="694" on="1"/>
        <pt x="509" y="246" on="1"/>
        <pt x="574" y="228" on="0"/>
        <pt x="804" y="229" on="0"/>
        <pt x="953" y="291" on="0"/>
        <pt x="1006" y="356" on="1"/>
        <pt x="1118" y="493" on="0"/>
        <pt x="1118" y="767" on="1"/>
        <pt x="1118" y="1058" on="0"/>
        <pt x="1010" y="1181" on="1"/>
        <pt x="907" y="1298" on="0"/>
      </contour>
    </TTGlyph>
    <TTGlyph name="Euro" xMin="92" yMin="-29" xMax="1380" yMax="1539">
      <contour>
        <pt x="645" y="472" on="1"/>
        <pt x="718" y="201" on="0"/>
        <pt x="995" y="201" on="1"/>
        <pt x="1198" y="201" on="0"/>
        <pt x="1320" y="284" on="1"/>
        <pt x="1380" y="50" on="1"/>
        <pt x="1348" y="45" on="0"/>
        <pt x="1285" y="20" on="0"/>
        <pt x="1238" y="6" on="1"/>
        <pt x="1120" y="-28" on="0"/>
        <pt x="814" y="-28" on="0"/>
        <pt x="599" y="40" on="0"/>
        <pt x="518" y="104" on="1"/>
        <pt x="358" y="232" on="0"/>
        <pt x="305" y="472" on="1"/>
        <pt x="92" y="472" on="1"/>
        <pt x="92" y="664" on="1"/>
        <pt x="281" y="664" on="1"/>
        <pt x="280" y="678" on="0"/>
        <pt x="280" y="706" on="0"/>
        <pt x="280" y="791" on="0"/>
        <pt x="286" y="857" on="1"/>
        <pt x="129" y="857" on="1"/>
        <pt x="129" y="1049" on="1"/>
        <pt x="323" y="1049" on="1"/>
        <pt x="424" y="1397" on="0"/>
        <pt x="746" y="1500" on="1"/>
        <pt x="849" y="1533" on="0"/>
        <pt x="995" y="1539" on="0"/>
        <pt x="1070" y="1539" on="0"/>
        <pt x="1169" y="1528" on="0"/>
        <pt x="1256" y="1507" on="0"/>
        <pt x="1322" y="1484" on="0"/>
        <pt x="1354" y="1477" on="1"/>
        <pt x="1301" y="1234" on="1"/>
        <pt x="1186" y="1302" on="0"/>
        <pt x="998" y="1302" on="1"/>
        <pt x="877" y="1302" on="0"/>
        <pt x="694" y="1180" on="0"/>
        <pt x="649" y="1049" on="1"/>
        <pt x="1146" y="1049" on="1"/>
        <pt x="1146" y="857" on="1"/>
        <pt x="614" y="857" on="1"/>
        <pt x="612" y="840" on="0"/>
        <pt x="612" y="806" on="0"/>
        <pt x="612" y="724" on="0"/>
        <pt x="615" y="664" on="1"/>
        <pt x="1097" y="664" on="1"/>
        <pt x="1097" y="472" on="1"/>
      </contour>
    </TTGlyph>
    <TTGlyph name="F" xMin="188" yMin="0" xMax="1111" yMax="1522">
      <contour>
        <pt x="188" y="1522" on="1"/>
        <pt x="1111" y="1522" on="1"/>
        <pt x="1111" y="1278" on="1"/>
        <pt x="510" y="1278" on="1"/>
        <pt x="510" y="879" on="1"/>
        <pt x="952" y="879" on="1"/>
        <pt x="952" y="634" on="1"/>
        <pt x="510" y="634" on="1"/>
        <pt x="510" y="0" on="1"/>
        <pt x="188" y="0" on="1"/>
      </contour>
    </TTGlyph>
    <TTGlyph name="G" xMin="100" yMin="-16" xMax="1372" yMax="1538">
      <contour>
        <pt x="571" y="314" on="0"/>
        <pt x="716" y="228" on="0"/>
        <pt x="969" y="228" on="0"/>
        <pt x="1070" y="266" on="1"/>
        <pt x="1070" y="571" on="1"/>
        <pt x="837" y="583" on="1"/>
        <pt x="837" y="820" on="1"/>
        <pt x="1372" y="820" on="1"/>
        <pt x="1372" y="90" on="1"/>
        <pt x="1338" y="88" on="0"/>
        <pt x="1250" y="55" on="0"/>
        <pt x="1187" y="36" on="1"/>
        <pt x="1021" y="-16" on="0"/>
        <pt x="653" y="-16" on="0"/>
        <pt x="383" y="93" on="0"/>
        <pt x="290" y="194" on="1"/>
        <pt x="100" y="399" on="0"/>
        <pt x="100" y="753" on="1"/>
        <pt x="100" y="1144" on="0"/>
        <pt x="320" y="1350" on="1"/>
        <pt x="520" y="1538" on="0"/>
        <pt x="859" y="1538" on="1"/>
        <pt x="1007" y="1538" on="0"/>
        <pt x="1157" y="1509" on="0"/>
        <pt x="1239" y="1488" on="0"/>
        <pt x="1289" y="1478" on="1"/>
        <pt x="1279" y="1205" on="1"/>
        <pt x="1149" y="1266" on="0"/>
        <pt x="1006" y="1280" on="1"/>
        <pt x="943" y="1286" on="0"/>
        <pt x="761" y="1286" on="0"/>
        <pt x="602" y="1217" on="0"/>
        <pt x="546" y="1152" on="1"/>
        <pt x="431" y="1017" on="0"/>
        <pt x="431" y="780" on="1"/>
        <pt x="431" y="537" on="0"/>
        <pt x="524" y="389" on="1"/>
      </contour>
    </TTGlyph>
    <TTGlyph name="Gbreve" xMin="100" yMin="-16" xMax="1372" yMax="1960">
      <component glyphName="breve.cap" x="432" y="0" flags="0x1004"/>
      <component glyphName="G" x="0" y="0" flags="0x1004"/>
    </TTGlyph>
    <TTGlyph name="Gcircumflex" xMin="100" yMin="-16" xMax="1372" yMax="1960">
      <component glyphName="G" x="0" y="0" flags="0x1204"/>
      <component glyphName="circumflex.cap" x="408" y="0" flags="0x1004"/>
    </TTGlyph>
    <TTGlyph name="Gcommaaccent" xMin="100" yMin="-560" xMax="1372" yMax="1538">
      <component glyphName="commaaccent" x="640" y="0" flags="0x1004"/>
      <component glyphName="G" x="0" y="0" flags="0x1004"/>
    </TTGlyph>
    <TTGlyph name="Gdotaccent" xMin="100" yMin="-16" xMax="1372" yMax="1959">
      <component glyphName="dotaccent.cap" x="602" y="0" flags="0x1004"/>
      <component glyphName="G" x="0" y="0" flags="0x1004"/>
    </TTGlyph>
    <TTGlyph name="H" xMin="188" yMin="0" xMax="1413" yMax="1522">
      <contour>
        <pt x="188" y="1522" on="1"/>
        <pt x="506" y="1522" on="1"/>
        <pt x="506" y="890" on="1"/>
        <pt x="1099" y="890" on="1"/>
        <pt x="1099" y="1522" on="1"/>
        <pt x="1413" y="1522" on="1"/>
        <pt x="1413" y="0" on="1"/>
        <pt x="1099" y="0" on="1"/>
        <pt x="1099" y="651" on="1"/>
        <pt x="506" y="651" on="1"/>
        <pt x="506" y="0" on="1"/>
        <pt x="188" y="0" on="1"/>
      </contour>
    </TTGlyph>
    <TTGlyph name="Hbar" xMin="24" yMin="0" xMax="1599" yMax="1522">
      <contour>
        <pt x="188" y="1045" on="1"/>
        <pt x="24" y="1045" on="1"/>
        <pt x="24" y="1237" on="1"/>
        <pt x="188" y="1237" on="1"/>
        <pt x="188" y="1522" on="1"/>
        <pt x="510" y="1522" on="1"/>
        <pt x="510" y="1237" on="1"/>
        <pt x="1111" y="1237" on="1"/>
        <pt x="1111" y="1522" on="1"/>
        <pt x="1433" y="1522" on="1"/>
        <pt x="1433" y="1237" on="1"/>
        <pt x="1599" y="1237" on="1"/>
        <pt x="1599" y="1045" on="1"/>
        <pt x="1433" y="1045" on="1"/>
        <pt x="1433" y="0" on="1"/>
        <pt x="1111" y="0" on="1"/>
        <pt x="1111" y="621" on="1"/>
        <pt x="510" y="621" on="1"/>
        <pt x="510" y="0" on="1"/>
        <pt x="188" y="0" on="1"/>
      </contour>
      <contour>
        <pt x="1111" y="854" on="1"/>
        <pt x="1111" y="1045" on="1"/>
        <pt x="510" y="1045" on="1"/>
        <pt x="510" y="854" on="1"/>
      </contour>
    </TTGlyph>
    <TTGlyph name="Hcircumflex" xMin="188" yMin="0" xMax="1413" yMax="1960">
      <component glyphName="H" x="0" y="0" flags="0x1004"/>
      <component glyphName="circumflex.cap" x="367" y="0" flags="0x1004"/>
    </TTGlyph>
    <TTGlyph name="I" xMin="201" yMin="0" xMax="521" yMax="1522">
      <contour>
        <pt x="201" y="1522" on="1"/>
        <pt x="521" y="1522" on="1"/>
        <pt x="521" y="0" on="1"/>
        <pt x="201" y="0" on="1"/>
      </contour>
    </TTGlyph>
    <TTGlyph name="IJ" xMin="201" yMin="-332" xMax="1323" yMax="1522">
      <component glyphName="I" x="0" y="0" flags="0x1004"/>
      <component glyphName="J" x="722" y="0" flags="0x1004"/>
    </TTGlyph>
    <TTGlyph name="Iacute" xMin="201" yMin="0" xMax="731" yMax="1980">
      <component glyphName="I" x="0" y="0" flags="0x1204"/>
      <component glyphName="acute.cap" x="134" y="0" flags="0x1004"/>
    </TTGlyph>
    <TTGlyph name="Ibreve" xMin="-4" yMin="0" xMax="725" yMax="1960">
      <component glyphName="I" x="0" y="0" flags="0x1204"/>
      <component glyphName="breve.cap" x="-47" y="0" flags="0x1004"/>
    </TTGlyph>
    <TTGlyph name="Icircumflex" xMin="-22" yMin="0" xMax="748" yMax="1960">
      <component glyphName="I" x="0" y="0" flags="0x1204"/>
      <component glyphName="circumflex.cap" x="-71" y="0" flags="0x1004"/>
    </TTGlyph>
    <TTGlyph name="Idieresis" xMin="-77" yMin="0" xMax="801" yMax="1960">
      <component glyphName="I" x="0" y="0" flags="0x1204"/>
      <component glyphName="dieresis.cap" x="-132" y="0" flags="0x1004"/>
    </TTGlyph>
    <TTGlyph name="Idotaccent" xMin="186" yMin="0" xMax="547" yMax="1959">
      <component glyphName="I" x="0" y="0" flags="0x1204"/>
      <component glyphName="dotaccent.cap" x="122" y="0" flags="0x1004"/>
    </TTGlyph>
    <TTGlyph name="Igrave" xMin="-6" yMin="0" xMax="521" yMax="1980">
      <component glyphName="I" x="0" y="0" flags="0x1204"/>
      <component glyphName="grave.cap" x="-63" y="0" flags="0x1004"/>
    </TTGlyph>
    <TTGlyph name="Imacron" xMin="69" yMin="0" xMax="660" yMax="1893">
      <component glyphName="I" x="0" y="0" flags="0x1204"/>
      <component glyphName="macron.cap" x="14" y="0" flags="0x1004"/>
    </TTGlyph>
    <TTGlyph name="Iogonek" xMin="40" yMin="-516" xMax="532" yMax="1522">
      <contour>
        <pt x="532" y="-448" on="1"/>
        <pt x="439" y="-516" on="0"/>
        <pt x="302" y="-516" on="1"/>
        <pt x="202" y="-516" on="0"/>
        <pt x="126" y="-464" on="1"/>
        <pt x="41" y="-403" on="0"/>
        <pt x="41" y="-300" on="1"/>
        <pt x="41" y="-119" on="0"/>
        <pt x="257" y="0" on="1"/>
        <pt x="201" y="0" on="1"/>
        <pt x="201" y="1522" on="1"/>
        <pt x="521" y="1522" on="1"/>
        <pt x="521" y="0" on="1"/>
        <pt x="464" y="0" on="1"/>
        <pt x="370" y="-62" on="0"/>
        <pt x="340" y="-95" on="1"/>
        <pt x="285" y="-155" on="0"/>
        <pt x="285" y="-210" on="1"/>
        <pt x="285" y="-217" on="0"/>
        <pt x="286" y="-223" on="1"/>
        <pt x="290" y="-311" on="0"/>
        <pt x="407" y="-311" on="1"/>
        <pt x="461" y="-311" on="0"/>
        <pt x="532" y="-291" on="1"/>
      </contour>
    </TTGlyph>
    <TTGlyph name="Itilde" xMin="-72" yMin="0" xMax="804" yMax="1958">
      <component glyphName="I" x="0" y="0" flags="0x1204"/>
      <component glyphName="tilde.cap" x="-104" y="0" flags="0x1004"/>
    </TTGlyph>
    <TTGlyph name="J" xMin="-10" yMin="-332" xMax="601" yMax="1522">
      <contour>
        <pt x="599" y="613" on="1"/>
        <pt x="600" y="398" on="1"/>
        <pt x="600" y="202" on="0"/>
        <pt x="567" y="21" on="0"/>
        <pt x="504" y="-96" on="0"/>
        <pt x="419" y="-189" on="0"/>
        <pt x="317" y="-259" on="0"/>
        <pt x="264" y="-282" on="1"/>
        <pt x="159" y="-330" on="0"/>
        <pt x="67" y="-332" on="1"/>
        <pt x="-10" y="-164" on="1"/>
        <pt x="201" y="-83" on="0"/>
        <pt x="247" y="117" on="1"/>
        <pt x="279" y="248" on="0"/>
        <pt x="279" y="608" on="1"/>
        <pt x="279" y="1522" on="1"/>
        <pt x="599" y="1522" on="1"/>
      </contour>
    </TTGlyph>
    <TTGlyph name="Jcircumflex" xMin="-10" yMin="-332" xMax="819" yMax="1960">
      <component glyphName="J" x="0" y="0" flags="0x1204"/>
      <component glyphName="circumflex.cap" x="0" y="0" flags="0x1004"/>
    </TTGlyph>
    <TTGlyph name="K" xMin="188" yMin="0" xMax="1411" yMax="1522">
      <contour>
        <pt x="188" y="1522" on="1"/>
        <pt x="506" y="1522" on="1"/>
        <pt x="506" y="848" on="1"/>
        <pt x="1041" y="1522" on="1"/>
        <pt x="1391" y="1522" on="1"/>
        <pt x="877" y="878" on="1"/>
        <pt x="1023" y="662" on="0"/>
        <pt x="1346" y="110" on="1"/>
        <pt x="1411" y="0" on="1"/>
        <pt x="1057" y="0" on="1"/>
        <pt x="1047" y="14" on="0"/>
        <pt x="1007" y="90" on="0"/>
        <pt x="955" y="183" on="0"/>
        <pt x="870" y="326" on="0"/>
        <pt x="828" y="395" on="1"/>
        <pt x="754" y="514" on="0"/>
        <pt x="663" y="646" on="1"/>
        <pt x="506" y="469" on="1"/>
        <pt x="506" y="0" on="1"/>
        <pt x="188" y="0" on="1"/>
      </contour>
    </TTGlyph>
    <TTGlyph name="Kcommaaccent" xMin="188" yMin="-560" xMax="1411" yMax="1522">
      <component glyphName="commaaccent" x="567" y="0" flags="0x1004"/>
      <component glyphName="K" x="0" y="0" flags="0x1004"/>
    </TTGlyph>
    <TTGlyph name="L" xMin="188" yMin="0" xMax="1054" yMax="1522">
      <contour>
        <pt x="188" y="1522" on="1"/>
        <pt x="506" y="1522" on="1"/>
        <pt x="506" y="242" on="1"/>
        <pt x="1054" y="242" on="1"/>
        <pt x="1054" y="0" on="1"/>
        <pt x="188" y="0" on="1"/>
      </contour>
    </TTGlyph>
    <TTGlyph name="Lacute" xMin="188" yMin="0" xMax="1054" yMax="1980">
      <component glyphName="acute.cap" x="122" y="0" flags="0x1004"/>
      <component glyphName="L" x="0" y="0" flags="0x1004"/>
    </TTGlyph>
    <TTGlyph name="Lcaron" xMin="188" yMin="0" xMax="1099" yMax="1708">
      <component glyphName="L" x="0" y="0" flags="0x1204"/>
      <component glyphName="caronvertical" x="736" y="0" flags="0x1004"/>
    </TTGlyph>
    <TTGlyph name="Lcommaaccent" xMin="188" yMin="-560" xMax="1054" yMax="1522">
      <component glyphName="commaaccent" x="433" y="0" flags="0x1004"/>
      <component glyphName="L" x="0" y="0" flags="0x1004"/>
    </TTGlyph>
    <TTGlyph name="Ldot" xMin="188" yMin="0" xMax="1273" yMax="1522">
      <component glyphName="period" x="757" y="674" flags="0x1004"/>
      <component glyphName="L" x="0" y="0" flags="0x1004"/>
    </TTGlyph>
    <TTGlyph name="Lslash" xMin="25" yMin="0" xMax="1054" yMax="1522">
      <contour>
        <pt x="188" y="604" on="1"/>
        <pt x="90" y="568" on="1"/>
        <pt x="25" y="738" on="1"/>
        <pt x="188" y="798" on="1"/>
        <pt x="188" y="1522" on="1"/>
        <pt x="506" y="1522" on="1"/>
        <pt x="506" y="915" on="1"/>
        <pt x="819" y="1031" on="1"/>
        <pt x="884" y="859" on="1"/>
        <pt x="506" y="720" on="1"/>
        <pt x="506" y="242" on="1"/>
        <pt x="1054" y="242" on="1"/>
        <pt x="1054" y="0" on="1"/>
        <pt x="188" y="0" on="1"/>
      </contour>
    </TTGlyph>
    <TTGlyph name="M" xMin="70" yMin="-15" xMax="1816" yMax="1522">
      <contour>
        <pt x="232" y="1522" on="1"/>
        <pt x="679" y="1522" on="1"/>
        <pt x="882" y="722" on="1"/>
        <pt x="959" y="386" on="1"/>
        <pt x="1017" y="722" on="1"/>
        <pt x="1200" y="1522" on="1"/>
        <pt x="1634" y="1522" on="1"/>
        <pt x="1816" y="0" on="1"/>
        <pt x="1504" y="0" on="1"/>
        <pt x="1429" y="816" on="1"/>
        <pt x="1402" y="1282" on="1"/>
        <pt x="1290" y="816" on="1"/>
        <pt x="1072" y="-15" on="1"/>
        <pt x="820" y="-15" on="1"/>
        <pt x="579" y="816" on="1"/>
        <pt x="466" y="1282" on="1"/>
        <pt x="365" y="0" on="1"/>
        <pt x="70" y="-1" on="1"/>
      </contour>
    </TTGlyph>
    <TTGlyph name="N" xMin="188" yMin="0" xMax="1432" yMax="1522">
      <contour>
        <pt x="188" y="1522" on="1"/>
        <pt x="483" y="1522" on="1"/>
        <pt x="1050" y="627" on="1"/>
        <pt x="1165" y="399" on="1"/>
        <pt x="1136" y="765" on="1"/>
        <pt x="1136" y="1522" on="1"/>
        <pt x="1432" y="1522" on="1"/>
        <pt x="1432" y="0" on="1"/>
        <pt x="1113" y="0" on="1"/>
        <pt x="570" y="861" on="1"/>
        <pt x="449" y="1104" on="1"/>
        <pt x="484" y="741" on="1"/>
        <pt x="484" y="0" on="1"/>
        <pt x="188" y="0" on="1"/>
      </contour>
    </TTGlyph>
    <TTGlyph name="Nacute" xMin="188" yMin="0" xMax="1432" yMax="1980">
      <component glyphName="acute.cap" x="583" y="0" flags="0x1004"/>
      <component glyphName="N" x="0" y="0" flags="0x1004"/>
    </TTGlyph>
    <TTGlyph name="Ncaron" xMin="188" yMin="0" xMax="1432" yMax="1960">
      <component glyphName="caron.cap" x="385" y="0" flags="0x1004"/>
      <component glyphName="N" x="0" y="0" flags="0x1004"/>
    </TTGlyph>
    <TTGlyph name="Ncommaaccent" xMin="188" yMin="-560" xMax="1432" yMax="1522">
      <component glyphName="commaaccent" x="598" y="0" flags="0x1004"/>
      <component glyphName="N" x="0" y="0" flags="0x1004"/>
    </TTGlyph>
    <TTGlyph name="Ntilde" xMin="188" yMin="0" xMax="1432" yMax="1958">
      <component glyphName="tilde.cap" x="344" y="0" flags="0x1004"/>
      <component glyphName="N" x="0" y="0" flags="0x1004"/>
    </TTGlyph>
    <TTGlyph name="O" xMin="97" yMin="-17" xMax="1498" yMax="1539">
      <contour>
        <pt x="497" y="37" on="1"/>
        <pt x="235" y="150" on="0"/>
        <pt x="142" y="443" on="1"/>
        <pt x="98" y="584" on="0"/>
        <pt x="98" y="956" on="0"/>
        <pt x="213" y="1253" on="0"/>
        <pt x="309" y="1346" on="1"/>
        <pt x="506" y="1538" on="0"/>
        <pt x="842" y="1538" on="1"/>
        <pt x="1142" y="1538" on="0"/>
        <pt x="1320" y="1330" on="1"/>
        <pt x="1497" y="1124" on="0"/>
        <pt x="1497" y="784" on="1"/>
        <pt x="1497" y="389" on="0"/>
        <pt x="1292" y="179" on="1"/>
        <pt x="1102" y="-16" on="0"/>
        <pt x="774" y="-16" on="1"/>
        <pt x="620" y="-16" on="0"/>
      </contour>
      <contour>
        <pt x="565" y="304" on="0"/>
        <pt x="705" y="221" on="0"/>
        <pt x="883" y="221" on="0"/>
        <pt x="1020" y="286" on="0"/>
        <pt x="1068" y="354" on="1"/>
        <pt x="1168" y="496" on="0"/>
        <pt x="1168" y="773" on="1"/>
        <pt x="1168" y="1007" on="0"/>
        <pt x="1080" y="1147" on="1"/>
        <pt x="986" y="1296" on="0"/>
        <pt x="814" y="1296" on="1"/>
        <pt x="544" y="1296" on="0"/>
        <pt x="458" y="1007" on="1"/>
        <pt x="427" y="905" on="0"/>
        <pt x="427" y="645" on="0"/>
        <pt x="473" y="450" on="0"/>
      </contour>
    </TTGlyph>
    <TTGlyph name="OE" xMin="105" yMin="-17" xMax="2047" yMax="1538">
      <contour>
        <pt x="1054" y="41" on="1"/>
        <pt x="948" y="-16" on="0"/>
        <pt x="625" y="-16" on="0"/>
        <pt x="497" y="42" on="1"/>
        <pt x="240" y="159" on="0"/>
        <pt x="148" y="454" on="1"/>
        <pt x="106" y="589" on="0"/>
        <pt x="106" y="748" on="1"/>
        <pt x="106" y="1125" on="0"/>
        <pt x="318" y="1340" on="1"/>
        <pt x="508" y="1534" on="0"/>
        <pt x="820" y="1538" on="1"/>
        <pt x="964" y="1538" on="0"/>
        <pt x="1054" y="1491" on="1"/>
        <pt x="1054" y="1522" on="1"/>
        <pt x="1982" y="1522" on="1"/>
        <pt x="1982" y="1278" on="1"/>
        <pt x="1372" y="1278" on="1"/>
        <pt x="1372" y="904" on="1"/>
        <pt x="1822" y="904" on="1"/>
        <pt x="1822" y="663" on="1"/>
        <pt x="1372" y="663" on="1"/>
        <pt x="1372" y="251" on="1"/>
        <pt x="2047" y="251" on="1"/>
        <pt x="2047" y="0" on="1"/>
        <pt x="1054" y="0" on="1"/>
      </contour>
      <contour>
        <pt x="1054" y="1190" on="1"/>
        <pt x="963" y="1296" on="0"/>
        <pt x="820" y="1296" on="1"/>
        <pt x="516" y="1296" on="0"/>
        <pt x="447" y="946" on="1"/>
        <pt x="431" y="864" on="0"/>
        <pt x="431" y="638" on="0"/>
        <pt x="480" y="440" on="0"/>
        <pt x="527" y="370" on="1"/>
        <pt x="626" y="221" on="0"/>
        <pt x="974" y="221" on="0"/>
        <pt x="1054" y="319" on="1"/>
      </contour>
    </TTGlyph>
    <TTGlyph name="Oacute" xMin="97" yMin="-17" xMax="1498" yMax="1980">
      <component glyphName="acute.cap" x="596" y="0" flags="0x1004"/>
      <component glyphName="O" x="0" y="0" flags="0x1004"/>
    </TTGlyph>
    <TTGlyph name="Obreve" xMin="97" yMin="-17" xMax="1498" yMax="1960">
      <component glyphName="breve.cap" x="414" y="0" flags="0x1004"/>
      <component glyphName="O" x="0" y="0" flags="0x1004"/>
    </TTGlyph>
    <TTGlyph name="Ocircumflex" xMin="97" yMin="-17" xMax="1498" yMax="1960">
      <component glyphName="O" x="0" y="0" flags="0x1204"/>
      <component glyphName="circumflex.cap" x="390" y="0" flags="0x1004"/>
    </TTGlyph>
    <TTGlyph name="Odieresis" xMin="97" yMin="-17" xMax="1498" yMax="1960">
      <component glyphName="dieresis.cap" x="329" y="0" flags="0x1004"/>
      <component glyphName="O" x="0" y="0" flags="0x1004"/>
    </TTGlyph>
    <TTGlyph name="Ograve" xMin="97" yMin="-17" xMax="1498" yMax="1980">
      <component glyphName="grave.cap" x="398" y="0" flags="0x1004"/>
      <component glyphName="O" x="0" y="0" flags="0x1004"/>
    </TTGlyph>
    <TTGlyph name="Ohungarumlaut" xMin="97" yMin="-17" xMax="1498" yMax="1960">
      <component glyphName="O" x="0" y="0" flags="0x1204"/>
      <component glyphName="hungarumlaut.cap" x="403" y="0" flags="0x1004"/>
    </TTGlyph>
    <TTGlyph name="Omacron" xMin="97" yMin="-17" xMax="1498" yMax="1893">
      <component glyphName="macron.cap" x="476" y="0" flags="0x1004"/>
      <component glyphName="O" x="0" y="0" flags="0x1004"/>
    </TTGlyph>
    <TTGlyph name="Omega" xMin="169" yMin="0" xMax="1665" yMax="1545">
      <contour>
        <pt x="169" y="218" on="1"/>
        <pt x="474" y="218" on="1"/>
        <pt x="280" y="385" on="0"/>
        <pt x="208" y="658" on="1"/>
        <pt x="186" y="742" on="0"/>
        <pt x="186" y="789" on="1"/>
        <pt x="186" y="1025" on="0"/>
        <pt x="312" y="1301" on="0"/>
        <pt x="412" y="1385" on="1"/>
        <pt x="604" y="1545" on="0"/>
        <pt x="918" y="1545" on="1"/>
        <pt x="1253" y="1545" on="0"/>
        <pt x="1440" y="1375" on="1"/>
        <pt x="1632" y="1200" on="0"/>
        <pt x="1632" y="864" on="1"/>
        <pt x="1632" y="670" on="0"/>
        <pt x="1549" y="486" on="1"/>
        <pt x="1473" y="318" on="0"/>
        <pt x="1352" y="218" on="1"/>
        <pt x="1665" y="218" on="1"/>
        <pt x="1665" y="0" on="1"/>
        <pt x="1059" y="0" on="1"/>
        <pt x="1059" y="179" on="1"/>
        <pt x="1157" y="238" on="0"/>
        <pt x="1226" y="400" on="1"/>
        <pt x="1303" y="584" on="0"/>
        <pt x="1303" y="817" on="1"/>
        <pt x="1303" y="1070" on="0"/>
        <pt x="1186" y="1206" on="1"/>
        <pt x="1082" y="1324" on="0"/>
        <pt x="918" y="1324" on="1"/>
        <pt x="744" y="1324" on="0"/>
        <pt x="636" y="1206" on="1"/>
        <pt x="515" y="1072" on="0"/>
        <pt x="515" y="817" on="1"/>
        <pt x="515" y="590" on="0"/>
        <pt x="606" y="400" on="1"/>
        <pt x="682" y="242" on="0"/>
        <pt x="788" y="179" on="1"/>
        <pt x="788" y="0" on="1"/>
        <pt x="169" y="0" on="1"/>
      </contour>
    </TTGlyph>
    <TTGlyph name="Oslash" xMin="97" yMin="-220" xMax="1498" yMax="1781">
      <contour>
        <pt x="463" y="52" on="1"/>
        <pt x="191" y="190" on="0"/>
        <pt x="118" y="532" on="1"/>
        <pt x="98" y="630" on="0"/>
        <pt x="98" y="693" on="1"/>
        <pt x="98" y="956" on="0"/>
        <pt x="213" y="1253" on="0"/>
        <pt x="309" y="1346" on="1"/>
        <pt x="506" y="1538" on="0"/>
        <pt x="845" y="1538" on="1"/>
        <pt x="925" y="1538" on="0"/>
        <pt x="998" y="1521" on="1"/>
        <pt x="1093" y="1781" on="1"/>
        <pt x="1218" y="1749" on="1"/>
        <pt x="1120" y="1481" on="1"/>
        <pt x="1302" y="1399" on="0"/>
        <pt x="1402" y="1210" on="1"/>
        <pt x="1497" y="1029" on="0"/>
        <pt x="1497" y="782" on="1"/>
        <pt x="1497" y="389" on="0"/>
        <pt x="1292" y="179" on="1"/>
        <pt x="1103" y="-16" on="0"/>
        <pt x="782" y="-16" on="1"/>
        <pt x="676" y="-16" on="0"/>
        <pt x="584" y="7" on="1"/>
        <pt x="501" y="-220" on="1"/>
        <pt x="376" y="-188" on="1"/>
      </contour>
      <contour>
        <pt x="911" y="1282" on="1"/>
        <pt x="864" y="1296" on="0"/>
        <pt x="734" y="1296" on="0"/>
        <pt x="594" y="1238" on="0"/>
        <pt x="541" y="1174" on="1"/>
        <pt x="427" y="1035" on="0"/>
        <pt x="427" y="758" on="1"/>
        <pt x="427" y="466" on="0"/>
        <pt x="561" y="322" on="1"/>
      </contour>
      <contour>
        <pt x="670" y="245" on="1"/>
        <pt x="727" y="221" on="0"/>
        <pt x="883" y="221" on="0"/>
        <pt x="1020" y="286" on="0"/>
        <pt x="1068" y="354" on="1"/>
        <pt x="1168" y="496" on="0"/>
        <pt x="1168" y="773" on="1"/>
        <pt x="1168" y="1078" on="0"/>
        <pt x="1024" y="1216" on="1"/>
      </contour>
    </TTGlyph>
    <TTGlyph name="Otilde" xMin="97" yMin="-17" xMax="1498" yMax="1958">
      <component glyphName="tilde.cap" x="357" y="0" flags="0x1004"/>
      <component glyphName="O" x="0" y="0" flags="0x1004"/>
    </TTGlyph>
    <TTGlyph name="P" xMin="188" yMin="0" xMax="1289" yMax="1538">
      <contour>
        <pt x="1055" y="536" on="0"/>
        <pt x="828" y="461" on="0"/>
        <pt x="558" y="461" on="0"/>
        <pt x="506" y="463" on="1"/>
        <pt x="506" y="0" on="1"/>
        <pt x="188" y="0" on="1"/>
        <pt x="188" y="1522" on="1"/>
        <pt x="284" y="1522" on="1"/>
        <pt x="733" y="1538" on="1"/>
        <pt x="1142" y="1538" on="0"/>
        <pt x="1251" y="1254" on="1"/>
        <pt x="1289" y="1154" on="0"/>
        <pt x="1289" y="882" on="0"/>
        <pt x="1209" y="677" on="0"/>
      </contour>
      <contour>
        <pt x="973" y="1163" on="0"/>
        <pt x="824" y="1307" on="0"/>
        <pt x="571" y="1307" on="0"/>
        <pt x="506" y="1293" on="1"/>
        <pt x="506" y="710" on="1"/>
        <pt x="565" y="702" on="0"/>
        <pt x="730" y="702" on="0"/>
        <pt x="839" y="730" on="0"/>
        <pt x="881" y="766" on="1"/>
        <pt x="973" y="843" on="0"/>
      </contour>
    </TTGlyph>
    <TTGlyph name="Q" xMin="97" yMin="-326" xMax="1550" yMax="1539">
      <contour>
        <pt x="714" y="-14" on="1"/>
        <pt x="423" y="6" on="0"/>
        <pt x="256" y="223" on="1"/>
        <pt x="98" y="427" on="0"/>
        <pt x="98" y="746" on="1"/>
        <pt x="98" y="1141" on="0"/>
        <pt x="309" y="1346" on="1"/>
        <pt x="506" y="1538" on="0"/>
        <pt x="842" y="1538" on="1"/>
        <pt x="1142" y="1538" on="0"/>
        <pt x="1320" y="1330" on="1"/>
        <pt x="1497" y="1124" on="0"/>
        <pt x="1497" y="784" on="1"/>
        <pt x="1497" y="454" on="0"/>
        <pt x="1351" y="250" on="1"/>
        <pt x="1220" y="66" on="0"/>
        <pt x="987" y="8" on="1"/>
        <pt x="1045" y="-70" on="0"/>
        <pt x="1230" y="-78" on="1"/>
        <pt x="1286" y="-81" on="0"/>
        <pt x="1368" y="-81" on="0"/>
        <pt x="1423" y="-77" on="0"/>
        <pt x="1452" y="-74" on="1"/>
        <pt x="1519" y="-67" on="0"/>
        <pt x="1550" y="-56" on="1"/>
        <pt x="1550" y="-275" on="1"/>
        <pt x="1510" y="-304" on="0"/>
        <pt x="1346" y="-326" on="0"/>
        <pt x="1199" y="-326" on="0"/>
        <pt x="1007" y="-296" on="0"/>
        <pt x="930" y="-260" on="1"/>
        <pt x="769" y="-185" on="0"/>
      </contour>
      <contour>
        <pt x="565" y="304" on="0"/>
        <pt x="705" y="221" on="0"/>
        <pt x="883" y="221" on="0"/>
        <pt x="1020" y="286" on="0"/>
        <pt x="1068" y="354" on="1"/>
        <pt x="1168" y="496" on="0"/>
        <pt x="1168" y="773" on="1"/>
        <pt x="1168" y="1007" on="0"/>
        <pt x="1080" y="1147" on="1"/>
        <pt x="986" y="1296" on="0"/>
        <pt x="814" y="1296" on="1"/>
        <pt x="544" y="1296" on="0"/>
        <pt x="458" y="1007" on="1"/>
        <pt x="427" y="905" on="0"/>
        <pt x="427" y="645" on="0"/>
        <pt x="473" y="450" on="0"/>
      </contour>
    </TTGlyph>
    <TTGlyph name="R" xMin="188" yMin="0" xMax="1381" yMax="1538">
      <contour>
        <pt x="707" y="579" on="1"/>
        <pt x="631" y="575" on="0"/>
        <pt x="506" y="575" on="1"/>
        <pt x="506" y="0" on="1"/>
        <pt x="188" y="0" on="1"/>
        <pt x="188" y="1522" on="1"/>
        <pt x="335" y="1522" on="1"/>
        <pt x="370" y="1522" on="0"/>
        <pt x="443" y="1527" on="0"/>
        <pt x="490" y="1530" on="1"/>
        <pt x="613" y="1538" on="0"/>
        <pt x="846" y="1538" on="0"/>
        <pt x="1044" y="1495" on="0"/>
        <pt x="1120" y="1442" on="1"/>
        <pt x="1287" y="1327" on="0"/>
        <pt x="1287" y="1078" on="1"/>
        <pt x="1287" y="736" on="0"/>
        <pt x="1034" y="635" on="1"/>
        <pt x="1108" y="572" on="0"/>
        <pt x="1185" y="398" on="1"/>
        <pt x="1217" y="326" on="0"/>
        <pt x="1280" y="175" on="0"/>
        <pt x="1318" y="110" on="1"/>
        <pt x="1381" y="0" on="1"/>
        <pt x="1027" y="0" on="1"/>
        <pt x="1010" y="24" on="0"/>
        <pt x="982" y="86" on="0"/>
        <pt x="949" y="154" on="0"/>
        <pt x="914" y="258" on="0"/>
        <pt x="880" y="362" on="0"/>
        <pt x="844" y="459" on="0"/>
        <pt x="822" y="496" on="1"/>
        <pt x="774" y="577" on="0"/>
      </contour>
      <contour>
        <pt x="686" y="1301" on="1"/>
        <pt x="582" y="1301" on="0"/>
        <pt x="506" y="1283" on="1"/>
        <pt x="506" y="804" on="1"/>
        <pt x="554" y="798" on="0"/>
        <pt x="624" y="798" on="1"/>
        <pt x="715" y="798" on="1"/>
        <pt x="849" y="798" on="0"/>
        <pt x="918" y="880" on="1"/>
        <pt x="978" y="951" on="0"/>
        <pt x="978" y="1069" on="1"/>
        <pt x="978" y="1175" on="0"/>
        <pt x="928" y="1230" on="1"/>
        <pt x="864" y="1301" on="0"/>
      </contour>
    </TTGlyph>
    <TTGlyph name="Racute" xMin="188" yMin="0" xMax="1381" yMax="1980">
      <component glyphName="R" x="0" y="0" flags="0x1204"/>
      <component glyphName="acute.cap" x="528" y="0" flags="0x1004"/>
    </TTGlyph>
    <TTGlyph name="Rcaron" xMin="188" yMin="0" xMax="1381" yMax="1960">
      <component glyphName="caron.cap" x="330" y="0" flags="0x1004"/>
      <component glyphName="R" x="0" y="0" flags="0x1004"/>
    </TTGlyph>
    <TTGlyph name="Rcommaaccent" xMin="188" yMin="-560" xMax="1381" yMax="1538">
      <component glyphName="commaaccent" x="556" y="0" flags="0x1004"/>
      <component glyphName="R" x="0" y="0" flags="0x1004"/>
    </TTGlyph>
    <TTGlyph name="S" xMin="139" yMin="-16" xMax="1132" yMax="1538">
      <contour>
        <pt x="679" y="1300" on="1"/>
        <pt x="451" y="1300" on="0"/>
        <pt x="451" y="1144" on="1"/>
        <pt x="451" y="1067" on="0"/>
        <pt x="513" y="1013" on="1"/>
        <pt x="558" y="974" on="0"/>
        <pt x="804" y="843" on="0"/>
        <pt x="957" y="750" on="0"/>
        <pt x="1013" y="694" on="1"/>
        <pt x="1132" y="577" on="0"/>
        <pt x="1132" y="408" on="1"/>
        <pt x="1132" y="206" on="0"/>
        <pt x="987" y="93" on="1"/>
        <pt x="848" y="-16" on="0"/>
        <pt x="609" y="-16" on="1"/>
        <pt x="397" y="-16" on="0"/>
        <pt x="220" y="45" on="1"/>
        <pt x="173" y="61" on="0"/>
        <pt x="152" y="74" on="1"/>
        <pt x="197" y="329" on="1"/>
        <pt x="310" y="266" on="0"/>
        <pt x="471" y="242" on="1"/>
        <pt x="528" y="233" on="0"/>
        <pt x="652" y="233" on="0"/>
        <pt x="738" y="253" on="0"/>
        <pt x="764" y="272" on="1"/>
        <pt x="812" y="308" on="0"/>
        <pt x="812" y="388" on="1"/>
        <pt x="812" y="466" on="0"/>
        <pt x="752" y="518" on="1"/>
        <pt x="700" y="564" on="0"/>
        <pt x="472" y="677" on="0"/>
        <pt x="381" y="730" on="0"/>
        <pt x="297" y="794" on="0"/>
        <pt x="224" y="869" on="0"/>
        <pt x="197" y="914" on="1"/>
        <pt x="139" y="1012" on="0"/>
        <pt x="139" y="1240" on="0"/>
        <pt x="224" y="1397" on="0"/>
        <pt x="297" y="1446" on="1"/>
        <pt x="436" y="1538" on="0"/>
        <pt x="670" y="1538" on="1"/>
        <pt x="864" y="1538" on="0"/>
        <pt x="1006" y="1478" on="1"/>
        <pt x="1043" y="1463" on="0"/>
        <pt x="1063" y="1450" on="1"/>
        <pt x="1011" y="1203" on="1"/>
        <pt x="860" y="1300" on="0"/>
      </contour>
    </TTGlyph>
    <TTGlyph name="Sacute" xMin="139" yMin="-16" xMax="1132" yMax="1980">
      <component glyphName="S" x="0" y="0" flags="0x1204"/>
      <component glyphName="acute.cap" x="422" y="0" flags="0x1004"/>
    </TTGlyph>
    <TTGlyph name="Scaron" xMin="139" yMin="-16" xMax="1132" yMax="1960">
      <component glyphName="S" x="0" y="0" flags="0x1204"/>
      <component glyphName="caron.cap" x="224" y="0" flags="0x1004"/>
    </TTGlyph>
    <TTGlyph name="Scedilla" xMin="139" yMin="-464" xMax="1132" yMax="1538">
      <contour>
        <pt x="340" y="-271" on="1"/>
        <pt x="363" y="-285" on="0"/>
        <pt x="466" y="-285" on="0"/>
        <pt x="535" y="-212" on="0"/>
        <pt x="538" y="-135" on="1"/>
        <pt x="539" y="-116" on="0"/>
        <pt x="539" y="-98" on="1"/>
        <pt x="539" y="-50" on="0"/>
        <pt x="526" y="-13" on="1"/>
        <pt x="347" y="-2" on="0"/>
        <pt x="207" y="50" on="1"/>
        <pt x="170" y="63" on="0"/>
        <pt x="152" y="74" on="1"/>
        <pt x="197" y="329" on="1"/>
        <pt x="310" y="266" on="0"/>
        <pt x="471" y="242" on="1"/>
        <pt x="528" y="233" on="0"/>
        <pt x="652" y="233" on="0"/>
        <pt x="738" y="253" on="0"/>
        <pt x="764" y="272" on="1"/>
        <pt x="812" y="308" on="0"/>
        <pt x="812" y="388" on="1"/>
        <pt x="812" y="466" on="0"/>
        <pt x="752" y="518" on="1"/>
        <pt x="700" y="564" on="0"/>
        <pt x="472" y="677" on="0"/>
        <pt x="381" y="730" on="0"/>
        <pt x="297" y="794" on="0"/>
        <pt x="224" y="869" on="0"/>
        <pt x="197" y="914" on="1"/>
        <pt x="139" y="1012" on="0"/>
        <pt x="139" y="1240" on="0"/>
        <pt x="224" y="1397" on="0"/>
        <pt x="297" y="1446" on="1"/>
        <pt x="436" y="1538" on="0"/>
        <pt x="670" y="1538" on="1"/>
        <pt x="864" y="1538" on="0"/>
        <pt x="1006" y="1478" on="1"/>
        <pt x="1043" y="1463" on="0"/>
        <pt x="1063" y="1450" on="1"/>
        <pt x="1011" y="1203" on="1"/>
        <pt x="860" y="1300" on="0"/>
        <pt x="679" y="1300" on="1"/>
        <pt x="451" y="1300" on="0"/>
        <pt x="451" y="1144" on="1"/>
        <pt x="451" y="1067" on="0"/>
        <pt x="513" y="1013" on="1"/>
        <pt x="558" y="974" on="0"/>
        <pt x="804" y="843" on="0"/>
        <pt x="957" y="750" on="0"/>
        <pt x="1013" y="694" on="1"/>
        <pt x="1132" y="577" on="0"/>
        <pt x="1132" y="408" on="1"/>
        <pt x="1132" y="231" on="0"/>
        <pt x="1019" y="122" on="1"/>
        <pt x="910" y="16" on="0"/>
        <pt x="720" y="-9" on="1"/>
        <pt x="755" y="-80" on="0"/>
        <pt x="755" y="-199" on="1"/>
        <pt x="755" y="-401" on="0"/>
        <pt x="596" y="-450" on="1"/>
        <pt x="550" y="-464" on="0"/>
        <pt x="478" y="-464" on="0"/>
        <pt x="424" y="-460" on="0"/>
        <pt x="398" y="-456" on="1"/>
        <pt x="336" y="-446" on="0"/>
        <pt x="320" y="-436" on="1"/>
      </contour>
    </TTGlyph>
    <TTGlyph name="Scircumflex" xMin="139" yMin="-16" xMax="1132" yMax="1960">
      <component glyphName="S" x="0" y="0" flags="0x1204"/>
      <component glyphName="circumflex.cap" x="216" y="0" flags="0x1004"/>
    </TTGlyph>
    <TTGlyph name="T" xMin="30" yMin="0" xMax="1220" yMax="1522">
      <contour>
        <pt x="466" y="1278" on="1"/>
        <pt x="30" y="1278" on="1"/>
        <pt x="30" y="1522" on="1"/>
        <pt x="1220" y="1522" on="1"/>
        <pt x="1220" y="1278" on="1"/>
        <pt x="786" y="1278" on="1"/>
        <pt x="786" y="0" on="1"/>
        <pt x="466" y="0" on="1"/>
      </contour>
    </TTGlyph>
    <TTGlyph name="Tbar" xMin="30" yMin="0" xMax="1220" yMax="1522">
      <contour>
        <pt x="466" y="597" on="1"/>
        <pt x="193" y="597" on="1"/>
        <pt x="193" y="796" on="1"/>
        <pt x="466" y="796" on="1"/>
        <pt x="466" y="1278" on="1"/>
        <pt x="30" y="1278" on="1"/>
        <pt x="30" y="1522" on="1"/>
        <pt x="1220" y="1522" on="1"/>
        <pt x="1220" y="1278" on="1"/>
        <pt x="786" y="1278" on="1"/>
        <pt x="786" y="796" on="1"/>
        <pt x="1075" y="796" on="1"/>
        <pt x="1075" y="597" on="1"/>
        <pt x="786" y="597" on="1"/>
        <pt x="786" y="0" on="1"/>
        <pt x="466" y="0" on="1"/>
      </contour>
    </TTGlyph>
    <TTGlyph name="Tcaron" xMin="30" yMin="0" xMax="1220" yMax="1960">
      <component glyphName="caron.cap" x="196" y="0" flags="0x1004"/>
      <component glyphName="T" x="0" y="0" flags="0x1004"/>
    </TTGlyph>
    <TTGlyph name="Thorn" xMin="188" yMin="0" xMax="1282" yMax="1522">
      <contour>
        <pt x="720" y="257" on="1"/>
        <pt x="596" y="257" on="0"/>
        <pt x="506" y="266" on="1"/>
        <pt x="506" y="0" on="1"/>
        <pt x="188" y="0" on="1"/>
        <pt x="188" y="1522" on="1"/>
        <pt x="506" y="1522" on="1"/>
        <pt x="506" y="1274" on="1"/>
        <pt x="685" y="1287" on="0"/>
        <pt x="871" y="1287" on="0"/>
        <pt x="1068" y="1229" on="0"/>
        <pt x="1138" y="1170" on="1"/>
        <pt x="1282" y="1047" on="0"/>
        <pt x="1282" y="805" on="1"/>
        <pt x="1282" y="545" on="0"/>
        <pt x="1132" y="402" on="1"/>
        <pt x="982" y="257" on="0"/>
      </contour>
      <contour>
        <pt x="918" y="587" on="0"/>
        <pt x="967" y="705" on="0"/>
        <pt x="967" y="927" on="0"/>
        <pt x="817" y="1047" on="0"/>
        <pt x="578" y="1047" on="0"/>
        <pt x="506" y="1028" on="1"/>
        <pt x="506" y="510" on="1"/>
        <pt x="557" y="500" on="0"/>
        <pt x="723" y="500" on="0"/>
        <pt x="834" y="522" on="0"/>
      </contour>
    </TTGlyph>
    <TTGlyph name="U" xMin="150" yMin="-16" xMax="1376" yMax="1522">
      <contour>
        <pt x="152" y="1522" on="1"/>
        <pt x="467" y="1522" on="1"/>
        <pt x="465" y="670" on="1"/>
        <pt x="465" y="418" on="0"/>
        <pt x="542" y="321" on="1"/>
        <pt x="609" y="238" on="0"/>
        <pt x="767" y="238" on="1"/>
        <pt x="918" y="238" on="0"/>
        <pt x="986" y="327" on="1"/>
        <pt x="1063" y="427" on="0"/>
        <pt x="1063" y="670" on="1"/>
        <pt x="1063" y="1522" on="1"/>
        <pt x="1376" y="1522" on="1"/>
        <pt x="1376" y="640" on="1"/>
        <pt x="1376" y="320" on="0"/>
        <pt x="1065" y="-16" on="0"/>
        <pt x="758" y="-16" on="1"/>
        <pt x="278" y="-16" on="0"/>
        <pt x="180" y="378" on="1"/>
        <pt x="150" y="502" on="0"/>
        <pt x="150" y="653" on="1"/>
      </contour>
    </TTGlyph>
    <TTGlyph name="Uacute" xMin="150" yMin="-16" xMax="1376" yMax="1980">
      <component glyphName="acute.cap" x="541" y="0" flags="0x1004"/>
      <component glyphName="U" x="0" y="0" flags="0x1004"/>
    </TTGlyph>
    <TTGlyph name="Ubreve" xMin="150" yMin="-16" xMax="1376" yMax="1960">
      <component glyphName="breve.cap" x="359" y="0" flags="0x1004"/>
      <component glyphName="U" x="0" y="0" flags="0x1004"/>
    </TTGlyph>
    <TTGlyph name="Ucircumflex" xMin="150" yMin="-16" xMax="1376" yMax="1960">
      <component glyphName="U" x="0" y="0" flags="0x1204"/>
      <component glyphName="circumflex.cap" x="335" y="0" flags="0x1004"/>
    </TTGlyph>
    <TTGlyph name="Udieresis" xMin="150" yMin="-16" xMax="1376" yMax="1960">
      <component glyphName="dieresis.cap" x="274" y="0" flags="0x1004"/>
      <component glyphName="U" x="0" y="0" flags="0x1004"/>
    </TTGlyph>
    <TTGlyph name="Ugrave" xMin="150" yMin="-16" xMax="1376" yMax="1980">
      <component glyphName="grave.cap" x="343" y="0" flags="0x1004"/>
      <component glyphName="U" x="0" y="0" flags="0x1004"/>
    </TTGlyph>
    <TTGlyph name="Uhungarumlaut" xMin="150" yMin="-16" xMax="1376" yMax="1960">
      <component glyphName="U" x="0" y="0" flags="0x1204"/>
      <component glyphName="hungarumlaut.cap" x="348" y="0" flags="0x1004"/>
    </TTGlyph>
    <TTGlyph name="Umacron" xMin="150" yMin="-16" xMax="1376" yMax="1893">
      <component glyphName="macron.cap" x="421" y="0" flags="0x1004"/>
      <component glyphName="U" x="0" y="0" flags="0x1004"/>
    </TTGlyph>
    <TTGlyph name="Uogonek" xMin="150" yMin="-516" xMax="1376" yMax="1522">
      <contour>
        <pt x="776" y="-15" on="1"/>
        <pt x="758" y="-16" on="1"/>
        <pt x="278" y="-16" on="0"/>
        <pt x="180" y="378" on="1"/>
        <pt x="150" y="502" on="0"/>
        <pt x="150" y="653" on="1"/>
        <pt x="152" y="1522" on="1"/>
        <pt x="467" y="1522" on="1"/>
        <pt x="465" y="670" on="1"/>
        <pt x="465" y="418" on="0"/>
        <pt x="542" y="321" on="1"/>
        <pt x="609" y="238" on="0"/>
        <pt x="767" y="238" on="1"/>
        <pt x="918" y="238" on="0"/>
        <pt x="986" y="327" on="1"/>
        <pt x="1063" y="427" on="0"/>
        <pt x="1063" y="670" on="1"/>
        <pt x="1063" y="1522" on="1"/>
        <pt x="1376" y="1522" on="1"/>
        <pt x="1376" y="640" on="1"/>
        <pt x="1376" y="130" on="0"/>
        <pt x="994" y="16" on="1"/>
        <pt x="866" y="-102" on="0"/>
        <pt x="866" y="-223" on="1"/>
        <pt x="870" y="-311" on="0"/>
        <pt x="987" y="-311" on="1"/>
        <pt x="1041" y="-311" on="0"/>
        <pt x="1112" y="-291" on="1"/>
        <pt x="1112" y="-448" on="1"/>
        <pt x="1018" y="-516" on="0"/>
        <pt x="882" y="-516" on="1"/>
        <pt x="784" y="-516" on="0"/>
        <pt x="706" y="-454" on="1"/>
        <pt x="620" y="-384" on="0"/>
        <pt x="620" y="-276" on="1"/>
        <pt x="620" y="-123" on="0"/>
      </contour>
    </TTGlyph>
    <TTGlyph name="Uring" xMin="150" yMin="-16" xMax="1376" yMax="1970">
      <component glyphName="U" x="0" y="0" flags="0x1204"/>
      <component glyphName="ring.cap" x="382" y="0" flags="0x1004"/>
    </TTGlyph>
    <TTGlyph name="Utilde" xMin="150" yMin="-16" xMax="1376" yMax="1958">
      <component glyphName="tilde.cap" x="302" y="0" flags="0x1004"/>
      <component glyphName="U" x="0" y="0" flags="0x1004"/>
    </TTGlyph>
    <TTGlyph name="V" xMin="-5" yMin="-6" xMax="1391" yMax="1522">
      <contour>
        <pt x="-5" y="1522" on="1"/>
        <pt x="336" y="1522" on="1"/>
        <pt x="620" y="691" on="1"/>
        <pt x="701" y="401" on="1"/>
        <pt x="783" y="691" on="1"/>
        <pt x="1052" y="1522" on="1"/>
        <pt x="1391" y="1522" on="1"/>
        <pt x="831" y="-6" on="1"/>
        <pt x="561" y="-6" on="1"/>
      </contour>
    </TTGlyph>
    <TTGlyph name="W" xMin="5" yMin="-16" xMax="1968" yMax="1522">
      <contour>
        <pt x="5" y="1522" on="1"/>
        <pt x="324" y="1522" on="1"/>
        <pt x="512" y="628" on="1"/>
        <pt x="565" y="258" on="1"/>
        <pt x="626" y="628" on="1"/>
        <pt x="846" y="1522" on="1"/>
        <pt x="1130" y="1522" on="1"/>
        <pt x="1364" y="628" on="1"/>
        <pt x="1426" y="274" on="1"/>
        <pt x="1477" y="628" on="1"/>
        <pt x="1650" y="1522" on="1"/>
        <pt x="1968" y="1522" on="1"/>
        <pt x="1570" y="-16" on="1"/>
        <pt x="1244" y="-16" on="1"/>
        <pt x="1030" y="834" on="1"/>
        <pt x="981" y="1162" on="1"/>
        <pt x="936" y="833" on="1"/>
        <pt x="717" y="-16" on="1"/>
        <pt x="413" y="-16" on="1"/>
      </contour>
    </TTGlyph>
    <TTGlyph name="Wacute" xMin="5" yMin="-16" xMax="1968" yMax="1980">
      <component glyphName="acute.cap" x="739" y="0" flags="0x1004"/>
      <component glyphName="W" x="0" y="0" flags="0x1004"/>
    </TTGlyph>
    <TTGlyph name="Wcircumflex" xMin="5" yMin="-16" xMax="1968" yMax="1960">
      <component glyphName="W" x="0" y="0" flags="0x1204"/>
      <component glyphName="circumflex.cap" x="533" y="0" flags="0x1004"/>
    </TTGlyph>
    <TTGlyph name="Wdieresis" xMin="5" yMin="-16" xMax="1968" yMax="1960">
      <component glyphName="dieresis.cap" x="472" y="0" flags="0x1004"/>
      <component glyphName="W" x="0" y="0" flags="0x1004"/>
    </TTGlyph>
    <TTGlyph name="Wgrave" xMin="5" yMin="-16" xMax="1968" yMax="1980">
      <component glyphName="grave.cap" x="541" y="0" flags="0x1004"/>
      <component glyphName="W" x="0" y="0" flags="0x1004"/>
    </TTGlyph>
    <TTGlyph name="X" xMin="32" yMin="0" xMax="1344" yMax="1523">
      <contour>
        <pt x="491" y="785" on="1"/>
        <pt x="43" y="1522" on="1"/>
        <pt x="391" y="1523" on="1"/>
        <pt x="703" y="983" on="1"/>
        <pt x="998" y="1522" on="1"/>
        <pt x="1334" y="1522" on="1"/>
        <pt x="880" y="752" on="1"/>
        <pt x="1344" y="0" on="1"/>
        <pt x="991" y="0" on="1"/>
        <pt x="673" y="556" on="1"/>
        <pt x="364" y="0" on="1"/>
        <pt x="32" y="0" on="1"/>
      </contour>
    </TTGlyph>
    <TTGlyph name="Y" xMin="-50" yMin="0" xMax="1291" yMax="1522">
      <contour>
        <pt x="461" y="535" on="1"/>
        <pt x="-50" y="1522" on="1"/>
        <pt x="300" y="1522" on="1"/>
        <pt x="580" y="932" on="1"/>
        <pt x="624" y="818" on="1"/>
        <pt x="662" y="932" on="1"/>
        <pt x="950" y="1522" on="1"/>
        <pt x="1291" y="1522" on="1"/>
        <pt x="780" y="533" on="1"/>
        <pt x="780" y="0" on="1"/>
        <pt x="461" y="0" on="1"/>
      </contour>
    </TTGlyph>
    <TTGlyph name="Yacute" xMin="-50" yMin="0" xMax="1291" yMax="1980">
      <component glyphName="Y" x="0" y="0" flags="0x1204"/>
      <component glyphName="acute.cap" x="412" y="0" flags="0x1004"/>
    </TTGlyph>
    <TTGlyph name="Ycircumflex" xMin="-50" yMin="0" xMax="1291" yMax="1960">
      <component glyphName="Y" x="0" y="0" flags="0x1204"/>
      <component glyphName="circumflex.cap" x="206" y="0" flags="0x1004"/>
    </TTGlyph>
    <TTGlyph name="Ydieresis" xMin="-50" yMin="0" xMax="1291" yMax="1960">
      <component glyphName="Y" x="0" y="0" flags="0x1204"/>
      <component glyphName="dieresis.cap" x="145" y="0" flags="0x1004"/>
    </TTGlyph>
    <TTGlyph name="Ygrave" xMin="-50" yMin="0" xMax="1291" yMax="1980">
      <component glyphName="Y" x="0" y="0" flags="0x1204"/>
      <component glyphName="grave.cap" x="214" y="0" flags="0x1004"/>
    </TTGlyph>
    <TTGlyph name="Z" xMin="54" yMin="0" xMax="1235" yMax="1522">
      <contour>
        <pt x="54" y="84" on="1"/>
        <pt x="740" y="1210" on="1"/>
        <pt x="798" y="1291" on="1"/>
        <pt x="130" y="1291" on="1"/>
        <pt x="130" y="1522" on="1"/>
        <pt x="1197" y="1522" on="1"/>
        <pt x="1235" y="1441" on="1"/>
        <pt x="563" y="335" on="1"/>
        <pt x="490" y="242" on="1"/>
        <pt x="1196" y="242" on="1"/>
        <pt x="1196" y="0" on="1"/>
        <pt x="94" y="0" on="1"/>
      </contour>
    </TTGlyph>
    <TTGlyph name="Zacute" xMin="54" yMin="0" xMax="1235" yMax="1980">
      <component glyphName="Z" x="0" y="0" flags="0x1204"/>
      <component glyphName="acute.cap" x="449" y="0" flags="0x1004"/>
    </TTGlyph>
    <TTGlyph name="Zcaron" xMin="54" yMin="0" xMax="1235" yMax="1960">
      <component glyphName="caron.cap" x="251" y="0" flags="0x1004"/>
      <component glyphName="Z" x="0" y="0" flags="0x1004"/>
    </TTGlyph>
    <TTGlyph name="Zdotaccent" xMin="54" yMin="0" xMax="1235" yMax="1959">
      <component glyphName="dotaccent.cap" x="437" y="0" flags="0x1004"/>
      <component glyphName="Z" x="0" y="0" flags="0x1004"/>
    </TTGlyph>
    <TTGlyph name="a" xMin="102" yMin="-16" xMax="1070" yMax="1162">
      <contour>
        <pt x="771" y="96" on="1"/>
        <pt x="648" y="-16" on="0"/>
        <pt x="474" y="-16" on="1"/>
        <pt x="307" y="-16" on="0"/>
        <pt x="204" y="88" on="1"/>
        <pt x="102" y="192" on="0"/>
        <pt x="102" y="355" on="1"/>
        <pt x="102" y="550" on="0"/>
        <pt x="301" y="640" on="1"/>
        <pt x="449" y="706" on="0"/>
        <pt x="758" y="706" on="1"/>
        <pt x="758" y="778" on="1"/>
        <pt x="758" y="871" on="0"/>
        <pt x="718" y="897" on="1"/>
        <pt x="676" y="924" on="0"/>
        <pt x="532" y="924" on="1"/>
        <pt x="449" y="924" on="0"/>
        <pt x="254" y="859" on="0"/>
        <pt x="218" y="843" on="1"/>
        <pt x="149" y="1043" on="1"/>
        <pt x="267" y="1113" on="0"/>
        <pt x="470" y="1150" on="1"/>
        <pt x="539" y="1162" on="0"/>
        <pt x="726" y="1162" on="0"/>
        <pt x="900" y="1125" on="0"/>
        <pt x="957" y="1078" on="1"/>
        <pt x="1070" y="983" on="0"/>
        <pt x="1070" y="745" on="1"/>
        <pt x="1070" y="-16" on="1"/>
        <pt x="888" y="-16" on="1"/>
        <pt x="824" y="-16" on="0"/>
        <pt x="805" y="-4" on="1"/>
        <pt x="771" y="19" on="0"/>
        <pt x="771" y="88" on="1"/>
      </contour>
      <contour>
        <pt x="424" y="352" on="1"/>
        <pt x="424" y="315" on="0"/>
        <pt x="448" y="254" on="0"/>
        <pt x="469" y="234" on="1"/>
        <pt x="510" y="195" on="0"/>
        <pt x="581" y="195" on="1"/>
        <pt x="661" y="195" on="0"/>
        <pt x="732" y="237" on="1"/>
        <pt x="750" y="248" on="0"/>
        <pt x="758" y="258" on="1"/>
        <pt x="758" y="530" on="1"/>
        <pt x="593" y="530" on="0"/>
        <pt x="488" y="472" on="1"/>
        <pt x="424" y="438" on="0"/>
      </contour>
    </TTGlyph>
    <TTGlyph name="aacute" xMin="102" yMin="-16" xMax="1070" yMax="1808">
      <component glyphName="a" x="0" y="0" flags="0x1204"/>
      <component glyphName="acute" x="438" y="0" flags="0x1004"/>
    </TTGlyph>
    <TTGlyph name="abreve" xMin="102" yMin="-16" xMax="1070" yMax="1685">
      <component glyphName="a" x="0" y="0" flags="0x1204"/>
      <component glyphName="breve" x="219" y="0" flags="0x1004"/>
    </TTGlyph>
    <TTGlyph name="acircumflex" xMin="102" yMin="-16" xMax="1070" yMax="1699">
      <component glyphName="a" x="0" y="0" flags="0x1204"/>
      <component glyphName="circumflex" x="188" y="0" flags="0x1004"/>
    </TTGlyph>
    <TTGlyph name="acute" xMin="55" yMin="1252" xMax="610" yMax="1808">
      <contour>
        <pt x="55" y="1389" on="1"/>
        <pt x="252" y="1575" on="0"/>
        <pt x="396" y="1808" on="1"/>
        <pt x="610" y="1634" on="1"/>
        <pt x="555" y="1509" on="0"/>
        <pt x="332" y="1336" on="1"/>
        <pt x="251" y="1273" on="0"/>
        <pt x="204" y="1252" on="1"/>
      </contour>
    </TTGlyph>
    <TTGlyph name="acute.cap" xMin="85" yMin="1543" xMax="597" yMax="1980">
      <contour>
        <pt x="85" y="1668" on="1"/>
        <pt x="113" y="1692" on="0"/>
        <pt x="271" y="1850" on="0"/>
        <pt x="302" y="1882" on="1"/>
        <pt x="371" y="1957" on="0"/>
        <pt x="380" y="1980" on="1"/>
        <pt x="597" y="1849" on="1"/>
        <pt x="481" y="1701" on="0"/>
        <pt x="318" y="1589" on="1"/>
        <pt x="268" y="1555" on="0"/>
        <pt x="231" y="1543" on="1"/>
      </contour>
    </TTGlyph>
    <TTGlyph name="adieresis" xMin="102" yMin="-16" xMax="1070" yMax="1663">
      <component glyphName="a" x="0" y="0" flags="0x1204"/>
      <component glyphName="dieresis" x="139" y="0" flags="0x1004"/>
    </TTGlyph>
    <TTGlyph name="ae" xMin="102" yMin="-16" xMax="1753" yMax="1162">
      <contour>
        <pt x="878" y="159" on="1"/>
        <pt x="724" y="-16" on="0"/>
        <pt x="475" y="-16" on="1"/>
        <pt x="315" y="-16" on="0"/>
        <pt x="212" y="72" on="1"/>
        <pt x="102" y="165" on="0"/>
        <pt x="102" y="330" on="1"/>
        <pt x="102" y="489" on="0"/>
        <pt x="228" y="586" on="1"/>
        <pt x="300" y="642" on="0"/>
        <pt x="469" y="683" on="0"/>
        <pt x="528" y="691" on="1"/>
        <pt x="637" y="706" on="0"/>
        <pt x="751" y="706" on="1"/>
        <pt x="751" y="767" on="1"/>
        <pt x="751" y="854" on="0"/>
        <pt x="706" y="890" on="1"/>
        <pt x="663" y="924" on="0"/>
        <pt x="554" y="924" on="1"/>
        <pt x="433" y="924" on="0"/>
        <pt x="286" y="869" on="1"/>
        <pt x="248" y="855" on="0"/>
        <pt x="228" y="843" on="1"/>
        <pt x="159" y="1043" on="1"/>
        <pt x="282" y="1112" on="0"/>
        <pt x="462" y="1147" on="1"/>
        <pt x="540" y="1162" on="0"/>
        <pt x="644" y="1162" on="1"/>
        <pt x="875" y="1162" on="0"/>
        <pt x="960" y="1047" on="1"/>
        <pt x="1101" y="1156" on="0"/>
        <pt x="1308" y="1156" on="1"/>
        <pt x="1611" y="1156" on="0"/>
        <pt x="1714" y="919" on="1"/>
        <pt x="1752" y="833" on="0"/>
        <pt x="1754" y="565" on="0"/>
        <pt x="1743" y="495" on="1"/>
        <pt x="1068" y="495" on="1"/>
        <pt x="1087" y="216" on="0"/>
        <pt x="1373" y="216" on="1"/>
        <pt x="1485" y="216" on="0"/>
        <pt x="1643" y="263" on="0"/>
        <pt x="1666" y="275" on="1"/>
        <pt x="1717" y="98" on="1"/>
        <pt x="1623" y="21" on="0"/>
        <pt x="1424" y="-7" on="1"/>
        <pt x="1360" y="-16" on="0"/>
        <pt x="1294" y="-16" on="1"/>
        <pt x="1020" y="-16" on="0"/>
      </contour>
      <contour>
        <pt x="1465" y="712" on="1"/>
        <pt x="1465" y="934" on="0"/>
        <pt x="1291" y="934" on="1"/>
        <pt x="1198" y="934" on="0"/>
        <pt x="1148" y="877" on="1"/>
        <pt x="1089" y="811" on="0"/>
        <pt x="1074" y="668" on="1"/>
        <pt x="1464" y="668" on="1"/>
        <pt x="1465" y="691" on="0"/>
      </contour>
      <contour>
        <pt x="442" y="431" on="0"/>
        <pt x="422" y="383" on="0"/>
        <pt x="422" y="308" on="0"/>
        <pt x="447" y="251" on="0"/>
        <pt x="468" y="232" on="1"/>
        <pt x="510" y="195" on="0"/>
        <pt x="581" y="195" on="1"/>
        <pt x="679" y="195" on="0"/>
        <pt x="762" y="260" on="1"/>
        <pt x="786" y="279" on="0"/>
        <pt x="801" y="298" on="1"/>
        <pt x="761" y="400" on="0"/>
        <pt x="757" y="530" on="1"/>
        <pt x="617" y="530" on="0"/>
        <pt x="528" y="489" on="1"/>
        <pt x="474" y="465" on="0"/>
      </contour>
    </TTGlyph>
    <TTGlyph name="aeacute" xMin="102" yMin="-16" xMax="1753" yMax="1808">
      <component glyphName="acute" x="752" y="0" flags="0x1004"/>
      <component glyphName="ae" x="0" y="0" flags="0x1004"/>
    </TTGlyph>
    <TTGlyph name="afii61352" xMin="188" yMin="0" xMax="2616" yMax="1530">
      <contour>
        <pt x="1674" y="574" on="1"/>
        <pt x="1614" y="655" on="0"/>
        <pt x="1567" y="858" on="0"/>
        <pt x="1567" y="1108" on="0"/>
        <pt x="1648" y="1319" on="0"/>
        <pt x="1718" y="1388" on="1"/>
        <pt x="1862" y="1530" on="0"/>
        <pt x="2108" y="1530" on="1"/>
        <pt x="2365" y="1530" on="0"/>
        <pt x="2498" y="1362" on="1"/>
        <pt x="2615" y="1213" on="0"/>
        <pt x="2615" y="968" on="1"/>
        <pt x="2615" y="701" on="0"/>
        <pt x="2469" y="548" on="1"/>
        <pt x="2327" y="398" on="0"/>
        <pt x="2089" y="398" on="1"/>
        <pt x="1806" y="398" on="0"/>
      </contour>
      <contour>
        <pt x="188" y="1522" on="1"/>
        <pt x="484" y="1522" on="1"/>
        <pt x="988" y="648" on="1"/>
        <pt x="1087" y="416" on="1"/>
        <pt x="1083" y="658" on="1"/>
        <pt x="1083" y="1522" on="1"/>
        <pt x="1358" y="1522" on="1"/>
        <pt x="1358" y="0" on="1"/>
        <pt x="1062" y="0" on="1"/>
        <pt x="578" y="817" on="1"/>
        <pt x="459" y="1084" on="1"/>
        <pt x="465" y="788" on="1"/>
        <pt x="465" y="0" on="1"/>
        <pt x="188" y="0" on="1"/>
      </contour>
      <contour>
        <pt x="2098" y="1317" on="1"/>
        <pt x="1871" y="1317" on="0"/>
        <pt x="1871" y="978" on="1"/>
        <pt x="1871" y="711" on="0"/>
        <pt x="1996" y="634" on="1"/>
        <pt x="2039" y="608" on="0"/>
        <pt x="2096" y="608" on="1"/>
        <pt x="2207" y="608" on="0"/>
        <pt x="2311" y="780" on="0"/>
        <pt x="2311" y="961" on="1"/>
        <pt x="2311" y="1218" on="0"/>
        <pt x="2194" y="1292" on="1"/>
        <pt x="2155" y="1317" on="0"/>
        <pt x="2101" y="1317" on="1"/>
        <pt x="2100" y="1317" on="0"/>
      </contour>
      <contour>
        <pt x="1647" y="217" on="1"/>
        <pt x="2554" y="217" on="1"/>
        <pt x="2554" y="0" on="1"/>
        <pt x="1647" y="0" on="1"/>
      </contour>
    </TTGlyph>
    <TTGlyph name="agrave" xMin="102" yMin="-16" xMax="1070" yMax="1808">
      <component glyphName="a" x="0" y="0" flags="0x1204"/>
      <component glyphName="grave" x="136" y="0" flags="0x1004"/>
    </TTGlyph>
    <TTGlyph name="amacron" xMin="102" yMin="-16" xMax="1070" yMax="1626">
      <component glyphName="a" x="0" y="0" flags="0x1204"/>
      <component glyphName="macron" x="276" y="0" flags="0x1004"/>
    </TTGlyph>
    <TTGlyph name="ampersand" xMin="88" yMin="-16" xMax="1466" yMax="1546">
      <contour>
        <pt x="1044" y="56" on="1"/>
        <pt x="873" y="-16" on="0"/>
        <pt x="735" y="-16" on="1"/>
        <pt x="412" y="-16" on="0"/>
        <pt x="88" y="199" on="0"/>
        <pt x="88" y="399" on="1"/>
        <pt x="88" y="643" on="0"/>
        <pt x="398" y="789" on="1"/>
        <pt x="295" y="930" on="0"/>
        <pt x="268" y="1050" on="1"/>
        <pt x="256" y="1104" on="0"/>
        <pt x="256" y="1257" on="0"/>
        <pt x="319" y="1398" on="0"/>
        <pt x="377" y="1446" on="1"/>
        <pt x="496" y="1546" on="0"/>
        <pt x="699" y="1546" on="1"/>
        <pt x="885" y="1546" on="0"/>
        <pt x="1002" y="1438" on="1"/>
        <pt x="1113" y="1337" on="0"/>
        <pt x="1113" y="1182" on="1"/>
        <pt x="1113" y="932" on="0"/>
        <pt x="924" y="794" on="1"/>
        <pt x="865" y="751" on="0"/>
        <pt x="792" y="714" on="1"/>
        <pt x="944" y="521" on="0"/>
        <pt x="1077" y="377" on="1"/>
        <pt x="1150" y="458" on="0"/>
        <pt x="1150" y="577" on="1"/>
        <pt x="1150" y="647" on="0"/>
        <pt x="1130" y="736" on="0"/>
        <pt x="1126" y="757" on="1"/>
        <pt x="1384" y="757" on="1"/>
        <pt x="1404" y="669" on="0"/>
        <pt x="1404" y="576" on="1"/>
        <pt x="1404" y="350" on="0"/>
        <pt x="1267" y="213" on="1"/>
        <pt x="1343" y="170" on="0"/>
        <pt x="1466" y="166" on="1"/>
        <pt x="1466" y="-1" on="1"/>
        <pt x="1406" y="-16" on="0"/>
        <pt x="1323" y="-16" on="1"/>
        <pt x="1160" y="-16" on="0"/>
      </contour>
      <contour>
        <pt x="662" y="891" on="1"/>
        <pt x="855" y="990" on="0"/>
        <pt x="855" y="1179" on="1"/>
        <pt x="855" y="1237" on="0"/>
        <pt x="828" y="1272" on="1"/>
        <pt x="777" y="1337" on="0"/>
        <pt x="625" y="1337" on="0"/>
        <pt x="535" y="1249" on="0"/>
        <pt x="535" y="1132" on="0"/>
        <pt x="550" y="1067" on="0"/>
        <pt x="566" y="1036" on="1"/>
        <pt x="587" y="994" on="0"/>
      </contour>
      <contour>
        <pt x="528" y="609" on="1"/>
        <pt x="383" y="531" on="0"/>
        <pt x="383" y="416" on="1"/>
        <pt x="383" y="217" on="0"/>
        <pt x="688" y="217" on="1"/>
        <pt x="776" y="217" on="0"/>
        <pt x="845" y="232" on="1"/>
        <pt x="710" y="378" on="0"/>
      </contour>
    </TTGlyph>
    <TTGlyph name="aogonek" xMin="102" yMin="-516" xMax="1083" yMax="1162">
      <contour>
        <pt x="771" y="96" on="1"/>
        <pt x="648" y="-16" on="0"/>
        <pt x="474" y="-16" on="1"/>
        <pt x="307" y="-16" on="0"/>
        <pt x="204" y="88" on="1"/>
        <pt x="102" y="192" on="0"/>
        <pt x="102" y="355" on="1"/>
        <pt x="102" y="550" on="0"/>
        <pt x="301" y="640" on="1"/>
        <pt x="449" y="706" on="0"/>
        <pt x="758" y="706" on="1"/>
        <pt x="758" y="778" on="1"/>
        <pt x="758" y="871" on="0"/>
        <pt x="718" y="897" on="1"/>
        <pt x="676" y="924" on="0"/>
        <pt x="532" y="924" on="1"/>
        <pt x="449" y="924" on="0"/>
        <pt x="254" y="859" on="0"/>
        <pt x="218" y="843" on="1"/>
        <pt x="149" y="1043" on="1"/>
        <pt x="267" y="1113" on="0"/>
        <pt x="470" y="1150" on="1"/>
        <pt x="539" y="1162" on="0"/>
        <pt x="726" y="1162" on="0"/>
        <pt x="900" y="1125" on="0"/>
        <pt x="957" y="1078" on="1"/>
        <pt x="1070" y="983" on="0"/>
        <pt x="1070" y="745" on="1"/>
        <pt x="1070" y="-16" on="1"/>
        <pt x="991" y="-16" on="1"/>
        <pt x="912" y="-69" on="0"/>
        <pt x="885" y="-102" on="1"/>
        <pt x="833" y="-163" on="0"/>
        <pt x="839" y="-272" on="0"/>
        <pt x="908" y="-311" on="0"/>
        <pt x="1012" y="-311" on="0"/>
        <pt x="1083" y="-291" on="1"/>
        <pt x="1083" y="-448" on="1"/>
        <pt x="989" y="-516" on="0"/>
        <pt x="853" y="-516" on="1"/>
        <pt x="753" y="-516" on="0"/>
        <pt x="678" y="-464" on="1"/>
        <pt x="592" y="-403" on="0"/>
        <pt x="592" y="-300" on="1"/>
        <pt x="592" y="-121" on="0"/>
        <pt x="803" y="-2" on="1"/>
        <pt x="771" y="16" on="0"/>
        <pt x="771" y="88" on="1"/>
      </contour>
      <contour>
        <pt x="424" y="352" on="1"/>
        <pt x="424" y="315" on="0"/>
        <pt x="448" y="254" on="0"/>
        <pt x="469" y="234" on="1"/>
        <pt x="510" y="195" on="0"/>
        <pt x="581" y="195" on="1"/>
        <pt x="661" y="195" on="0"/>
        <pt x="732" y="237" on="1"/>
        <pt x="750" y="248" on="0"/>
        <pt x="758" y="258" on="1"/>
        <pt x="758" y="530" on="1"/>
        <pt x="593" y="530" on="0"/>
        <pt x="488" y="472" on="1"/>
        <pt x="424" y="438" on="0"/>
      </contour>
    </TTGlyph>
    <TTGlyph name="approxequal" xMin="207" yMin="222" xMax="1242" yMax="1115">
      <component glyphName="asciitilde" x="3" y="-427" flags="0x1204"/>
      <component glyphName="asciitilde" x="-1" y="65" flags="0x1004"/>
    </TTGlyph>
    <TTGlyph name="aring" xMin="102" yMin="-16" xMax="1070" yMax="1888">
      <component glyphName="a" x="0" y="0" flags="0x1204"/>
      <component glyphName="ring" x="242" y="0" flags="0x1004"/>
    </TTGlyph>
    <TTGlyph name="asciicircum" xMin="153" yMin="490" xMax="1220" yMax="1531">
      <contour>
        <pt x="573" y="1531" on="1"/>
        <pt x="800" y="1531" on="1"/>
        <pt x="1220" y="490" on="1"/>
        <pt x="939" y="490" on="1"/>
        <pt x="686" y="1163" on="1"/>
        <pt x="434" y="490" on="1"/>
        <pt x="153" y="490" on="1"/>
      </contour>
    </TTGlyph>
    <TTGlyph name="asciitilde" xMin="208" yMin="649" xMax="1239" yMax="1050">
      <contour>
        <pt x="534" y="808" on="1"/>
        <pt x="432" y="808" on="0"/>
        <pt x="338" y="702" on="1"/>
        <pt x="208" y="830" on="1"/>
        <pt x="229" y="900" on="0"/>
        <pt x="318" y="970" on="1"/>
        <pt x="421" y="1050" on="0"/>
        <pt x="533" y="1050" on="1"/>
        <pt x="653" y="1050" on="0"/>
        <pt x="750" y="972" on="1"/>
        <pt x="811" y="923" on="0"/>
        <pt x="885" y="893" on="0"/>
        <pt x="922" y="893" on="1"/>
        <pt x="1030" y="893" on="0"/>
        <pt x="1123" y="998" on="1"/>
        <pt x="1239" y="860" on="1"/>
        <pt x="1214" y="781" on="0"/>
        <pt x="1126" y="720" on="1"/>
        <pt x="1026" y="649" on="0"/>
        <pt x="908" y="649" on="1"/>
        <pt x="794" y="649" on="0"/>
        <pt x="702" y="728" on="1"/>
        <pt x="646" y="778" on="0"/>
        <pt x="573" y="808" on="0"/>
      </contour>
    </TTGlyph>
    <TTGlyph name="asterisk" xMin="130" yMin="602" xMax="1218" yMax="1736">
      <contour>
        <pt x="136" y="983" on="1"/>
        <pt x="388" y="1118" on="1"/>
        <pt x="569" y="1171" on="1"/>
        <pt x="552" y="1178" on="0"/>
        <pt x="501" y="1189" on="1"/>
        <pt x="405" y="1212" on="0"/>
        <pt x="387" y="1219" on="1"/>
        <pt x="130" y="1347" on="1"/>
        <pt x="240" y="1555" on="1"/>
        <pt x="483" y="1391" on="1"/>
        <pt x="620" y="1261" on="1"/>
        <pt x="619" y="1269" on="0"/>
        <pt x="605" y="1319" on="0"/>
        <pt x="597" y="1348" on="1"/>
        <pt x="575" y="1426" on="0"/>
        <pt x="574" y="1443" on="1"/>
        <pt x="548" y="1736" on="1"/>
        <pt x="784" y="1736" on="1"/>
        <pt x="767" y="1448" on="1"/>
        <pt x="724" y="1264" on="1"/>
        <pt x="734" y="1272" on="0"/>
        <pt x="771" y="1311" on="1"/>
        <pt x="836" y="1380" on="0"/>
        <pt x="857" y="1398" on="1"/>
        <pt x="1099" y="1564" on="1"/>
        <pt x="1211" y="1358" on="1"/>
        <pt x="958" y="1227" on="1"/>
        <pt x="777" y="1172" on="1"/>
        <pt x="960" y="1123" on="1"/>
        <pt x="1218" y="1000" on="1"/>
        <pt x="1099" y="786" on="1"/>
        <pt x="866" y="948" on="1"/>
        <pt x="725" y="1078" on="1"/>
        <pt x="726" y="1070" on="0"/>
        <pt x="740" y="1020" on="0"/>
        <pt x="748" y="990" on="1"/>
        <pt x="769" y="912" on="0"/>
        <pt x="772" y="896" on="1"/>
        <pt x="799" y="603" on="1"/>
        <pt x="563" y="602" on="1"/>
        <pt x="580" y="895" on="1"/>
        <pt x="623" y="1080" on="1"/>
        <pt x="488" y="942" on="1"/>
        <pt x="253" y="776" on="1"/>
      </contour>
    </TTGlyph>
    <TTGlyph name="at" xMin="171" yMin="-468" xMax="2056" yMax="1543">
      <contour>
        <pt x="1565" y="-342" on="1"/>
        <pt x="1357" y="-468" on="0"/>
        <pt x="1053" y="-468" on="1"/>
        <pt x="671" y="-468" on="0"/>
        <pt x="431" y="-249" on="1"/>
        <pt x="266" y="-99" on="0"/>
        <pt x="203" y="155" on="1"/>
        <pt x="171" y="283" on="0"/>
        <pt x="171" y="606" on="0"/>
        <pt x="249" y="899" on="0"/>
        <pt x="390" y="1144" on="0"/>
        <pt x="588" y="1337" on="0"/>
        <pt x="708" y="1404" on="1"/>
        <pt x="956" y="1543" on="0"/>
        <pt x="1254" y="1543" on="1"/>
        <pt x="1613" y="1543" on="0"/>
        <pt x="1829" y="1355" on="1"/>
        <pt x="2056" y="1158" on="0"/>
        <pt x="2056" y="805" on="1"/>
        <pt x="2056" y="422" on="0"/>
        <pt x="1867" y="198" on="1"/>
        <pt x="1695" y="-5" on="0"/>
        <pt x="1457" y="-5" on="1"/>
        <pt x="1266" y="-5" on="0"/>
        <pt x="1266" y="216" on="1"/>
        <pt x="1266" y="234" on="0"/>
        <pt x="1267" y="257" on="1"/>
        <pt x="1110" y="-5" on="0"/>
        <pt x="904" y="-5" on="1"/>
        <pt x="792" y="-5" on="0"/>
        <pt x="708" y="105" on="1"/>
        <pt x="617" y="224" on="0"/>
        <pt x="617" y="424" on="1"/>
        <pt x="617" y="669" on="0"/>
        <pt x="762" y="863" on="1"/>
        <pt x="862" y="996" on="0"/>
        <pt x="1023" y="1052" on="1"/>
        <pt x="1106" y="1080" on="0"/>
        <pt x="1361" y="1080" on="0"/>
        <pt x="1441" y="1025" on="1"/>
        <pt x="1626" y="1056" on="1"/>
        <pt x="1576" y="849" on="0"/>
        <pt x="1531" y="605" on="1"/>
        <pt x="1481" y="332" on="0"/>
        <pt x="1481" y="278" on="1"/>
        <pt x="1481" y="196" on="0"/>
        <pt x="1529" y="196" on="1"/>
        <pt x="1584" y="196" on="0"/>
        <pt x="1697" y="278" on="0"/>
        <pt x="1743" y="354" on="1"/>
        <pt x="1847" y="526" on="0"/>
        <pt x="1847" y="775" on="1"/>
        <pt x="1847" y="1199" on="0"/>
        <pt x="1533" y="1319" on="1"/>
        <pt x="1410" y="1366" on="0"/>
        <pt x="1123" y="1366" on="0"/>
        <pt x="909" y="1309" on="0"/>
        <pt x="719" y="1200" on="0"/>
        <pt x="560" y="1041" on="0"/>
        <pt x="503" y="939" on="1"/>
        <pt x="382" y="722" on="0"/>
        <pt x="382" y="448" on="1"/>
        <pt x="382" y="-56" on="0"/>
        <pt x="746" y="-224" on="1"/>
        <pt x="892" y="-291" on="0"/>
        <pt x="1073" y="-291" on="1"/>
        <pt x="1308" y="-291" on="0"/>
        <pt x="1454" y="-218" on="1"/>
        <pt x="1492" y="-199" on="0"/>
        <pt x="1522" y="-183" on="1"/>
      </contour>
      <contour>
        <pt x="1335" y="829" on="1"/>
        <pt x="1296" y="883" on="0"/>
        <pt x="1177" y="883" on="1"/>
        <pt x="1044" y="883" on="0"/>
        <pt x="950" y="748" on="1"/>
        <pt x="860" y="619" on="0"/>
        <pt x="860" y="450" on="1"/>
        <pt x="860" y="222" on="0"/>
        <pt x="974" y="222" on="1"/>
        <pt x="1039" y="222" on="0"/>
        <pt x="1122" y="330" on="1"/>
        <pt x="1240" y="481" on="0"/>
        <pt x="1307" y="706" on="1"/>
        <pt x="1327" y="773" on="0"/>
      </contour>
    </TTGlyph>
    <TTGlyph name="atilde" xMin="102" yMin="-16" xMax="1070" yMax="1699">
      <component glyphName="a" x="0" y="0" flags="0x1204"/>
      <component glyphName="tilde" x="148" y="0" flags="0x1004"/>
    </TTGlyph>
    <TTGlyph name="b" xMin="168" yMin="-23" xMax="1245" yMax="1661">
      <contour>
        <pt x="472" y="1036" on="1"/>
        <pt x="598" y="1156" on="0"/>
        <pt x="791" y="1156" on="1"/>
        <pt x="985" y="1156" on="0"/>
        <pt x="1108" y="1022" on="1"/>
        <pt x="1245" y="875" on="0"/>
        <pt x="1245" y="612" on="1"/>
        <pt x="1245" y="329" on="0"/>
        <pt x="1080" y="152" on="1"/>
        <pt x="915" y="-23" on="0"/>
        <pt x="649" y="-23" on="1"/>
        <pt x="428" y="-23" on="0"/>
        <pt x="228" y="40" on="1"/>
        <pt x="181" y="55" on="0"/>
        <pt x="168" y="64" on="1"/>
        <pt x="168" y="1661" on="1"/>
        <pt x="480" y="1661" on="1"/>
        <pt x="480" y="1224" on="1"/>
      </contour>
      <contour>
        <pt x="695" y="923" on="1"/>
        <pt x="566" y="923" on="0"/>
        <pt x="480" y="852" on="1"/>
        <pt x="480" y="232" on="1"/>
        <pt x="517" y="193" on="0"/>
        <pt x="656" y="193" on="1"/>
        <pt x="771" y="193" on="0"/>
        <pt x="842" y="296" on="1"/>
        <pt x="918" y="405" on="0"/>
        <pt x="918" y="598" on="1"/>
        <pt x="918" y="857" on="0"/>
        <pt x="788" y="907" on="1"/>
        <pt x="746" y="923" on="0"/>
      </contour>
    </TTGlyph>
    <TTGlyph name="backslash" xMin="13" yMin="-363" xMax="830" yMax="1599">
      <component glyphName="slash" x="854" y="0" scalex="-0.999938964844" scaley="1.0" flags="0x1004"/>
    </TTGlyph>
    <TTGlyph name="bar" xMin="305" yMin="-187" xMax="560" yMax="1780">
      <contour>
        <pt x="305" y="1780" on="1"/>
        <pt x="560" y="1780" on="1"/>
        <pt x="560" y="-187" on="1"/>
        <pt x="305" y="-187" on="1"/>
      </contour>
    </TTGlyph>
    <TTGlyph name="braceleft" xMin="68" yMin="-211" xMax="856" yMax="1757">
      <contour>
        <pt x="856" y="-176" on="1"/>
        <pt x="730" y="-211" on="0"/>
        <pt x="544" y="-211" on="1"/>
        <pt x="427" y="-211" on="0"/>
        <pt x="376" y="-150" on="1"/>
        <pt x="324" y="-87" on="0"/>
        <pt x="324" y="60" on="1"/>
        <pt x="324" y="547" on="1"/>
        <pt x="324" y="596" on="0"/>
        <pt x="234" y="638" on="1"/>
        <pt x="156" y="673" on="0"/>
        <pt x="68" y="682" on="1"/>
        <pt x="68" y="873" on="1"/>
        <pt x="227" y="890" on="0"/>
        <pt x="298" y="950" on="1"/>
        <pt x="324" y="972" on="0"/>
        <pt x="324" y="1000" on="1"/>
        <pt x="324" y="1486" on="1"/>
        <pt x="324" y="1700" on="0"/>
        <pt x="444" y="1742" on="1"/>
        <pt x="486" y="1757" on="0"/>
        <pt x="661" y="1757" on="0"/>
        <pt x="856" y="1733" on="1"/>
        <pt x="856" y="1562" on="1"/>
        <pt x="594" y="1562" on="1"/>
        <pt x="594" y="991" on="1"/>
        <pt x="594" y="906" on="0"/>
        <pt x="516" y="854" on="1"/>
        <pt x="455" y="813" on="0"/>
        <pt x="349" y="776" on="1"/>
        <pt x="548" y="707" on="0"/>
        <pt x="584" y="618" on="1"/>
        <pt x="594" y="593" on="0"/>
        <pt x="594" y="562" on="1"/>
        <pt x="594" y="-20" on="1"/>
        <pt x="856" y="-20" on="1"/>
      </contour>
    </TTGlyph>
    <TTGlyph name="braceright" xMin="85" yMin="-211" xMax="874" yMax="1757">
      <component glyphName="braceleft" x="942" y="0" scalex="-0.999938964844" scaley="1.0" flags="0x1004"/>
    </TTGlyph>
    <TTGlyph name="bracketleft" xMin="145" yMin="-191" xMax="696" yMax="1737">
      <contour>
        <pt x="696" y="-167" on="1"/>
        <pt x="466" y="-191" on="0"/>
        <pt x="277" y="-191" on="0"/>
        <pt x="203" y="-168" on="0"/>
        <pt x="182" y="-140" on="1"/>
        <pt x="145" y="-89" on="0"/>
        <pt x="145" y="60" on="1"/>
        <pt x="145" y="1486" on="1"/>
        <pt x="145" y="1636" on="0"/>
        <pt x="182" y="1686" on="1"/>
        <pt x="221" y="1737" on="0"/>
        <pt x="335" y="1737" on="1"/>
        <pt x="472" y="1737" on="0"/>
        <pt x="648" y="1717" on="0"/>
        <pt x="696" y="1713" on="1"/>
        <pt x="696" y="1550" on="1"/>
        <pt x="428" y="1550" on="1"/>
        <pt x="428" y="-20" on="1"/>
        <pt x="696" y="-22" on="1"/>
      </contour>
    </TTGlyph>
    <TTGlyph name="bracketright" xMin="92" yMin="-191" xMax="644" yMax="1737">
      <component glyphName="bracketleft" x="789" y="0" scalex="-0.999938964844" scaley="1.0" flags="0x1004"/>
    </TTGlyph>
    <TTGlyph name="breve" xMin="43" yMin="1298" xMax="773" yMax="1685">
      <contour>
        <pt x="629" y="1360" on="0"/>
        <pt x="492" y="1298" on="0"/>
        <pt x="319" y="1298" on="0"/>
        <pt x="250" y="1329" on="1"/>
        <pt x="113" y="1391" on="0"/>
        <pt x="64" y="1536" on="1"/>
        <pt x="44" y="1598" on="0"/>
        <pt x="44" y="1676" on="0"/>
        <pt x="44" y="1685" on="1"/>
        <pt x="240" y="1685" on="1"/>
        <pt x="246" y="1579" on="0"/>
        <pt x="317" y="1536" on="1"/>
        <pt x="350" y="1516" on="0"/>
        <pt x="466" y="1516" on="0"/>
        <pt x="532" y="1556" on="0"/>
        <pt x="550" y="1584" on="1"/>
        <pt x="571" y="1619" on="0"/>
        <pt x="579" y="1685" on="1"/>
        <pt x="772" y="1685" on="1"/>
        <pt x="772" y="1677" on="0"/>
        <pt x="772" y="1598" on="0"/>
        <pt x="725" y="1465" on="0"/>
      </contour>
    </TTGlyph>
    <TTGlyph name="breve.cap" xMin="43" yMin="1614" xMax="772" yMax="1960">
      <contour>
        <pt x="235" y="1960" on="1"/>
        <pt x="243" y="1817" on="0"/>
        <pt x="408" y="1817" on="1"/>
        <pt x="509" y="1817" on="0"/>
        <pt x="552" y="1870" on="1"/>
        <pt x="578" y="1903" on="0"/>
        <pt x="584" y="1960" on="1"/>
        <pt x="771" y="1960" on="1"/>
        <pt x="771" y="1951" on="0"/>
        <pt x="771" y="1877" on="0"/>
        <pt x="728" y="1757" on="0"/>
        <pt x="681" y="1711" on="1"/>
        <pt x="582" y="1614" on="0"/>
        <pt x="408" y="1614" on="1"/>
        <pt x="227" y="1614" on="0"/>
        <pt x="130" y="1711" on="1"/>
        <pt x="44" y="1797" on="0"/>
        <pt x="44" y="1942" on="1"/>
        <pt x="44" y="1951" on="0"/>
        <pt x="44" y="1960" on="1"/>
      </contour>
    </TTGlyph>
    <TTGlyph name="brokenbar" xMin="305" yMin="-186" xMax="560" yMax="1780">
      <contour>
        <pt x="305" y="1780" on="1"/>
        <pt x="560" y="1780" on="1"/>
        <pt x="560" y="964" on="1"/>
        <pt x="305" y="964" on="1"/>
      </contour>
      <contour>
        <pt x="305" y="620" on="1"/>
        <pt x="560" y="620" on="1"/>
        <pt x="560" y="-186" on="1"/>
        <pt x="305" y="-186" on="1"/>
      </contour>
    </TTGlyph>
    <TTGlyph name="bullet" xMin="186" yMin="467" xMax="719" yMax="995">
      <contour>
        <pt x="442" y="467" on="1"/>
        <pt x="387" y="467" on="0"/>
        <pt x="340" y="487" on="1"/>
        <pt x="243" y="528" on="0"/>
        <pt x="205" y="624" on="1"/>
        <pt x="187" y="669" on="0"/>
        <pt x="187" y="722" on="0"/>
        <pt x="188" y="780" on="0"/>
        <pt x="234" y="878" on="0"/>
        <pt x="272" y="915" on="1"/>
        <pt x="353" y="995" on="0"/>
        <pt x="464" y="995" on="1"/>
        <pt x="575" y="995" on="0"/>
        <pt x="648" y="922" on="1"/>
        <pt x="718" y="852" on="0"/>
        <pt x="718" y="744" on="1"/>
        <pt x="718" y="630" on="0"/>
        <pt x="634" y="548" on="1"/>
        <pt x="552" y="467" on="0"/>
      </contour>
    </TTGlyph>
    <TTGlyph name="c" xMin="95" yMin="-16" xMax="977" yMax="1156">
      <contour>
        <pt x="932" y="282" on="1"/>
        <pt x="977" y="97" on="1"/>
        <pt x="898" y="18" on="0"/>
        <pt x="732" y="-8" on="1"/>
        <pt x="681" y="-16" on="0"/>
        <pt x="627" y="-16" on="1"/>
        <pt x="370" y="-16" on="0"/>
        <pt x="228" y="148" on="1"/>
        <pt x="95" y="300" on="0"/>
        <pt x="95" y="556" on="1"/>
        <pt x="95" y="822" on="0"/>
        <pt x="234" y="982" on="1"/>
        <pt x="386" y="1156" on="0"/>
        <pt x="664" y="1156" on="1"/>
        <pt x="818" y="1156" on="0"/>
        <pt x="918" y="1118" on="1"/>
        <pt x="946" y="1108" on="0"/>
        <pt x="960" y="1098" on="1"/>
        <pt x="921" y="857" on="1"/>
        <pt x="839" y="901" on="0"/>
        <pt x="696" y="901" on="1"/>
        <pt x="510" y="901" on="0"/>
        <pt x="434" y="740" on="1"/>
        <pt x="405" y="676" on="0"/>
        <pt x="405" y="494" on="0"/>
        <pt x="443" y="367" on="0"/>
        <pt x="481" y="322" on="1"/>
        <pt x="556" y="235" on="0"/>
        <pt x="843" y="235" on="0"/>
      </contour>
    </TTGlyph>
    <TTGlyph name="cacute" xMin="95" yMin="-16" xMax="1059" yMax="1808">
      <component glyphName="acute" x="449" y="0" flags="0x1004"/>
      <component glyphName="c" x="0" y="0" flags="0x1004"/>
    </TTGlyph>
    <TTGlyph name="caron" xMin="43" yMin="1237" xMax="835" yMax="1699">
      <contour>
        <pt x="43" y="1610" on="1"/>
        <pt x="199" y="1699" on="1"/>
        <pt x="441" y="1453" on="1"/>
        <pt x="674" y="1699" on="1"/>
        <pt x="835" y="1609" on="1"/>
        <pt x="552" y="1237" on="1"/>
        <pt x="329" y="1237" on="1"/>
      </contour>
    </TTGlyph>
    <TTGlyph name="caron.cap" xMin="49" yMin="1576" xMax="803" yMax="1960">
      <contour>
        <pt x="49" y="1868" on="1"/>
        <pt x="206" y="1960" on="1"/>
        <pt x="426" y="1779" on="1"/>
        <pt x="649" y="1960" on="1"/>
        <pt x="803" y="1869" on="1"/>
        <pt x="536" y="1576" on="1"/>
        <pt x="317" y="1576" on="1"/>
      </contour>
    </TTGlyph>
    <TTGlyph name="caronvertical" xMin="65" yMin="1010" xMax="363" yMax="1708">
      <contour>
        <pt x="102" y="1061" on="1"/>
        <pt x="124" y="1162" on="0"/>
        <pt x="124" y="1391" on="0"/>
        <pt x="115" y="1458" on="0"/>
        <pt x="106" y="1487" on="1"/>
        <pt x="88" y="1551" on="0"/>
        <pt x="65" y="1574" on="1"/>
        <pt x="77" y="1638" on="1"/>
        <pt x="292" y="1708" on="1"/>
        <pt x="363" y="1641" on="0"/>
        <pt x="363" y="1440" on="1"/>
        <pt x="363" y="1248" on="0"/>
        <pt x="284" y="1078" on="1"/>
        <pt x="262" y="1032" on="0"/>
        <pt x="243" y="1010" on="1"/>
        <pt x="110" y="1038" on="1"/>
      </contour>
    </TTGlyph>
    <TTGlyph name="ccaron" xMin="95" yMin="-16" xMax="1030" yMax="1713">
      <component glyphName="caron" x="195" y="14" flags="0x1004"/>
      <component glyphName="c" x="0" y="0" flags="0x1004"/>
    </TTGlyph>
    <TTGlyph name="ccedilla" xMin="95" yMin="-464" xMax="977" yMax="1156">
      <contour>
        <pt x="334" y="-271" on="1"/>
        <pt x="357" y="-285" on="0"/>
        <pt x="460" y="-285" on="0"/>
        <pt x="529" y="-212" on="0"/>
        <pt x="532" y="-135" on="1"/>
        <pt x="533" y="-116" on="0"/>
        <pt x="533" y="-96" on="1"/>
        <pt x="533" y="-47" on="0"/>
        <pt x="519" y="-8" on="1"/>
        <pt x="312" y="25" on="0"/>
        <pt x="201" y="182" on="1"/>
        <pt x="95" y="330" on="0"/>
        <pt x="95" y="556" on="1"/>
        <pt x="95" y="822" on="0"/>
        <pt x="234" y="982" on="1"/>
        <pt x="386" y="1156" on="0"/>
        <pt x="664" y="1156" on="1"/>
        <pt x="818" y="1156" on="0"/>
        <pt x="918" y="1118" on="1"/>
        <pt x="946" y="1108" on="0"/>
        <pt x="960" y="1098" on="1"/>
        <pt x="921" y="857" on="1"/>
        <pt x="839" y="901" on="0"/>
        <pt x="696" y="901" on="1"/>
        <pt x="510" y="901" on="0"/>
        <pt x="434" y="740" on="1"/>
        <pt x="405" y="676" on="0"/>
        <pt x="405" y="494" on="0"/>
        <pt x="443" y="367" on="0"/>
        <pt x="481" y="322" on="1"/>
        <pt x="556" y="235" on="0"/>
        <pt x="843" y="235" on="0"/>
        <pt x="932" y="282" on="1"/>
        <pt x="977" y="97" on="1"/>
        <pt x="889" y="11" on="0"/>
        <pt x="715" y="-10" on="1"/>
        <pt x="749" y="-81" on="0"/>
        <pt x="749" y="-198" on="1"/>
        <pt x="749" y="-401" on="0"/>
        <pt x="590" y="-450" on="1"/>
        <pt x="544" y="-464" on="0"/>
        <pt x="472" y="-464" on="0"/>
        <pt x="418" y="-460" on="0"/>
        <pt x="392" y="-456" on="1"/>
        <pt x="330" y="-446" on="0"/>
        <pt x="314" y="-436" on="1"/>
      </contour>
    </TTGlyph>
    <TTGlyph name="ccircumflex" xMin="95" yMin="-16" xMax="1034" yMax="1699">
      <component glyphName="circumflex" x="199" y="0" flags="0x1004"/>
      <component glyphName="c" x="0" y="0" flags="0x1004"/>
    </TTGlyph>
    <TTGlyph name="cdotaccent" xMin="95" yMin="-16" xMax="977" yMax="1665">
      <component glyphName="c" x="0" y="0" flags="0x1204"/>
      <component glyphName="dotaccent" x="388" y="0" flags="0x1004"/>
    </TTGlyph>
    <TTGlyph name="cedilla" xMin="33" yMin="-464" xMax="469" yMax="34">
      <contour>
        <pt x="252" y="-100" on="1"/>
        <pt x="252" y="-26" on="0"/>
        <pt x="220" y="30" on="1"/>
        <pt x="357" y="34" on="1"/>
        <pt x="406" y="30" on="1"/>
        <pt x="468" y="-29" on="0"/>
        <pt x="468" y="-202" on="1"/>
        <pt x="468" y="-338" on="0"/>
        <pt x="388" y="-406" on="1"/>
        <pt x="321" y="-464" on="0"/>
        <pt x="213" y="-464" on="1"/>
        <pt x="137" y="-464" on="0"/>
        <pt x="42" y="-442" on="0"/>
        <pt x="33" y="-436" on="1"/>
        <pt x="53" y="-271" on="1"/>
        <pt x="76" y="-285" on="0"/>
        <pt x="179" y="-285" on="0"/>
        <pt x="248" y="-212" on="0"/>
        <pt x="251" y="-135" on="1"/>
        <pt x="252" y="-116" on="0"/>
      </contour>
    </TTGlyph>
    <TTGlyph name="cent" xMin="144" yMin="-216" xMax="1026" yMax="1377">
      <contour>
        <pt x="981" y="282" on="1"/>
        <pt x="1026" y="97" on="1"/>
        <pt x="931" y="4" on="0"/>
        <pt x="739" y="-13" on="1"/>
        <pt x="736" y="-216" on="1"/>
        <pt x="564" y="-216" on="1"/>
        <pt x="568" y="-8" on="1"/>
        <pt x="361" y="25" on="0"/>
        <pt x="250" y="182" on="1"/>
        <pt x="144" y="330" on="0"/>
        <pt x="144" y="556" on="1"/>
        <pt x="144" y="921" on="0"/>
        <pt x="396" y="1076" on="1"/>
        <pt x="481" y="1129" on="0"/>
        <pt x="597" y="1147" on="1"/>
        <pt x="603" y="1377" on="1"/>
        <pt x="774" y="1377" on="1"/>
        <pt x="769" y="1154" on="1"/>
        <pt x="945" y="1144" on="0"/>
        <pt x="1009" y="1098" on="1"/>
        <pt x="970" y="857" on="1"/>
        <pt x="888" y="901" on="0"/>
        <pt x="745" y="901" on="1"/>
        <pt x="559" y="901" on="0"/>
        <pt x="484" y="740" on="1"/>
        <pt x="454" y="676" on="0"/>
        <pt x="454" y="494" on="0"/>
        <pt x="492" y="367" on="0"/>
        <pt x="530" y="322" on="1"/>
        <pt x="605" y="235" on="0"/>
        <pt x="892" y="235" on="0"/>
      </contour>
    </TTGlyph>
    <TTGlyph name="circumflex" xMin="43" yMin="1237" xMax="835" yMax="1699">
      <contour>
        <pt x="43" y="1326" on="1"/>
        <pt x="329" y="1699" on="1"/>
        <pt x="552" y="1699" on="1"/>
        <pt x="835" y="1327" on="1"/>
        <pt x="674" y="1237" on="1"/>
        <pt x="441" y="1483" on="1"/>
        <pt x="199" y="1237" on="1"/>
      </contour>
    </TTGlyph>
    <TTGlyph name="circumflex.cap" xMin="49" yMin="1560" xMax="819" yMax="1960">
      <contour>
        <pt x="49" y="1650" on="1"/>
        <pt x="323" y="1960" on="1"/>
        <pt x="543" y="1960" on="1"/>
        <pt x="819" y="1652" on="1"/>
        <pt x="654" y="1560" on="1"/>
        <pt x="433" y="1759" on="1"/>
        <pt x="211" y="1560" on="1"/>
      </contour>
    </TTGlyph>
    <TTGlyph name="colon" xMin="126" yMin="-22" xMax="516" yMax="1142">
      <component glyphName="period" x="0" y="0" flags="0x1204"/>
      <component glyphName="period" x="0" y="759" flags="0x1004"/>
    </TTGlyph>
    <TTGlyph name="comma" xMin="163" yMin="-506" xMax="569" yMax="296">
      <contour>
        <pt x="163" y="160" on="1"/>
        <pt x="385" y="296" on="1"/>
        <pt x="472" y="263" on="0"/>
        <pt x="524" y="163" on="1"/>
        <pt x="569" y="77" on="0"/>
        <pt x="569" y="-107" on="0"/>
        <pt x="524" y="-264" on="0"/>
        <pt x="485" y="-328" on="1"/>
        <pt x="404" y="-463" on="0"/>
        <pt x="282" y="-506" on="1"/>
        <pt x="176" y="-408" on="1"/>
        <pt x="176" y="-382" on="1"/>
        <pt x="242" y="-343" on="0"/>
        <pt x="271" y="-215" on="1"/>
        <pt x="280" y="-176" on="0"/>
        <pt x="280" y="-101" on="0"/>
        <pt x="258" y="-28" on="0"/>
        <pt x="240" y="2" on="1"/>
        <pt x="200" y="71" on="0"/>
        <pt x="163" y="73" on="1"/>
      </contour>
    </TTGlyph>
    <TTGlyph name="commaaccent" xMin="55" yMin="-560" xMax="348" yMax="-86">
      <contour>
        <pt x="87" y="-490" on="1"/>
        <pt x="117" y="-458" on="0"/>
        <pt x="117" y="-354" on="1"/>
        <pt x="117" y="-296" on="0"/>
        <pt x="76" y="-251" on="1"/>
        <pt x="65" y="-239" on="0"/>
        <pt x="55" y="-234" on="1"/>
        <pt x="55" y="-184" on="1"/>
        <pt x="239" y="-86" on="1"/>
        <pt x="305" y="-102" on="0"/>
        <pt x="337" y="-204" on="1"/>
        <pt x="348" y="-238" on="0"/>
        <pt x="348" y="-342" on="0"/>
        <pt x="313" y="-440" on="0"/>
        <pt x="289" y="-476" on="1"/>
        <pt x="243" y="-543" on="0"/>
        <pt x="198" y="-560" on="1"/>
        <pt x="87" y="-516" on="1"/>
      </contour>
    </TTGlyph>
    <TTGlyph name="copyright" xMin="176" yMin="82" xMax="1917" yMax="1840">
      <contour>
        <pt x="176" y="962" on="1"/>
        <pt x="176" y="1084" on="0"/>
        <pt x="237" y="1309" on="0"/>
        <pt x="350" y="1504" on="0"/>
        <pt x="508" y="1664" on="0"/>
        <pt x="604" y="1721" on="1"/>
        <pt x="806" y="1840" on="0"/>
        <pt x="1046" y="1840" on="1"/>
        <pt x="1285" y="1840" on="0"/>
        <pt x="1488" y="1721" on="1"/>
        <pt x="1685" y="1605" on="0"/>
        <pt x="1799" y="1406" on="1"/>
        <pt x="1917" y="1201" on="0"/>
        <pt x="1917" y="963" on="1"/>
        <pt x="1917" y="724" on="0"/>
        <pt x="1799" y="518" on="1"/>
        <pt x="1623" y="210" on="0"/>
        <pt x="1279" y="114" on="1"/>
        <pt x="1167" y="82" on="0"/>
        <pt x="1046" y="82" on="1"/>
        <pt x="808" y="82" on="0"/>
        <pt x="604" y="202" on="1"/>
        <pt x="409" y="317" on="0"/>
        <pt x="294" y="518" on="1"/>
        <pt x="176" y="722" on="0"/>
      </contour>
      <contour>
        <pt x="343" y="1162" on="1"/>
        <pt x="318" y="1066" on="0"/>
        <pt x="318" y="859" on="0"/>
        <pt x="368" y="668" on="0"/>
        <pt x="460" y="500" on="0"/>
        <pt x="590" y="363" on="0"/>
        <pt x="671" y="314" on="1"/>
        <pt x="841" y="211" on="0"/>
        <pt x="1046" y="211" on="1"/>
        <pt x="1251" y="211" on="0"/>
        <pt x="1421" y="314" on="1"/>
        <pt x="1671" y="465" on="0"/>
        <pt x="1749" y="764" on="1"/>
        <pt x="1774" y="859" on="0"/>
        <pt x="1774" y="1066" on="0"/>
        <pt x="1724" y="1258" on="0"/>
        <pt x="1632" y="1425" on="0"/>
        <pt x="1502" y="1562" on="0"/>
        <pt x="1421" y="1611" on="1"/>
        <pt x="1251" y="1714" on="0"/>
        <pt x="1046" y="1714" on="1"/>
        <pt x="841" y="1714" on="0"/>
        <pt x="671" y="1611" on="1"/>
        <pt x="420" y="1459" on="0"/>
      </contour>
      <contour>
        <pt x="1329" y="738" on="1"/>
        <pt x="1377" y="579" on="1"/>
        <pt x="1296" y="512" on="0"/>
        <pt x="1148" y="484" on="1"/>
        <pt x="1099" y="475" on="0"/>
        <pt x="947" y="475" on="0"/>
        <pt x="783" y="551" on="0"/>
        <pt x="725" y="616" on="1"/>
        <pt x="604" y="750" on="0"/>
        <pt x="604" y="950" on="1"/>
        <pt x="604" y="953" on="0"/>
        <pt x="604" y="956" on="1"/>
        <pt x="604" y="1172" on="0"/>
        <pt x="730" y="1306" on="1"/>
        <pt x="864" y="1449" on="0"/>
        <pt x="1099" y="1449" on="1"/>
        <pt x="1213" y="1449" on="0"/>
        <pt x="1308" y="1419" on="1"/>
        <pt x="1334" y="1411" on="0"/>
        <pt x="1349" y="1402" on="1"/>
        <pt x="1304" y="1196" on="1"/>
        <pt x="1227" y="1254" on="0"/>
        <pt x="1092" y="1254" on="1"/>
        <pt x="980" y="1254" on="0"/>
        <pt x="910" y="1186" on="1"/>
        <pt x="838" y="1115" on="0"/>
        <pt x="838" y="907" on="0"/>
        <pt x="877" y="786" on="0"/>
        <pt x="912" y="748" on="1"/>
        <pt x="979" y="674" on="0"/>
        <pt x="1224" y="674" on="0"/>
      </contour>
    </TTGlyph>
    <TTGlyph name="currency" xMin="200" yMin="170" xMax="1344" yMax="1381">
      <contour>
        <pt x="764" y="317" on="1"/>
        <pt x="644" y="317" on="0"/>
        <pt x="543" y="375" on="1"/>
        <pt x="341" y="170" on="1"/>
        <pt x="200" y="314" on="1"/>
        <pt x="395" y="512" on="1"/>
        <pt x="316" y="628" on="0"/>
        <pt x="316" y="916" on="0"/>
        <pt x="393" y="1030" on="1"/>
        <pt x="201" y="1227" on="1"/>
        <pt x="340" y="1374" on="1"/>
        <pt x="540" y="1168" on="1"/>
        <pt x="645" y="1229" on="0"/>
        <pt x="764" y="1229" on="1"/>
        <pt x="883" y="1229" on="0"/>
        <pt x="990" y="1167" on="1"/>
        <pt x="1203" y="1381" on="1"/>
        <pt x="1344" y="1234" on="1"/>
        <pt x="1138" y="1026" on="1"/>
        <pt x="1214" y="912" on="0"/>
        <pt x="1214" y="631" on="0"/>
        <pt x="1136" y="515" on="1"/>
        <pt x="1331" y="316" on="1"/>
        <pt x="1191" y="171" on="1"/>
        <pt x="988" y="376" on="1"/>
        <pt x="886" y="317" on="0"/>
      </contour>
      <contour>
        <pt x="766" y="537" on="1"/>
        <pt x="859" y="537" on="0"/>
        <pt x="926" y="608" on="1"/>
        <pt x="992" y="677" on="0"/>
        <pt x="992" y="773" on="1"/>
        <pt x="992" y="869" on="0"/>
        <pt x="926" y="938" on="1"/>
        <pt x="859" y="1009" on="0"/>
        <pt x="766" y="1009" on="1"/>
        <pt x="672" y="1009" on="0"/>
        <pt x="605" y="938" on="1"/>
        <pt x="538" y="868" on="0"/>
        <pt x="538" y="773" on="1"/>
        <pt x="538" y="678" on="0"/>
        <pt x="605" y="608" on="1"/>
        <pt x="672" y="537" on="0"/>
      </contour>
    </TTGlyph>
    <TTGlyph name="d" xMin="95" yMin="-16" xMax="1171" yMax="1662">
      <contour>
        <pt x="884" y="119" on="1"/>
        <pt x="749" y="-16" on="0"/>
        <pt x="549" y="-16" on="1"/>
        <pt x="355" y="-16" on="0"/>
        <pt x="232" y="120" on="1"/>
        <pt x="95" y="269" on="0"/>
        <pt x="95" y="533" on="1"/>
        <pt x="95" y="815" on="0"/>
        <pt x="255" y="986" on="1"/>
        <pt x="413" y="1156" on="0"/>
        <pt x="675" y="1156" on="1"/>
        <pt x="778" y="1156" on="0"/>
        <pt x="862" y="1124" on="1"/>
        <pt x="859" y="1224" on="1"/>
        <pt x="859" y="1662" on="1"/>
        <pt x="1171" y="1662" on="1"/>
        <pt x="1171" y="-16" on="1"/>
        <pt x="959" y="-16" on="1"/>
        <pt x="925" y="-16" on="0"/>
        <pt x="884" y="4" on="0"/>
        <pt x="884" y="42" on="1"/>
      </contour>
      <contour>
        <pt x="859" y="901" on="1"/>
        <pt x="812" y="934" on="0"/>
        <pt x="628" y="934" on="0"/>
        <pt x="533" y="888" on="0"/>
        <pt x="498" y="842" on="1"/>
        <pt x="422" y="740" on="0"/>
        <pt x="422" y="548" on="1"/>
        <pt x="422" y="293" on="0"/>
        <pt x="552" y="243" on="1"/>
        <pt x="594" y="227" on="0"/>
        <pt x="645" y="227" on="1"/>
        <pt x="769" y="227" on="0"/>
        <pt x="859" y="287" on="1"/>
      </contour>
    </TTGlyph>
    <TTGlyph name="dagger" xMin="107" yMin="200" xMax="929" yMax="1658">
      <contour>
        <pt x="390" y="1077" on="1"/>
        <pt x="107" y="1076" on="1"/>
        <pt x="108" y="1288" on="1"/>
        <pt x="390" y="1286" on="1"/>
        <pt x="390" y="1658" on="1"/>
        <pt x="646" y="1658" on="1"/>
        <pt x="646" y="1286" on="1"/>
        <pt x="929" y="1288" on="1"/>
        <pt x="929" y="1076" on="1"/>
        <pt x="646" y="1077" on="1"/>
        <pt x="634" y="200" on="1"/>
        <pt x="406" y="200" on="1"/>
      </contour>
    </TTGlyph>
    <TTGlyph name="daggerdbl" xMin="107" yMin="-356" xMax="929" yMax="1658">
      <contour>
        <pt x="107" y="639" on="1"/>
        <pt x="390" y="639" on="1"/>
        <pt x="390" y="1077" on="1"/>
        <pt x="107" y="1076" on="1"/>
        <pt x="108" y="1288" on="1"/>
        <pt x="390" y="1287" on="1"/>
        <pt x="390" y="1658" on="1"/>
        <pt x="645" y="1658" on="1"/>
        <pt x="645" y="1287" on="1"/>
        <pt x="929" y="1288" on="1"/>
        <pt x="929" y="1076" on="1"/>
        <pt x="645" y="1077" on="1"/>
        <pt x="645" y="639" on="1"/>
        <pt x="928" y="639" on="1"/>
        <pt x="928" y="427" on="1"/>
        <pt x="645" y="428" on="1"/>
        <pt x="624" y="-356" on="1"/>
        <pt x="405" y="-356" on="1"/>
        <pt x="390" y="428" on="1"/>
        <pt x="107" y="427" on="1"/>
      </contour>
    </TTGlyph>
    <TTGlyph name="dcaron" xMin="95" yMin="-16" xMax="1650" yMax="1708">
      <component glyphName="d" x="0" y="0" flags="0x1004"/>
      <component glyphName="caronvertical" x="1287" y="0" flags="0x1004"/>
    </TTGlyph>
    <TTGlyph name="dcroat" xMin="95" yMin="-16" xMax="1299" yMax="1662">
      <contour>
        <pt x="884" y="119" on="1"/>
        <pt x="749" y="-16" on="0"/>
        <pt x="549" y="-16" on="1"/>
        <pt x="355" y="-16" on="0"/>
        <pt x="232" y="120" on="1"/>
        <pt x="95" y="269" on="0"/>
        <pt x="95" y="533" on="1"/>
        <pt x="95" y="815" on="0"/>
        <pt x="255" y="986" on="1"/>
        <pt x="413" y="1156" on="0"/>
        <pt x="675" y="1156" on="1"/>
        <pt x="778" y="1156" on="0"/>
        <pt x="862" y="1124" on="1"/>
        <pt x="859" y="1224" on="1"/>
        <pt x="859" y="1293" on="1"/>
        <pt x="632" y="1293" on="1"/>
        <pt x="632" y="1473" on="1"/>
        <pt x="859" y="1473" on="1"/>
        <pt x="859" y="1662" on="1"/>
        <pt x="1171" y="1662" on="1"/>
        <pt x="1171" y="1473" on="1"/>
        <pt x="1299" y="1473" on="1"/>
        <pt x="1299" y="1293" on="1"/>
        <pt x="1171" y="1293" on="1"/>
        <pt x="1171" y="-16" on="1"/>
        <pt x="959" y="-16" on="1"/>
        <pt x="925" y="-16" on="0"/>
        <pt x="884" y="4" on="0"/>
        <pt x="884" y="42" on="1"/>
      </contour>
      <contour>
        <pt x="859" y="901" on="1"/>
        <pt x="812" y="934" on="0"/>
        <pt x="628" y="934" on="0"/>
        <pt x="533" y="888" on="0"/>
        <pt x="498" y="842" on="1"/>
        <pt x="422" y="740" on="0"/>
        <pt x="422" y="548" on="1"/>
        <pt x="422" y="293" on="0"/>
        <pt x="552" y="243" on="1"/>
        <pt x="594" y="227" on="0"/>
        <pt x="645" y="227" on="1"/>
        <pt x="769" y="227" on="0"/>
        <pt x="859" y="287" on="1"/>
      </contour>
    </TTGlyph>
    <TTGlyph name="degree" xMin="118" yMin="921" xMax="838" yMax="1634">
      <contour>
        <pt x="480" y="921" on="1"/>
        <pt x="403" y="921" on="0"/>
        <pt x="272" y="976" on="0"/>
        <pt x="223" y="1024" on="1"/>
        <pt x="118" y="1128" on="0"/>
        <pt x="118" y="1278" on="1"/>
        <pt x="118" y="1431" on="0"/>
        <pt x="221" y="1532" on="1"/>
        <pt x="324" y="1634" on="0"/>
        <pt x="478" y="1634" on="1"/>
        <pt x="629" y="1634" on="0"/>
        <pt x="734" y="1531" on="1"/>
        <pt x="838" y="1428" on="0"/>
        <pt x="838" y="1278" on="1"/>
        <pt x="838" y="1123" on="0"/>
        <pt x="736" y="1022" on="1"/>
        <pt x="633" y="921" on="0"/>
      </contour>
      <contour>
        <pt x="478" y="1097" on="1"/>
        <pt x="515" y="1097" on="0"/>
        <pt x="578" y="1124" on="0"/>
        <pt x="601" y="1148" on="1"/>
        <pt x="651" y="1202" on="0"/>
        <pt x="651" y="1354" on="0"/>
        <pt x="600" y="1406" on="1"/>
        <pt x="550" y="1458" on="0"/>
        <pt x="478" y="1458" on="1"/>
        <pt x="404" y="1458" on="0"/>
        <pt x="306" y="1356" on="0"/>
        <pt x="306" y="1278" on="1"/>
        <pt x="306" y="1202" on="0"/>
        <pt x="407" y="1097" on="0"/>
      </contour>
    </TTGlyph>
    <TTGlyph name="dieresis" xMin="70" yMin="1310" xMax="904" yMax="1663">
      <contour>
        <pt x="827" y="1339" on="0"/>
        <pt x="760" y="1310" on="0"/>
        <pt x="683" y="1310" on="0"/>
        <pt x="622" y="1335" on="0"/>
        <pt x="600" y="1358" on="1"/>
        <pt x="555" y="1404" on="0"/>
        <pt x="555" y="1478" on="1"/>
        <pt x="555" y="1554" on="0"/>
        <pt x="609" y="1608" on="1"/>
        <pt x="664" y="1663" on="0"/>
        <pt x="740" y="1663" on="1"/>
        <pt x="861" y="1663" on="0"/>
        <pt x="894" y="1562" on="1"/>
        <pt x="904" y="1531" on="0"/>
        <pt x="904" y="1457" on="0"/>
        <pt x="876" y="1389" on="0"/>
      </contour>
      <contour>
        <pt x="342" y="1339" on="0"/>
        <pt x="275" y="1310" on="0"/>
        <pt x="198" y="1310" on="0"/>
        <pt x="137" y="1335" on="0"/>
        <pt x="115" y="1358" on="1"/>
        <pt x="70" y="1404" on="0"/>
        <pt x="70" y="1478" on="1"/>
        <pt x="70" y="1554" on="0"/>
        <pt x="124" y="1608" on="1"/>
        <pt x="179" y="1663" on="0"/>
        <pt x="255" y="1663" on="1"/>
        <pt x="376" y="1663" on="0"/>
        <pt x="409" y="1562" on="1"/>
        <pt x="419" y="1531" on="0"/>
        <pt x="419" y="1457" on="0"/>
        <pt x="391" y="1389" on="0"/>
      </contour>
    </TTGlyph>
    <TTGlyph name="dieresis.cap" xMin="55" yMin="1614" xMax="933" yMax="1960">
      <contour>
        <pt x="855" y="1642" on="0"/>
        <pt x="787" y="1614" on="0"/>
        <pt x="709" y="1614" on="0"/>
        <pt x="647" y="1637" on="0"/>
        <pt x="625" y="1658" on="1"/>
        <pt x="579" y="1703" on="0"/>
        <pt x="579" y="1778" on="1"/>
        <pt x="579" y="1855" on="0"/>
        <pt x="688" y="1960" on="0"/>
        <pt x="850" y="1960" on="0"/>
        <pt x="933" y="1869" on="0"/>
        <pt x="933" y="1757" on="0"/>
        <pt x="905" y="1690" on="0"/>
      </contour>
      <contour>
        <pt x="332" y="1642" on="0"/>
        <pt x="264" y="1614" on="0"/>
        <pt x="147" y="1614" on="0"/>
        <pt x="55" y="1703" on="0"/>
        <pt x="55" y="1778" on="1"/>
        <pt x="55" y="1855" on="0"/>
        <pt x="164" y="1960" on="0"/>
        <pt x="326" y="1960" on="0"/>
        <pt x="410" y="1869" on="0"/>
        <pt x="410" y="1757" on="0"/>
        <pt x="382" y="1690" on="0"/>
      </contour>
    </TTGlyph>
    <TTGlyph name="divide" xMin="203" yMin="137" xMax="1200" yMax="1419">
      <contour>
        <pt x="829" y="1058" on="0"/>
        <pt x="754" y="1025" on="0"/>
        <pt x="672" y="1025" on="0"/>
        <pt x="604" y="1053" on="0"/>
        <pt x="580" y="1078" on="1"/>
        <pt x="527" y="1132" on="0"/>
        <pt x="527" y="1213" on="1"/>
        <pt x="527" y="1295" on="0"/>
        <pt x="588" y="1358" on="1"/>
        <pt x="648" y="1419" on="0"/>
        <pt x="732" y="1419" on="1"/>
        <pt x="863" y="1419" on="0"/>
        <pt x="904" y="1306" on="1"/>
        <pt x="916" y="1272" on="0"/>
        <pt x="916" y="1190" on="0"/>
        <pt x="884" y="1114" on="0"/>
      </contour>
      <contour>
        <pt x="203" y="889" on="1"/>
        <pt x="1200" y="889" on="1"/>
        <pt x="1200" y="655" on="1"/>
        <pt x="203" y="655" on="1"/>
      </contour>
      <contour>
        <pt x="523" y="326" on="1"/>
        <pt x="523" y="367" on="0"/>
        <pt x="556" y="441" on="0"/>
        <pt x="584" y="470" on="1"/>
        <pt x="646" y="531" on="0"/>
        <pt x="729" y="531" on="1"/>
        <pt x="858" y="531" on="0"/>
        <pt x="900" y="418" on="1"/>
        <pt x="912" y="384" on="0"/>
        <pt x="912" y="302" on="0"/>
        <pt x="880" y="226" on="0"/>
        <pt x="852" y="198" on="1"/>
        <pt x="793" y="137" on="0"/>
        <pt x="708" y="137" on="1"/>
        <pt x="627" y="137" on="0"/>
        <pt x="576" y="190" on="1"/>
        <pt x="523" y="244" on="0"/>
      </contour>
    </TTGlyph>
    <TTGlyph name="dollar" xMin="223" yMin="-225" xMax="1216" yMax="1763">
      <contour>
        <pt x="763" y="1300" on="1"/>
        <pt x="535" y="1300" on="0"/>
        <pt x="535" y="1144" on="1"/>
        <pt x="535" y="1067" on="0"/>
        <pt x="597" y="1013" on="1"/>
        <pt x="642" y="974" on="0"/>
        <pt x="888" y="843" on="0"/>
        <pt x="1041" y="750" on="0"/>
        <pt x="1097" y="694" on="1"/>
        <pt x="1216" y="577" on="0"/>
        <pt x="1216" y="408" on="1"/>
        <pt x="1216" y="219" on="0"/>
        <pt x="1089" y="108" on="1"/>
        <pt x="967" y="0" on="0"/>
        <pt x="754" y="-14" on="1"/>
        <pt x="749" y="-225" on="1"/>
        <pt x="565" y="-225" on="1"/>
        <pt x="571" y="-9" on="1"/>
        <pt x="400" y="9" on="0"/>
        <pt x="286" y="51" on="1"/>
        <pt x="253" y="63" on="0"/>
        <pt x="236" y="74" on="1"/>
        <pt x="281" y="329" on="1"/>
        <pt x="394" y="266" on="0"/>
        <pt x="555" y="242" on="1"/>
        <pt x="612" y="233" on="0"/>
        <pt x="736" y="233" on="0"/>
        <pt x="822" y="253" on="0"/>
        <pt x="848" y="272" on="1"/>
        <pt x="896" y="308" on="0"/>
        <pt x="896" y="388" on="1"/>
        <pt x="896" y="466" on="0"/>
        <pt x="836" y="518" on="1"/>
        <pt x="784" y="564" on="0"/>
        <pt x="556" y="677" on="0"/>
        <pt x="465" y="730" on="0"/>
        <pt x="381" y="794" on="0"/>
        <pt x="308" y="869" on="0"/>
        <pt x="281" y="914" on="1"/>
        <pt x="223" y="1012" on="0"/>
        <pt x="223" y="1222" on="0"/>
        <pt x="283" y="1361" on="0"/>
        <pt x="336" y="1410" on="1"/>
        <pt x="436" y="1502" on="0"/>
        <pt x="615" y="1528" on="1"/>
        <pt x="623" y="1763" on="1"/>
        <pt x="806" y="1763" on="1"/>
        <pt x="799" y="1537" on="1"/>
        <pt x="1026" y="1526" on="0"/>
        <pt x="1147" y="1450" on="1"/>
        <pt x="1095" y="1203" on="1"/>
        <pt x="944" y="1300" on="0"/>
      </contour>
    </TTGlyph>
    <TTGlyph name="dotaccent" xMin="55" yMin="1307" xMax="434" yMax="1665">
      <contour>
        <pt x="237" y="1307" on="1"/>
        <pt x="198" y="1307" on="0"/>
        <pt x="132" y="1332" on="0"/>
        <pt x="108" y="1355" on="1"/>
        <pt x="55" y="1404" on="0"/>
        <pt x="55" y="1478" on="1"/>
        <pt x="55" y="1553" on="0"/>
        <pt x="116" y="1610" on="1"/>
        <pt x="175" y="1665" on="0"/>
        <pt x="254" y="1665" on="1"/>
        <pt x="335" y="1665" on="0"/>
        <pt x="386" y="1616" on="1"/>
        <pt x="434" y="1570" on="0"/>
        <pt x="434" y="1495" on="1"/>
        <pt x="434" y="1418" on="0"/>
        <pt x="375" y="1362" on="1"/>
        <pt x="316" y="1307" on="0"/>
      </contour>
    </TTGlyph>
    <TTGlyph name="dotaccent.cap" xMin="64" yMin="1614" xMax="425" yMax="1959">
      <contour>
        <pt x="345" y="1642" on="0"/>
        <pt x="276" y="1614" on="0"/>
        <pt x="198" y="1614" on="0"/>
        <pt x="134" y="1637" on="0"/>
        <pt x="112" y="1658" on="1"/>
        <pt x="64" y="1704" on="0"/>
        <pt x="64" y="1778" on="1"/>
        <pt x="64" y="1854" on="0"/>
        <pt x="120" y="1906" on="1"/>
        <pt x="176" y="1959" on="0"/>
        <pt x="338" y="1959" on="0"/>
        <pt x="425" y="1869" on="0"/>
        <pt x="425" y="1756" on="0"/>
        <pt x="396" y="1690" on="0"/>
      </contour>
    </TTGlyph>
    <TTGlyph name="dotlessi" xMin="174" yMin="0" xMax="486" yMax="1140">
      <contour>
        <pt x="174" y="1140" on="1"/>
        <pt x="486" y="1140" on="1"/>
        <pt x="486" y="0" on="1"/>
        <pt x="174" y="0" on="1"/>
      </contour>
    </TTGlyph>
    <TTGlyph name="dotlessj" xMin="-104" yMin="-507" xMax="486" yMax="1140">
      <contour>
        <pt x="-104" y="-282" on="1"/>
        <pt x="-53" y="-304" on="0"/>
        <pt x="58" y="-304" on="0"/>
        <pt x="120" y="-273" on="0"/>
        <pt x="138" y="-238" on="1"/>
        <pt x="174" y="-169" on="0"/>
        <pt x="174" y="1" on="1"/>
        <pt x="174" y="1140" on="1"/>
        <pt x="486" y="1140" on="1"/>
        <pt x="486" y="82" on="1"/>
        <pt x="486" y="-373" on="0"/>
        <pt x="245" y="-474" on="1"/>
        <pt x="168" y="-507" on="0"/>
        <pt x="71" y="-507" on="1"/>
        <pt x="20" y="-507" on="0"/>
        <pt x="-95" y="-487" on="0"/>
        <pt x="-104" y="-483" on="1"/>
      </contour>
    </TTGlyph>
    <TTGlyph name="e" xMin="95" yMin="-16" xMax="1092" yMax="1157">
      <contour>
        <pt x="1054" y="919" on="1"/>
        <pt x="1091" y="833" on="0"/>
        <pt x="1093" y="565" on="0"/>
        <pt x="1082" y="495" on="1"/>
        <pt x="407" y="495" on="1"/>
        <pt x="426" y="216" on="0"/>
        <pt x="712" y="216" on="1"/>
        <pt x="824" y="216" on="0"/>
        <pt x="982" y="263" on="0"/>
        <pt x="1005" y="275" on="1"/>
        <pt x="1056" y="98" on="1"/>
        <pt x="962" y="21" on="0"/>
        <pt x="763" y="-7" on="1"/>
        <pt x="699" y="-16" on="0"/>
        <pt x="502" y="-16" on="0"/>
        <pt x="302" y="64" on="0"/>
        <pt x="234" y="140" on="1"/>
        <pt x="95" y="294" on="0"/>
        <pt x="95" y="574" on="1"/>
        <pt x="95" y="830" on="0"/>
        <pt x="236" y="989" on="1"/>
        <pt x="385" y="1156" on="0"/>
        <pt x="647" y="1156" on="1"/>
        <pt x="950" y="1156" on="0"/>
      </contour>
      <contour>
        <pt x="804" y="712" on="1"/>
        <pt x="804" y="934" on="0"/>
        <pt x="630" y="934" on="1"/>
        <pt x="537" y="934" on="0"/>
        <pt x="486" y="877" on="1"/>
        <pt x="428" y="811" on="0"/>
        <pt x="413" y="668" on="1"/>
        <pt x="803" y="668" on="1"/>
        <pt x="804" y="691" on="0"/>
      </contour>
    </TTGlyph>
    <TTGlyph name="eacute" xMin="95" yMin="-16" xMax="1092" yMax="1808">
      <component glyphName="acute" x="446" y="0" flags="0x1004"/>
      <component glyphName="e" x="0" y="0" flags="0x1004"/>
    </TTGlyph>
    <TTGlyph name="ebreve" xMin="95" yMin="-16" xMax="1092" yMax="1685">
      <component glyphName="e" x="0" y="0" flags="0x1204"/>
      <component glyphName="breve" x="227" y="0" flags="0x1004"/>
    </TTGlyph>
    <TTGlyph name="ecaron" xMin="95" yMin="-16" xMax="1092" yMax="1713">
      <component glyphName="caron" x="192" y="14" flags="0x1004"/>
      <component glyphName="e" x="0" y="0" flags="0x1004"/>
    </TTGlyph>
    <TTGlyph name="ecircumflex" xMin="95" yMin="-16" xMax="1092" yMax="1699">
      <component glyphName="circumflex" x="196" y="0" flags="0x1004"/>
      <component glyphName="e" x="0" y="0" flags="0x1004"/>
    </TTGlyph>
    <TTGlyph name="edieresis" xMin="95" yMin="-16" xMax="1092" yMax="1663">
      <component glyphName="dieresis" x="147" y="0" flags="0x1004"/>
      <component glyphName="e" x="0" y="0" flags="0x1004"/>
    </TTGlyph>
    <TTGlyph name="edotaccent" xMin="95" yMin="-16" xMax="1092" yMax="1665">
      <component glyphName="e" x="0" y="0" flags="0x1204"/>
      <component glyphName="dotaccent" x="385" y="0" flags="0x1004"/>
    </TTGlyph>
    <TTGlyph name="egrave" xMin="95" yMin="-16" xMax="1092" yMax="1808">
      <component glyphName="e" x="0" y="0" flags="0x1204"/>
      <component glyphName="grave" x="144" y="0" flags="0x1004"/>
    </TTGlyph>
    <TTGlyph name="eight" xMin="129" yMin="-16" xMax="1236" yMax="1565">
      <contour>
        <pt x="415" y="779" on="1"/>
        <pt x="180" y="937" on="0"/>
        <pt x="180" y="1174" on="1"/>
        <pt x="180" y="1350" on="0"/>
        <pt x="315" y="1456" on="1"/>
        <pt x="452" y="1565" on="0"/>
        <pt x="682" y="1565" on="1"/>
        <pt x="909" y="1565" on="0"/>
        <pt x="1042" y="1466" on="1"/>
        <pt x="1172" y="1371" on="0"/>
        <pt x="1172" y="1212" on="1"/>
        <pt x="1172" y="1032" on="0"/>
        <pt x="1024" y="896" on="1"/>
        <pt x="973" y="849" on="0"/>
        <pt x="904" y="816" on="1"/>
        <pt x="1060" y="726" on="0"/>
        <pt x="1179" y="599" on="0"/>
        <pt x="1235" y="480" on="0"/>
        <pt x="1235" y="303" on="0"/>
        <pt x="1152" y="146" on="0"/>
        <pt x="1078" y="92" on="1"/>
        <pt x="929" y="-16" on="0"/>
        <pt x="692" y="-16" on="1"/>
        <pt x="440" y="-16" on="0"/>
        <pt x="290" y="84" on="1"/>
        <pt x="129" y="190" on="0"/>
        <pt x="129" y="385" on="1"/>
        <pt x="129" y="629" on="0"/>
      </contour>
      <contour>
        <pt x="714" y="919" on="1"/>
        <pt x="895" y="994" on="0"/>
        <pt x="895" y="1180" on="1"/>
        <pt x="895" y="1301" on="0"/>
        <pt x="770" y="1342" on="1"/>
        <pt x="730" y="1355" on="0"/>
        <pt x="634" y="1355" on="0"/>
        <pt x="558" y="1332" on="0"/>
        <pt x="530" y="1311" on="1"/>
        <pt x="468" y="1266" on="0"/>
        <pt x="468" y="1193" on="1"/>
        <pt x="468" y="1078" on="0"/>
        <pt x="618" y="978" on="1"/>
        <pt x="663" y="948" on="0"/>
      </contour>
      <contour>
        <pt x="603" y="671" on="1"/>
        <pt x="424" y="577" on="0"/>
        <pt x="424" y="403" on="1"/>
        <pt x="424" y="264" on="0"/>
        <pt x="570" y="220" on="1"/>
        <pt x="621" y="204" on="0"/>
        <pt x="739" y="204" on="0"/>
        <pt x="822" y="227" on="0"/>
        <pt x="854" y="250" on="1"/>
        <pt x="924" y="299" on="0"/>
        <pt x="924" y="378" on="1"/>
        <pt x="924" y="501" on="0"/>
        <pt x="724" y="608" on="1"/>
        <pt x="666" y="639" on="0"/>
      </contour>
    </TTGlyph>
    <TTGlyph name="ellipsis" xMin="126" yMin="-22" xMax="1778" yMax="383">
      <contour>
        <pt x="1388" y="172" on="1"/>
        <pt x="1388" y="213" on="0"/>
        <pt x="1420" y="290" on="0"/>
        <pt x="1448" y="320" on="1"/>
        <pt x="1507" y="383" on="0"/>
        <pt x="1592" y="383" on="1"/>
        <pt x="1676" y="383" on="0"/>
        <pt x="1728" y="328" on="1"/>
        <pt x="1777" y="274" on="0"/>
        <pt x="1777" y="191" on="1"/>
        <pt x="1777" y="188" on="0"/>
        <pt x="1777" y="146" on="0"/>
        <pt x="1747" y="71" on="0"/>
        <pt x="1720" y="42" on="1"/>
        <pt x="1660" y="-22" on="0"/>
        <pt x="1575" y="-22" on="1"/>
        <pt x="1495" y="-22" on="0"/>
        <pt x="1442" y="33" on="1"/>
        <pt x="1388" y="89" on="0"/>
      </contour>
      <contour>
        <pt x="757" y="172" on="1"/>
        <pt x="757" y="213" on="0"/>
        <pt x="789" y="290" on="0"/>
        <pt x="816" y="320" on="1"/>
        <pt x="876" y="383" on="0"/>
        <pt x="961" y="383" on="1"/>
        <pt x="1045" y="383" on="0"/>
        <pt x="1096" y="328" on="1"/>
        <pt x="1146" y="274" on="0"/>
        <pt x="1146" y="191" on="1"/>
        <pt x="1146" y="188" on="0"/>
        <pt x="1146" y="146" on="0"/>
        <pt x="1116" y="71" on="0"/>
        <pt x="1088" y="42" on="1"/>
        <pt x="1029" y="-22" on="0"/>
        <pt x="944" y="-22" on="1"/>
        <pt x="864" y="-22" on="0"/>
        <pt x="811" y="33" on="1"/>
        <pt x="757" y="89" on="0"/>
      </contour>
      <contour>
        <pt x="126" y="172" on="1"/>
        <pt x="126" y="213" on="0"/>
        <pt x="158" y="290" on="0"/>
        <pt x="186" y="320" on="1"/>
        <pt x="245" y="383" on="0"/>
        <pt x="330" y="383" on="1"/>
        <pt x="414" y="383" on="0"/>
        <pt x="466" y="328" on="1"/>
        <pt x="515" y="274" on="0"/>
        <pt x="515" y="191" on="1"/>
        <pt x="515" y="188" on="0"/>
        <pt x="515" y="146" on="0"/>
        <pt x="485" y="71" on="0"/>
        <pt x="458" y="42" on="1"/>
        <pt x="398" y="-22" on="0"/>
        <pt x="313" y="-22" on="1"/>
        <pt x="233" y="-22" on="0"/>
        <pt x="180" y="33" on="1"/>
        <pt x="126" y="89" on="0"/>
      </contour>
    </TTGlyph>
    <TTGlyph name="emacron" xMin="95" yMin="-16" xMax="1092" yMax="1626">
      <component glyphName="e" x="0" y="0" flags="0x1204"/>
      <component glyphName="macron" x="284" y="0" flags="0x1004"/>
    </TTGlyph>
    <TTGlyph name="emdash" xMin="245" yMin="644" xMax="2168" yMax="889">
      <contour>
        <pt x="245" y="889" on="1"/>
        <pt x="2168" y="889" on="1"/>
        <pt x="2168" y="644" on="1"/>
        <pt x="245" y="644" on="1"/>
      </contour>
    </TTGlyph>
    <TTGlyph name="endash" xMin="245" yMin="644" xMax="1457" yMax="889">
      <contour>
        <pt x="245" y="889" on="1"/>
        <pt x="1457" y="889" on="1"/>
        <pt x="1457" y="644" on="1"/>
        <pt x="245" y="644" on="1"/>
      </contour>
    </TTGlyph>
    <TTGlyph name="eng" xMin="174" yMin="-507" xMax="1190" yMax="1160">
      <contour>
        <pt x="641" y="-297" on="1"/>
        <pt x="670" y="-308" on="0"/>
        <pt x="783" y="-308" on="0"/>
        <pt x="831" y="-291" on="0"/>
        <pt x="847" y="-263" on="1"/>
        <pt x="878" y="-209" on="0"/>
        <pt x="878" y="-45" on="1"/>
        <pt x="878" y="658" on="1"/>
        <pt x="878" y="800" on="0"/>
        <pt x="844" y="852" on="1"/>
        <pt x="810" y="905" on="0"/>
        <pt x="719" y="905" on="1"/>
        <pt x="634" y="905" on="0"/>
        <pt x="542" y="854" on="1"/>
        <pt x="512" y="837" on="0"/>
        <pt x="486" y="814" on="1"/>
        <pt x="486" y="0" on="1"/>
        <pt x="174" y="0" on="1"/>
        <pt x="174" y="1138" on="1"/>
        <pt x="457" y="1138" on="1"/>
        <pt x="463" y="1018" on="1"/>
        <pt x="575" y="1103" on="0"/>
        <pt x="728" y="1143" on="1"/>
        <pt x="790" y="1159" on="0"/>
        <pt x="932" y="1159" on="0"/>
        <pt x="1058" y="1118" on="0"/>
        <pt x="1102" y="1066" on="1"/>
        <pt x="1190" y="960" on="0"/>
        <pt x="1190" y="716" on="1"/>
        <pt x="1190" y="-31" on="1"/>
        <pt x="1190" y="-274" on="0"/>
        <pt x="1088" y="-398" on="1"/>
        <pt x="998" y="-507" on="0"/>
        <pt x="706" y="-507" on="0"/>
        <pt x="641" y="-493" on="1"/>
      </contour>
    </TTGlyph>
    <TTGlyph name="eogonek" xMin="95" yMin="-516" xMax="1092" yMax="1157">
      <contour>
        <pt x="748" y="-9" on="1"/>
        <pt x="683" y="-16" on="0"/>
        <pt x="633" y="-16" on="1"/>
        <pt x="374" y="-16" on="0"/>
        <pt x="234" y="140" on="1"/>
        <pt x="95" y="294" on="0"/>
        <pt x="95" y="574" on="1"/>
        <pt x="95" y="830" on="0"/>
        <pt x="236" y="989" on="1"/>
        <pt x="385" y="1156" on="0"/>
        <pt x="647" y="1156" on="1"/>
        <pt x="950" y="1156" on="0"/>
        <pt x="1054" y="919" on="1"/>
        <pt x="1091" y="833" on="0"/>
        <pt x="1093" y="565" on="0"/>
        <pt x="1082" y="495" on="1"/>
        <pt x="407" y="495" on="1"/>
        <pt x="426" y="216" on="0"/>
        <pt x="712" y="216" on="1"/>
        <pt x="824" y="216" on="0"/>
        <pt x="982" y="263" on="0"/>
        <pt x="1005" y="275" on="1"/>
        <pt x="1056" y="98" on="1"/>
        <pt x="974" y="34" on="1"/>
        <pt x="827" y="-91" on="0"/>
        <pt x="827" y="-223" on="1"/>
        <pt x="831" y="-311" on="0"/>
        <pt x="948" y="-311" on="1"/>
        <pt x="1002" y="-311" on="0"/>
        <pt x="1073" y="-291" on="1"/>
        <pt x="1073" y="-448" on="1"/>
        <pt x="980" y="-516" on="0"/>
        <pt x="843" y="-516" on="1"/>
        <pt x="743" y="-516" on="0"/>
        <pt x="668" y="-464" on="1"/>
        <pt x="581" y="-403" on="0"/>
        <pt x="581" y="-296" on="1"/>
        <pt x="581" y="-123" on="0"/>
      </contour>
      <contour>
        <pt x="804" y="712" on="1"/>
        <pt x="804" y="934" on="0"/>
        <pt x="630" y="934" on="1"/>
        <pt x="537" y="934" on="0"/>
        <pt x="486" y="877" on="1"/>
        <pt x="428" y="811" on="0"/>
        <pt x="413" y="668" on="1"/>
        <pt x="803" y="668" on="1"/>
        <pt x="804" y="691" on="0"/>
      </contour>
    </TTGlyph>
    <TTGlyph name="equal" xMin="251" yMin="411" xMax="1172" yMax="1139">
      <contour>
        <pt x="251" y="1139" on="1"/>
        <pt x="1172" y="1139" on="1"/>
        <pt x="1172" y="923" on="1"/>
        <pt x="251" y="923" on="1"/>
      </contour>
      <contour>
        <pt x="251" y="627" on="1"/>
        <pt x="1172" y="627" on="1"/>
        <pt x="1172" y="411" on="1"/>
        <pt x="251" y="411" on="1"/>
      </contour>
    </TTGlyph>
    <TTGlyph name="estimated" xMin="109" yMin="-16" xMax="1274" yMax="1357">
      <contour>
        <pt x="1274" y="832" on="1"/>
        <pt x="1274" y="664" on="0"/>
        <pt x="1263" y="612" on="1"/>
        <pt x="435" y="612" on="1"/>
        <pt x="435" y="258" on="1"/>
        <pt x="541" y="147" on="0"/>
        <pt x="750" y="147" on="1"/>
        <pt x="917" y="147" on="0"/>
        <pt x="1062" y="224" on="1"/>
        <pt x="1101" y="245" on="0"/>
        <pt x="1128" y="266" on="1"/>
        <pt x="1198" y="115" on="1"/>
        <pt x="1082" y="31" on="0"/>
        <pt x="875" y="-4" on="1"/>
        <pt x="805" y="-16" on="0"/>
        <pt x="732" y="-16" on="1"/>
        <pt x="435" y="-16" on="0"/>
        <pt x="272" y="166" on="1"/>
        <pt x="109" y="347" on="0"/>
        <pt x="109" y="671" on="1"/>
        <pt x="109" y="978" on="0"/>
        <pt x="262" y="1158" on="1"/>
        <pt x="431" y="1356" on="0"/>
        <pt x="748" y="1356" on="1"/>
        <pt x="965" y="1356" on="0"/>
        <pt x="1112" y="1219" on="1"/>
        <pt x="1266" y="1074" on="0"/>
      </contour>
      <contour>
        <pt x="970" y="1119" on="1"/>
        <pt x="888" y="1193" on="0"/>
        <pt x="540" y="1193" on="0"/>
        <pt x="435" y="1077" on="1"/>
        <pt x="435" y="768" on="1"/>
        <pt x="970" y="768" on="1"/>
      </contour>
    </TTGlyph>
    <TTGlyph name="eth" xMin="95" yMin="-28" xMax="1215" yMax="1852">
      <contour>
        <pt x="549" y="1679" on="1"/>
        <pt x="674" y="1852" on="1"/>
        <pt x="826" y="1752" on="1"/>
        <pt x="807" y="1727" on="0"/>
        <pt x="768" y="1677" on="0"/>
        <pt x="724" y="1620" on="0"/>
        <pt x="703" y="1594" on="1"/>
        <pt x="934" y="1463" on="0"/>
        <pt x="1076" y="1202" on="1"/>
        <pt x="1215" y="946" on="0"/>
        <pt x="1215" y="651" on="1"/>
        <pt x="1215" y="329" on="0"/>
        <pt x="1052" y="145" on="1"/>
        <pt x="899" y="-27" on="0"/>
        <pt x="648" y="-27" on="1"/>
        <pt x="398" y="-27" on="0"/>
        <pt x="246" y="132" on="1"/>
        <pt x="95" y="291" on="0"/>
        <pt x="95" y="550" on="1"/>
        <pt x="95" y="826" on="0"/>
        <pt x="232" y="986" on="1"/>
        <pt x="373" y="1149" on="0"/>
        <pt x="624" y="1149" on="1"/>
        <pt x="733" y="1149" on="0"/>
        <pt x="815" y="1096" on="1"/>
        <pt x="753" y="1283" on="0"/>
        <pt x="568" y="1420" on="1"/>
        <pt x="451" y="1262" on="1"/>
        <pt x="302" y="1361" on="1"/>
        <pt x="424" y="1518" on="1"/>
        <pt x="326" y="1579" on="0"/>
        <pt x="220" y="1611" on="1"/>
        <pt x="273" y="1787" on="1"/>
        <pt x="453" y="1733" on="0"/>
      </contour>
      <contour>
        <pt x="419" y="375" on="0"/>
        <pt x="548" y="202" on="0"/>
        <pt x="660" y="202" on="1"/>
        <pt x="760" y="202" on="0"/>
        <pt x="824" y="298" on="1"/>
        <pt x="892" y="399" on="0"/>
        <pt x="892" y="574" on="1"/>
        <pt x="892" y="634" on="1"/>
        <pt x="892" y="744" on="0"/>
        <pt x="886" y="816" on="1"/>
        <pt x="840" y="892" on="0"/>
        <pt x="739" y="922" on="1"/>
        <pt x="703" y="932" on="0"/>
        <pt x="604" y="932" on="0"/>
        <pt x="514" y="881" on="0"/>
        <pt x="483" y="832" on="1"/>
        <pt x="419" y="729" on="0"/>
      </contour>
    </TTGlyph>
    <TTGlyph name="exclam" xMin="125" yMin="-22" xMax="515" yMax="1780">
      <contour>
        <pt x="151" y="1780" on="1"/>
        <pt x="498" y="1780" on="1"/>
        <pt x="464" y="555" on="1"/>
        <pt x="197" y="555" on="1"/>
      </contour>
      <contour>
        <pt x="126" y="173" on="1"/>
        <pt x="126" y="215" on="0"/>
        <pt x="157" y="290" on="0"/>
        <pt x="185" y="320" on="1"/>
        <pt x="245" y="383" on="0"/>
        <pt x="329" y="383" on="1"/>
        <pt x="459" y="383" on="0"/>
        <pt x="502" y="266" on="1"/>
        <pt x="515" y="231" on="0"/>
        <pt x="515" y="148" on="0"/>
        <pt x="484" y="71" on="0"/>
        <pt x="456" y="42" on="1"/>
        <pt x="397" y="-22" on="0"/>
        <pt x="312" y="-22" on="1"/>
        <pt x="232" y="-22" on="0"/>
        <pt x="126" y="88" on="0"/>
      </contour>
    </TTGlyph>
    <TTGlyph name="exclamdbl" xMin="125" yMin="-22" xMax="1144" yMax="1780">
      <component glyphName="exclam" x="0" y="0" flags="0x1004"/>
      <component glyphName="exclam" x="629" y="0" flags="0x1004"/>
    </TTGlyph>
    <TTGlyph name="exclamdown" xMin="115" yMin="-436" xMax="506" yMax="1366">
      <component glyphName="exclam" x="631" y="1344" scale="-0.999938964844" flags="0x1004"/>
    </TTGlyph>
    <TTGlyph name="f" xMin="82" yMin="0" xMax="865" yMax="1683">
      <contour>
        <pt x="865" y="1439" on="1"/>
        <pt x="815" y="1463" on="0"/>
        <pt x="726" y="1463" on="1"/>
        <pt x="549" y="1463" on="0"/>
        <pt x="549" y="1256" on="1"/>
        <pt x="549" y="1140" on="1"/>
        <pt x="815" y="1140" on="1"/>
        <pt x="815" y="924" on="1"/>
        <pt x="549" y="924" on="1"/>
        <pt x="549" y="0" on="1"/>
        <pt x="237" y="0" on="1"/>
        <pt x="237" y="924" on="1"/>
        <pt x="82" y="924" on="1"/>
        <pt x="82" y="1106" on="1"/>
        <pt x="237" y="1140" on="1"/>
        <pt x="237" y="1249" on="1"/>
        <pt x="237" y="1545" on="0"/>
        <pt x="465" y="1644" on="1"/>
        <pt x="553" y="1683" on="0"/>
        <pt x="799" y="1683" on="0"/>
        <pt x="865" y="1661" on="1"/>
      </contour>
    </TTGlyph>
    <TTGlyph name="f_f" xMin="82" yMin="0" xMax="1723" yMax="1683">
      <component glyphName="f" x="0" y="0" flags="0x1004"/>
      <component glyphName="f" x="858" y="0" flags="0x1004"/>
    </TTGlyph>
    <TTGlyph name="f_f_i" xMin="82" yMin="0" xMax="2243" yMax="1683">
      <component glyphName="dotlessi" x="1716" y="0" flags="0x1004"/>
      <component glyphName="dotaccent" x="1809" y="0" flags="0x1004"/>
      <component glyphName="f" x="0" y="0" flags="0x1004"/>
      <component glyphName="f" x="858" y="0" flags="0x1004"/>
    </TTGlyph>
    <TTGlyph name="f_f_l" xMin="82" yMin="0" xMax="2208" yMax="1683">
      <component glyphName="l" x="1716" y="0" flags="0x1004"/>
      <component glyphName="f" x="0" y="0" flags="0x1004"/>
      <component glyphName="f" x="858" y="0" flags="0x1004"/>
    </TTGlyph>
    <TTGlyph name="f_i" xMin="82" yMin="0" xMax="1385" yMax="1683">
      <component glyphName="dotlessi" x="858" y="0" flags="0x1004"/>
      <component glyphName="dotaccent" x="951" y="0" flags="0x1004"/>
      <component glyphName="f" x="0" y="0" flags="0x1004"/>
    </TTGlyph>
    <TTGlyph name="f_l" xMin="82" yMin="0" xMax="1350" yMax="1683">
      <component glyphName="l" x="858" y="0" flags="0x1004"/>
      <component glyphName="f" x="0" y="0" flags="0x1004"/>
    </TTGlyph>
    <TTGlyph name="ffi_dflt" xMin="82" yMin="0" xMax="2243" yMax="1683">
      <component glyphName="dotlessi" x="1716" y="0" flags="0x1004"/>
      <component glyphName="dotaccent" x="1809" y="0" flags="0x1004"/>
      <component glyphName="f" x="0" y="0" flags="0x1004"/>
      <component glyphName="f" x="858" y="0" flags="0x1004"/>
    </TTGlyph>
    <TTGlyph name="fi_trk" xMin="82" yMin="0" xMax="1385" yMax="1683">
      <component glyphName="dotlessi" x="858" y="0" flags="0x1004"/>
      <component glyphName="dotaccent" x="951" y="0" flags="0x1004"/>
      <component glyphName="f" x="0" y="0" flags="0x1004"/>
    </TTGlyph>
    <TTGlyph name="five" xMin="192" yMin="-354" xMax="1151" yMax="1252">
      <contour>
        <pt x="193" y="-123" on="1"/>
        <pt x="233" y="-125" on="0"/>
        <pt x="396" y="-125" on="0"/>
        <pt x="602" y="-73" on="0"/>
        <pt x="676" y="-26" on="1"/>
        <pt x="832" y="73" on="0"/>
        <pt x="832" y="234" on="1"/>
        <pt x="832" y="344" on="0"/>
        <pt x="767" y="396" on="1"/>
        <pt x="698" y="451" on="0"/>
        <pt x="546" y="451" on="1"/>
        <pt x="455" y="451" on="0"/>
        <pt x="249" y="385" on="1"/>
        <pt x="199" y="415" on="1"/>
        <pt x="265" y="1252" on="1"/>
        <pt x="1112" y="1252" on="1"/>
        <pt x="1084" y="985" on="1"/>
        <pt x="491" y="985" on="1"/>
        <pt x="458" y="650" on="1"/>
        <pt x="610" y="685" on="0"/>
        <pt x="815" y="685" on="0"/>
        <pt x="979" y="622" on="0"/>
        <pt x="1036" y="564" on="1"/>
        <pt x="1151" y="447" on="0"/>
        <pt x="1151" y="245" on="1"/>
        <pt x="1151" y="120" on="0"/>
        <pt x="1036" y="-98" on="0"/>
        <pt x="928" y="-178" on="1"/>
        <pt x="697" y="-352" on="0"/>
        <pt x="327" y="-354" on="1"/>
        <pt x="237" y="-354" on="0"/>
        <pt x="192" y="-341" on="1"/>
      </contour>
    </TTGlyph>
    <TTGlyph name="florin" xMin="208" yMin="-356" xMax="1097" yMax="1684">
      <contour>
        <pt x="1079" y="1434" on="1"/>
        <pt x="1043" y="1457" on="0"/>
        <pt x="883" y="1457" on="0"/>
        <pt x="817" y="1432" on="0"/>
        <pt x="792" y="1404" on="1"/>
        <pt x="736" y="1345" on="0"/>
        <pt x="725" y="1229" on="1"/>
        <pt x="715" y="1140" on="1"/>
        <pt x="989" y="1140" on="1"/>
        <pt x="972" y="924" on="1"/>
        <pt x="697" y="924" on="1"/>
        <pt x="587" y="-356" on="1"/>
        <pt x="273" y="-356" on="1"/>
        <pt x="384" y="924" on="1"/>
        <pt x="208" y="924" on="1"/>
        <pt x="222" y="1102" on="1"/>
        <pt x="401" y="1140" on="1"/>
        <pt x="410" y="1223" on="1"/>
        <pt x="434" y="1464" on="0"/>
        <pt x="587" y="1584" on="1"/>
        <pt x="715" y="1684" on="0"/>
        <pt x="913" y="1684" on="1"/>
        <pt x="1052" y="1684" on="0"/>
        <pt x="1097" y="1663" on="1"/>
      </contour>
    </TTGlyph>
    <TTGlyph name="four" xMin="100" yMin="-376" xMax="1361" yMax="1334">
      <contour>
        <pt x="660" y="1334" on="1"/>
        <pt x="733" y="1334" on="1"/>
        <pt x="977" y="1211" on="1"/>
        <pt x="516" y="361" on="1"/>
        <pt x="440" y="234" on="1"/>
        <pt x="828" y="234" on="1"/>
        <pt x="866" y="644" on="1"/>
        <pt x="1128" y="644" on="1"/>
        <pt x="1128" y="234" on="1"/>
        <pt x="1361" y="234" on="1"/>
        <pt x="1361" y="0" on="1"/>
        <pt x="1128" y="0" on="1"/>
        <pt x="1128" y="-376" on="1"/>
        <pt x="828" y="-376" on="1"/>
        <pt x="828" y="0" on="1"/>
        <pt x="176" y="0" on="1"/>
        <pt x="100" y="133" on="1"/>
      </contour>
    </TTGlyph>
    <TTGlyph name="foursuperior" xMin="89" yMin="586" xMax="1106" yMax="1841">
      <contour>
        <pt x="89" y="952" on="1"/>
        <pt x="587" y="1841" on="1"/>
        <pt x="655" y="1841" on="1"/>
        <pt x="842" y="1749" on="1"/>
        <pt x="402" y="1050" on="1"/>
        <pt x="687" y="1050" on="1"/>
        <pt x="712" y="1310" on="1"/>
        <pt x="942" y="1310" on="1"/>
        <pt x="942" y="1050" on="1"/>
        <pt x="1106" y="1050" on="1"/>
        <pt x="1106" y="858" on="1"/>
        <pt x="942" y="858" on="1"/>
        <pt x="942" y="586" on="1"/>
        <pt x="686" y="586" on="1"/>
        <pt x="686" y="858" on="1"/>
        <pt x="141" y="858" on="1"/>
      </contour>
    </TTGlyph>
    <TTGlyph name="fraction" xMin="127" yMin="0" xMax="909" yMax="1530">
      <contour>
        <pt x="666" y="1530" on="1"/>
        <pt x="909" y="1530" on="1"/>
        <pt x="367" y="0" on="1"/>
        <pt x="127" y="0" on="1"/>
      </contour>
    </TTGlyph>
    <TTGlyph name="g" xMin="91" yMin="-517" xMax="1288" yMax="1157">
      <contour>
        <pt x="512" y="415" on="1"/>
        <pt x="470" y="381" on="0"/>
        <pt x="470" y="323" on="1"/>
        <pt x="470" y="255" on="0"/>
        <pt x="544" y="246" on="1"/>
        <pt x="569" y="243" on="0"/>
        <pt x="605" y="243" on="1"/>
        <pt x="795" y="243" on="1"/>
        <pt x="1048" y="243" on="0"/>
        <pt x="1154" y="132" on="1"/>
        <pt x="1234" y="47" on="0"/>
        <pt x="1234" y="-102" on="1"/>
        <pt x="1234" y="-295" on="0"/>
        <pt x="1050" y="-412" on="1"/>
        <pt x="883" y="-516" on="0"/>
        <pt x="649" y="-516" on="1"/>
        <pt x="641" y="-516" on="0"/>
        <pt x="504" y="-515" on="0"/>
        <pt x="302" y="-471" on="0"/>
        <pt x="233" y="-429" on="1"/>
        <pt x="91" y="-343" on="0"/>
        <pt x="91" y="-183" on="1"/>
        <pt x="91" y="-64" on="0"/>
        <pt x="197" y="14" on="1"/>
        <pt x="229" y="37" on="0"/>
        <pt x="267" y="54" on="1"/>
        <pt x="174" y="100" on="0"/>
        <pt x="174" y="228" on="1"/>
        <pt x="174" y="382" on="0"/>
        <pt x="356" y="458" on="1"/>
        <pt x="247" y="505" on="0"/>
        <pt x="122" y="669" on="0"/>
        <pt x="122" y="775" on="1"/>
        <pt x="122" y="1156" on="0"/>
        <pt x="636" y="1156" on="1"/>
        <pt x="855" y="1156" on="0"/>
        <pt x="977" y="1073" on="1"/>
        <pt x="1050" y="1140" on="0"/>
        <pt x="1161" y="1140" on="1"/>
        <pt x="1288" y="1140" on="1"/>
        <pt x="1288" y="914" on="1"/>
        <pt x="1099" y="914" on="1"/>
        <pt x="1119" y="854" on="0"/>
        <pt x="1119" y="692" on="0"/>
        <pt x="1051" y="551" on="0"/>
        <pt x="986" y="504" on="1"/>
        <pt x="853" y="409" on="0"/>
        <pt x="612" y="409" on="1"/>
        <pt x="560" y="409" on="0"/>
      </contour>
      <contour>
        <pt x="824" y="775" on="1"/>
        <pt x="824" y="963" on="0"/>
        <pt x="423" y="963" on="0"/>
        <pt x="423" y="779" on="1"/>
        <pt x="423" y="696" on="0"/>
        <pt x="521" y="600" on="0"/>
        <pt x="617" y="600" on="1"/>
        <pt x="716" y="600" on="0"/>
        <pt x="754" y="626" on="1"/>
        <pt x="824" y="675" on="0"/>
      </contour>
      <contour>
        <pt x="443" y="2" on="1"/>
        <pt x="401" y="-38" on="0"/>
        <pt x="401" y="-156" on="0"/>
        <pt x="426" y="-234" on="0"/>
        <pt x="454" y="-264" on="1"/>
        <pt x="518" y="-332" on="0"/>
        <pt x="645" y="-332" on="1"/>
        <pt x="926" y="-332" on="0"/>
        <pt x="926" y="-164" on="1"/>
        <pt x="926" y="-76" on="0"/>
        <pt x="882" y="-42" on="1"/>
        <pt x="828" y="0" on="0"/>
        <pt x="668" y="0" on="1"/>
        <pt x="505" y="0" on="1"/>
        <pt x="473" y="0" on="0"/>
      </contour>
    </TTGlyph>
    <TTGlyph name="gbreve" xMin="91" yMin="-517" xMax="1288" yMax="1685">
      <component glyphName="g" x="0" y="0" flags="0x1204"/>
      <component glyphName="breve" x="226" y="0" flags="0x1004"/>
    </TTGlyph>
    <TTGlyph name="gcircumflex" xMin="91" yMin="-517" xMax="1288" yMax="1699">
      <component glyphName="circumflex" x="195" y="0" flags="0x1004"/>
      <component glyphName="g" x="0" y="0" flags="0x1004"/>
    </TTGlyph>
    <TTGlyph name="gcommaaccent" xMin="91" yMin="-517" xMax="1288" yMax="1856">
      <contour>
        <pt x="760" y="1782" on="1"/>
        <pt x="707" y="1719" on="0"/>
        <pt x="707" y="1629" on="1"/>
        <pt x="707" y="1546" on="0"/>
        <pt x="758" y="1497" on="1"/>
        <pt x="773" y="1482" on="0"/>
        <pt x="792" y="1478" on="1"/>
        <pt x="792" y="1409" on="1"/>
        <pt x="653" y="1288" on="1"/>
        <pt x="573" y="1296" on="0"/>
        <pt x="514" y="1366" on="1"/>
        <pt x="450" y="1441" on="0"/>
        <pt x="450" y="1549" on="1"/>
        <pt x="450" y="1661" on="0"/>
        <pt x="518" y="1756" on="1"/>
        <pt x="576" y="1838" on="0"/>
        <pt x="642" y="1856" on="1"/>
        <pt x="760" y="1805" on="1"/>
      </contour>
      <contour>
        <pt x="512" y="415" on="1"/>
        <pt x="470" y="381" on="0"/>
        <pt x="470" y="323" on="1"/>
        <pt x="470" y="255" on="0"/>
        <pt x="544" y="246" on="1"/>
        <pt x="569" y="243" on="0"/>
        <pt x="605" y="243" on="1"/>
        <pt x="795" y="243" on="1"/>
        <pt x="1048" y="243" on="0"/>
        <pt x="1154" y="132" on="1"/>
        <pt x="1234" y="47" on="0"/>
        <pt x="1234" y="-102" on="1"/>
        <pt x="1234" y="-295" on="0"/>
        <pt x="1050" y="-412" on="1"/>
        <pt x="883" y="-516" on="0"/>
        <pt x="649" y="-516" on="1"/>
        <pt x="641" y="-516" on="0"/>
        <pt x="504" y="-515" on="0"/>
        <pt x="302" y="-471" on="0"/>
        <pt x="233" y="-429" on="1"/>
        <pt x="91" y="-343" on="0"/>
        <pt x="91" y="-183" on="1"/>
        <pt x="91" y="-64" on="0"/>
        <pt x="197" y="14" on="1"/>
        <pt x="229" y="37" on="0"/>
        <pt x="267" y="54" on="1"/>
        <pt x="174" y="100" on="0"/>
        <pt x="174" y="228" on="1"/>
        <pt x="174" y="382" on="0"/>
        <pt x="356" y="458" on="1"/>
        <pt x="247" y="505" on="0"/>
        <pt x="122" y="669" on="0"/>
        <pt x="122" y="775" on="1"/>
        <pt x="122" y="1156" on="0"/>
        <pt x="636" y="1156" on="1"/>
        <pt x="855" y="1156" on="0"/>
        <pt x="977" y="1073" on="1"/>
        <pt x="1050" y="1140" on="0"/>
        <pt x="1161" y="1140" on="1"/>
        <pt x="1288" y="1140" on="1"/>
        <pt x="1288" y="914" on="1"/>
        <pt x="1099" y="914" on="1"/>
        <pt x="1119" y="854" on="0"/>
        <pt x="1119" y="692" on="0"/>
        <pt x="1051" y="551" on="0"/>
        <pt x="986" y="504" on="1"/>
        <pt x="853" y="409" on="0"/>
        <pt x="612" y="409" on="1"/>
        <pt x="560" y="409" on="0"/>
      </contour>
      <contour>
        <pt x="824" y="775" on="1"/>
        <pt x="824" y="963" on="0"/>
        <pt x="423" y="963" on="0"/>
        <pt x="423" y="779" on="1"/>
        <pt x="423" y="696" on="0"/>
        <pt x="521" y="600" on="0"/>
        <pt x="617" y="600" on="1"/>
        <pt x="716" y="600" on="0"/>
        <pt x="754" y="626" on="1"/>
        <pt x="824" y="675" on="0"/>
      </contour>
      <contour>
        <pt x="443" y="2" on="1"/>
        <pt x="401" y="-38" on="0"/>
        <pt x="401" y="-156" on="0"/>
        <pt x="426" y="-234" on="0"/>
        <pt x="454" y="-264" on="1"/>
        <pt x="518" y="-332" on="0"/>
        <pt x="645" y="-332" on="1"/>
        <pt x="926" y="-332" on="0"/>
        <pt x="926" y="-164" on="1"/>
        <pt x="926" y="-76" on="0"/>
        <pt x="882" y="-42" on="1"/>
        <pt x="828" y="0" on="0"/>
        <pt x="668" y="0" on="1"/>
        <pt x="505" y="0" on="1"/>
        <pt x="473" y="0" on="0"/>
      </contour>
    </TTGlyph>
    <TTGlyph name="gdotaccent" xMin="91" yMin="-517" xMax="1288" yMax="1665">
      <component glyphName="g" x="0" y="0" flags="0x1204"/>
      <component glyphName="dotaccent" x="384" y="0" flags="0x1004"/>
    </TTGlyph>
    <TTGlyph name="germandbls" xMin="54" yMin="-17" xMax="1342" yMax="1579">
      <contour>
        <pt x="680" y="240" on="1"/>
        <pt x="752" y="197" on="0"/>
        <pt x="861" y="197" on="1"/>
        <pt x="966" y="197" on="0"/>
        <pt x="1009" y="262" on="1"/>
        <pt x="1025" y="287" on="0"/>
        <pt x="1025" y="375" on="0"/>
        <pt x="981" y="453" on="0"/>
        <pt x="915" y="522" on="0"/>
        <pt x="838" y="590" on="0"/>
        <pt x="806" y="630" on="1"/>
        <pt x="729" y="724" on="0"/>
        <pt x="729" y="837" on="1"/>
        <pt x="729" y="941" on="0"/>
        <pt x="825" y="1038" on="1"/>
        <pt x="885" y="1099" on="0"/>
        <pt x="921" y="1181" on="0"/>
        <pt x="921" y="1295" on="0"/>
        <pt x="837" y="1372" on="0"/>
        <pt x="702" y="1372" on="0"/>
        <pt x="610" y="1330" on="0"/>
        <pt x="578" y="1281" on="1"/>
        <pt x="510" y="1179" on="0"/>
        <pt x="510" y="951" on="1"/>
        <pt x="510" y="0" on="1"/>
        <pt x="193" y="0" on="1"/>
        <pt x="193" y="924" on="1"/>
        <pt x="54" y="924" on="1"/>
        <pt x="54" y="1119" on="1"/>
        <pt x="210" y="1148" on="1"/>
        <pt x="256" y="1367" on="0"/>
        <pt x="423" y="1478" on="1"/>
        <pt x="574" y="1579" on="0"/>
        <pt x="804" y="1579" on="1"/>
        <pt x="1006" y="1579" on="0"/>
        <pt x="1126" y="1494" on="1"/>
        <pt x="1245" y="1409" on="0"/>
        <pt x="1245" y="1268" on="1"/>
        <pt x="1245" y="1131" on="0"/>
        <pt x="1122" y="1038" on="1"/>
        <pt x="1045" y="980" on="0"/>
        <pt x="998" y="919" on="0"/>
        <pt x="998" y="850" on="0"/>
        <pt x="1049" y="785" on="0"/>
        <pt x="1125" y="720" on="0"/>
        <pt x="1215" y="646" on="0"/>
        <pt x="1253" y="598" on="1"/>
        <pt x="1342" y="486" on="0"/>
        <pt x="1342" y="339" on="1"/>
        <pt x="1342" y="148" on="0"/>
        <pt x="1209" y="58" on="1"/>
        <pt x="1099" y="-16" on="0"/>
        <pt x="743" y="-16" on="0"/>
        <pt x="680" y="17" on="1"/>
      </contour>
    </TTGlyph>
    <TTGlyph name="grave" xMin="55" yMin="1252" xMax="611" yMax="1808">
      <contour>
        <pt x="462" y="1252" on="1"/>
        <pt x="391" y="1282" on="0"/>
        <pt x="252" y="1403" on="1"/>
        <pt x="102" y="1534" on="0"/>
        <pt x="55" y="1634" on="1"/>
        <pt x="270" y="1808" on="1"/>
        <pt x="361" y="1653" on="0"/>
        <pt x="520" y="1480" on="1"/>
        <pt x="567" y="1429" on="0"/>
        <pt x="611" y="1389" on="1"/>
      </contour>
    </TTGlyph>
    <TTGlyph name="grave.cap" xMin="57" yMin="1543" xMax="569" yMax="1980">
      <contour>
        <pt x="423" y="1543" on="1"/>
        <pt x="358" y="1564" on="0"/>
        <pt x="271" y="1638" on="1"/>
        <pt x="118" y="1765" on="0"/>
        <pt x="57" y="1849" on="1"/>
        <pt x="274" y="1980" on="1"/>
        <pt x="286" y="1942" on="0"/>
        <pt x="484" y="1750" on="1"/>
        <pt x="516" y="1719" on="0"/>
        <pt x="562" y="1674" on="0"/>
        <pt x="569" y="1668" on="1"/>
      </contour>
    </TTGlyph>
    <TTGlyph name="greater" xMin="217" yMin="229" xMax="1170" yMax="1331">
      <component glyphName="less" x="1367" y="0" scalex="-0.999938964844" scaley="1.0" flags="0x1004"/>
    </TTGlyph>
    <TTGlyph name="greaterequal" xMin="223" yMin="-1" xMax="1193" yMax="1271">
      <component glyphName="lessequal" x="1368" y="0" scalex="-0.999938964844" scaley="1.0" flags="0x1004"/>
    </TTGlyph>
    <TTGlyph name="guillemotleft" xMin="235" yMin="76" xMax="1749" yMax="1157">
      <component glyphName="guilsinglleft" x="0" y="0" flags="0x1004"/>
      <component glyphName="guilsinglleft" x="783" y="0" flags="0x1004"/>
    </TTGlyph>
    <TTGlyph name="guillemotright" xMin="238" yMin="76" xMax="1753" yMax="1157">
      <component glyphName="guilsinglleft" x="1205" y="0" scalex="-0.999938964844" scaley="1.0" flags="0x1004"/>
      <component glyphName="guilsinglleft" x="1988" y="0" scalex="-0.999938964844" scaley="1.0" flags="0x1004"/>
    </TTGlyph>
    <TTGlyph name="guilsinglleft" xMin="235" yMin="76" xMax="966" yMax="1157">
      <contour>
        <pt x="235" y="735" on="1"/>
        <pt x="891" y="1157" on="1"/>
        <pt x="966" y="941" on="1"/>
        <pt x="535" y="614" on="1"/>
        <pt x="966" y="290" on="1"/>
        <pt x="891" y="76" on="1"/>
        <pt x="235" y="492" on="1"/>
      </contour>
    </TTGlyph>
    <TTGlyph name="guilsinglright" xMin="237" yMin="76" xMax="969" yMax="1157">
      <component glyphName="guilsinglleft" x="1204" y="0" scalex="-0.999938964844" scaley="1.0" flags="0x1004"/>
    </TTGlyph>
    <TTGlyph name="h" xMin="168" yMin="0" xMax="1189" yMax="1662">
      <contour>
        <pt x="168" y="1662" on="1"/>
        <pt x="480" y="1662" on="1"/>
        <pt x="480" y="1224" on="1"/>
        <pt x="463" y="1021" on="1"/>
        <pt x="569" y="1109" on="0"/>
        <pt x="715" y="1145" on="1"/>
        <pt x="774" y="1159" on="0"/>
        <pt x="913" y="1159" on="0"/>
        <pt x="1047" y="1116" on="0"/>
        <pt x="1094" y="1062" on="1"/>
        <pt x="1189" y="955" on="0"/>
        <pt x="1189" y="710" on="1"/>
        <pt x="1189" y="0" on="1"/>
        <pt x="877" y="0" on="1"/>
        <pt x="877" y="648" on="1"/>
        <pt x="877" y="789" on="0"/>
        <pt x="840" y="842" on="1"/>
        <pt x="803" y="895" on="0"/>
        <pt x="712" y="895" on="1"/>
        <pt x="626" y="895" on="0"/>
        <pt x="536" y="848" on="1"/>
        <pt x="506" y="832" on="0"/>
        <pt x="480" y="809" on="1"/>
        <pt x="480" y="0" on="1"/>
        <pt x="168" y="0" on="1"/>
      </contour>
    </TTGlyph>
    <TTGlyph name="hbar" xMin="36" yMin="0" xMax="1189" yMax="1662">
      <contour>
        <pt x="168" y="1293" on="1"/>
        <pt x="36" y="1293" on="1"/>
        <pt x="36" y="1473" on="1"/>
        <pt x="168" y="1473" on="1"/>
        <pt x="168" y="1662" on="1"/>
        <pt x="480" y="1662" on="1"/>
        <pt x="480" y="1473" on="1"/>
        <pt x="703" y="1473" on="1"/>
        <pt x="703" y="1293" on="1"/>
        <pt x="480" y="1293" on="1"/>
        <pt x="480" y="1224" on="1"/>
        <pt x="463" y="1021" on="1"/>
        <pt x="569" y="1109" on="0"/>
        <pt x="715" y="1145" on="1"/>
        <pt x="774" y="1159" on="0"/>
        <pt x="913" y="1159" on="0"/>
        <pt x="1047" y="1116" on="0"/>
        <pt x="1094" y="1062" on="1"/>
        <pt x="1189" y="955" on="0"/>
        <pt x="1189" y="710" on="1"/>
        <pt x="1189" y="0" on="1"/>
        <pt x="877" y="0" on="1"/>
        <pt x="877" y="648" on="1"/>
        <pt x="877" y="789" on="0"/>
        <pt x="840" y="842" on="1"/>
        <pt x="803" y="895" on="0"/>
        <pt x="712" y="895" on="1"/>
        <pt x="626" y="895" on="0"/>
        <pt x="536" y="848" on="1"/>
        <pt x="506" y="832" on="0"/>
        <pt x="480" y="809" on="1"/>
        <pt x="480" y="0" on="1"/>
        <pt x="168" y="0" on="1"/>
      </contour>
    </TTGlyph>
    <TTGlyph name="hcircumflex" xMin="168" yMin="0" xMax="1189" yMax="1960">
      <component glyphName="h" x="0" y="0" flags="0x1204"/>
      <component glyphName="circumflex.cap" x="356" y="0" flags="0x1004"/>
    </TTGlyph>
    <TTGlyph name="hungarumlaut" xMin="57" yMin="1321" xMax="1044" yMax="1821">
      <contour>
        <pt x="57" y="1414" on="1"/>
        <pt x="327" y="1821" on="1"/>
        <pt x="522" y="1684" on="1"/>
        <pt x="450" y="1567" on="0"/>
        <pt x="299" y="1416" on="1"/>
        <pt x="230" y="1347" on="0"/>
        <pt x="184" y="1321" on="1"/>
      </contour>
      <contour>
        <pt x="576" y="1414" on="1"/>
        <pt x="848" y="1817" on="1"/>
        <pt x="1044" y="1681" on="1"/>
        <pt x="963" y="1555" on="0"/>
        <pt x="816" y="1412" on="1"/>
        <pt x="744" y="1342" on="0"/>
        <pt x="698" y="1321" on="1"/>
      </contour>
    </TTGlyph>
    <TTGlyph name="hungarumlaut.cap" xMin="47" yMin="1553" xMax="1010" yMax="1960">
      <contour>
        <pt x="47" y="1668" on="1"/>
        <pt x="67" y="1685" on="0"/>
        <pt x="186" y="1837" on="0"/>
        <pt x="208" y="1868" on="1"/>
        <pt x="258" y="1937" on="0"/>
        <pt x="267" y="1960" on="1"/>
        <pt x="497" y="1848" on="1"/>
        <pt x="390" y="1692" on="0"/>
        <pt x="276" y="1597" on="1"/>
        <pt x="239" y="1566" on="0"/>
        <pt x="209" y="1553" on="1"/>
      </contour>
      <contour>
        <pt x="560" y="1668" on="1"/>
        <pt x="581" y="1686" on="0"/>
        <pt x="702" y="1835" on="0"/>
        <pt x="724" y="1865" on="1"/>
        <pt x="774" y="1931" on="0"/>
        <pt x="784" y="1957" on="1"/>
        <pt x="1010" y="1844" on="1"/>
        <pt x="909" y="1694" on="0"/>
        <pt x="790" y="1597" on="1"/>
        <pt x="752" y="1566" on="0"/>
        <pt x="721" y="1553" on="1"/>
      </contour>
    </TTGlyph>
    <TTGlyph name="hyphen" xMin="255" yMin="644" xMax="1105" yMax="889">
      <contour>
        <pt x="255" y="889" on="1"/>
        <pt x="1105" y="889" on="1"/>
        <pt x="1105" y="644" on="1"/>
        <pt x="255" y="644" on="1"/>
      </contour>
    </TTGlyph>
    <TTGlyph name="i" xMin="148" yMin="0" xMax="527" yMax="1665">
      <component glyphName="dotlessi" x="0" y="0" flags="0x1204"/>
      <component glyphName="dotaccent" x="93" y="0" flags="0x1004"/>
    </TTGlyph>
    <TTGlyph name="i.cy" xMin="148" yMin="0" xMax="527" yMax="1665">
      <component glyphName="dotlessi" x="0" y="0" flags="0x1204"/>
      <component glyphName="dotaccent" x="93" y="0" flags="0x1004"/>
    </TTGlyph>
    <TTGlyph name="i.dot" xMin="148" yMin="0" xMax="527" yMax="1665">
      <component glyphName="dotlessi" x="0" y="0" flags="0x1204"/>
      <component glyphName="dotaccent" x="93" y="0" flags="0x1004"/>
    </TTGlyph>
    <TTGlyph name="i.uc" xMin="181" yMin="0" xMax="542" yMax="1959">
      <component glyphName="I" x="0" y="0" flags="0x1004"/>
      <component glyphName="dotaccent.cap" x="117" y="0" flags="0x1004"/>
    </TTGlyph>
    <TTGlyph name="iacute" xMin="174" yMin="0" xMax="752" yMax="1808">
      <component glyphName="acute" x="142" y="0" flags="0x1004"/>
      <component glyphName="dotlessi" x="0" y="0" flags="0x1004"/>
    </TTGlyph>
    <TTGlyph name="ibreve" xMin="-33" yMin="0" xMax="697" yMax="1685">
      <component glyphName="dotlessi" x="0" y="0" flags="0x1204"/>
      <component glyphName="breve" x="-76" y="0" flags="0x1004"/>
    </TTGlyph>
    <TTGlyph name="icircumflex" xMin="-64" yMin="0" xMax="728" yMax="1699">
      <component glyphName="circumflex" x="-107" y="0" flags="0x1004"/>
      <component glyphName="dotlessi" x="0" y="0" flags="0x1004"/>
    </TTGlyph>
    <TTGlyph name="idieresis" xMin="-75" yMin="0" xMax="735" yMax="1662">
      <contour>
        <pt x="658" y="1338" on="0"/>
        <pt x="591" y="1309" on="0"/>
        <pt x="514" y="1309" on="0"/>
        <pt x="453" y="1334" on="0"/>
        <pt x="431" y="1356" on="1"/>
        <pt x="386" y="1403" on="0"/>
        <pt x="386" y="1477" on="1"/>
        <pt x="386" y="1553" on="0"/>
        <pt x="440" y="1607" on="1"/>
        <pt x="495" y="1662" on="0"/>
        <pt x="571" y="1662" on="1"/>
        <pt x="692" y="1662" on="0"/>
        <pt x="725" y="1560" on="1"/>
        <pt x="735" y="1530" on="0"/>
        <pt x="735" y="1456" on="0"/>
        <pt x="707" y="1388" on="0"/>
      </contour>
      <contour>
        <pt x="197" y="1338" on="0"/>
        <pt x="130" y="1309" on="0"/>
        <pt x="53" y="1309" on="0"/>
        <pt x="-8" y="1334" on="0"/>
        <pt x="-30" y="1356" on="1"/>
        <pt x="-75" y="1403" on="0"/>
        <pt x="-75" y="1477" on="1"/>
        <pt x="-75" y="1553" on="0"/>
        <pt x="-21" y="1607" on="1"/>
        <pt x="34" y="1662" on="0"/>
        <pt x="110" y="1662" on="1"/>
        <pt x="231" y="1662" on="0"/>
        <pt x="264" y="1560" on="1"/>
        <pt x="274" y="1530" on="0"/>
        <pt x="274" y="1456" on="0"/>
        <pt x="246" y="1388" on="0"/>
      </contour>
      <contour>
        <pt x="174" y="1140" on="1"/>
        <pt x="486" y="1140" on="1"/>
        <pt x="486" y="0" on="1"/>
        <pt x="174" y="0" on="1"/>
      </contour>
    </TTGlyph>
    <TTGlyph name="igrave" xMin="-104" yMin="0" xMax="486" yMax="1808">
      <component glyphName="dotlessi" x="0" y="0" flags="0x1204"/>
      <component glyphName="grave" x="-159" y="0" flags="0x1004"/>
    </TTGlyph>
    <TTGlyph name="ij" xMin="148" yMin="-507" xMax="1178" yMax="1665">
      <component glyphName="dotlessj" x="660" y="0" flags="0x1004"/>
      <component glyphName="dotlessi" x="0" y="0" flags="0x1004"/>
      <component glyphName="dotaccent" x="93" y="0" flags="0x1004"/>
      <component glyphName="dotaccent" x="744" y="0" flags="0x1004"/>
    </TTGlyph>
    <TTGlyph name="imacron" xMin="36" yMin="0" xMax="627" yMax="1626">
      <component glyphName="dotlessi" x="0" y="0" flags="0x1204"/>
      <component glyphName="macron" x="-19" y="0" flags="0x1004"/>
    </TTGlyph>
    <TTGlyph name="infinity" xMin="84" yMin="178" xMax="1922" yMax="1053">
      <contour>
        <pt x="986" y="402" on="1"/>
        <pt x="796" y="182" on="0"/>
        <pt x="555" y="182" on="1"/>
        <pt x="336" y="182" on="0"/>
        <pt x="206" y="313" on="1"/>
        <pt x="84" y="436" on="0"/>
        <pt x="84" y="617" on="1"/>
        <pt x="84" y="800" on="0"/>
        <pt x="213" y="924" on="1"/>
        <pt x="348" y="1053" on="0"/>
        <pt x="560" y="1053" on="1"/>
        <pt x="799" y="1053" on="0"/>
        <pt x="946" y="914" on="1"/>
        <pt x="989" y="872" on="0"/>
        <pt x="1024" y="825" on="1"/>
        <pt x="1208" y="1049" on="0"/>
        <pt x="1453" y="1049" on="1"/>
        <pt x="1679" y="1049" on="0"/>
        <pt x="1807" y="916" on="1"/>
        <pt x="1922" y="796" on="0"/>
        <pt x="1922" y="614" on="1"/>
        <pt x="1922" y="428" on="0"/>
        <pt x="1795" y="306" on="1"/>
        <pt x="1661" y="178" on="0"/>
        <pt x="1443" y="178" on="1"/>
        <pt x="1148" y="178" on="0"/>
      </contour>
      <contour>
        <pt x="867" y="573" on="1"/>
        <pt x="705" y="836" on="0"/>
        <pt x="547" y="836" on="1"/>
        <pt x="463" y="836" on="0"/>
        <pt x="409" y="776" on="1"/>
        <pt x="354" y="716" on="0"/>
        <pt x="354" y="618" on="1"/>
        <pt x="354" y="466" on="0"/>
        <pt x="488" y="414" on="1"/>
        <pt x="535" y="396" on="0"/>
        <pt x="602" y="396" on="1"/>
        <pt x="735" y="396" on="0"/>
      </contour>
      <contour>
        <pt x="1144" y="653" on="1"/>
        <pt x="1301" y="390" on="0"/>
        <pt x="1455" y="390" on="1"/>
        <pt x="1541" y="390" on="0"/>
        <pt x="1596" y="452" on="1"/>
        <pt x="1649" y="514" on="0"/>
        <pt x="1649" y="615" on="1"/>
        <pt x="1649" y="762" on="0"/>
        <pt x="1516" y="812" on="1"/>
        <pt x="1471" y="829" on="0"/>
        <pt x="1404" y="829" on="1"/>
        <pt x="1273" y="829" on="0"/>
      </contour>
    </TTGlyph>
    <TTGlyph name="integral" xMin="105" yMin="-518" xMax="983" yMax="1685">
      <contour>
        <pt x="683" y="1473" on="1"/>
        <pt x="480" y="1473" on="0"/>
        <pt x="480" y="1222" on="1"/>
        <pt x="480" y="1044" on="0"/>
        <pt x="586" y="796" on="1"/>
        <pt x="630" y="694" on="0"/>
        <pt x="731" y="487" on="0"/>
        <pt x="775" y="384" on="1"/>
        <pt x="882" y="134" on="0"/>
        <pt x="882" y="-41" on="1"/>
        <pt x="882" y="-224" on="0"/>
        <pt x="785" y="-356" on="1"/>
        <pt x="664" y="-518" on="0"/>
        <pt x="425" y="-518" on="1"/>
        <pt x="339" y="-518" on="0"/>
        <pt x="266" y="-490" on="1"/>
        <pt x="131" y="-438" on="0"/>
        <pt x="105" y="-386" on="1"/>
        <pt x="196" y="-193" on="1"/>
        <pt x="220" y="-228" on="0"/>
        <pt x="269" y="-256" on="1"/>
        <pt x="358" y="-306" on="0"/>
        <pt x="473" y="-306" on="0"/>
        <pt x="510" y="-288" on="1"/>
        <pt x="608" y="-239" on="0"/>
        <pt x="608" y="-59" on="1"/>
        <pt x="608" y="121" on="0"/>
        <pt x="501" y="372" on="1"/>
        <pt x="457" y="475" on="0"/>
        <pt x="355" y="683" on="0"/>
        <pt x="312" y="786" on="1"/>
        <pt x="205" y="1039" on="0"/>
        <pt x="205" y="1213" on="1"/>
        <pt x="205" y="1536" on="0"/>
        <pt x="454" y="1646" on="1"/>
        <pt x="543" y="1685" on="0"/>
        <pt x="737" y="1685" on="0"/>
        <pt x="842" y="1662" on="0"/>
        <pt x="881" y="1643" on="1"/>
        <pt x="954" y="1607" on="0"/>
        <pt x="983" y="1548" on="1"/>
        <pt x="859" y="1385" on="1"/>
        <pt x="835" y="1438" on="0"/>
        <pt x="748" y="1464" on="1"/>
        <pt x="718" y="1473" on="0"/>
      </contour>
    </TTGlyph>
    <TTGlyph name="iogonek" xMin="9" yMin="-516" xMax="527" yMax="1665">
      <contour>
        <pt x="330" y="1307" on="1"/>
        <pt x="291" y="1307" on="0"/>
        <pt x="225" y="1332" on="0"/>
        <pt x="200" y="1355" on="1"/>
        <pt x="148" y="1404" on="0"/>
        <pt x="148" y="1478" on="1"/>
        <pt x="148" y="1553" on="0"/>
        <pt x="208" y="1610" on="1"/>
        <pt x="268" y="1665" on="0"/>
        <pt x="347" y="1665" on="1"/>
        <pt x="428" y="1665" on="0"/>
        <pt x="478" y="1616" on="1"/>
        <pt x="527" y="1570" on="0"/>
        <pt x="527" y="1495" on="1"/>
        <pt x="527" y="1418" on="0"/>
        <pt x="468" y="1362" on="1"/>
        <pt x="409" y="1307" on="0"/>
      </contour>
      <contour>
        <pt x="501" y="-448" on="1"/>
        <pt x="408" y="-516" on="0"/>
        <pt x="271" y="-516" on="1"/>
        <pt x="171" y="-516" on="0"/>
        <pt x="96" y="-464" on="1"/>
        <pt x="10" y="-403" on="0"/>
        <pt x="10" y="-300" on="1"/>
        <pt x="10" y="-119" on="0"/>
        <pt x="226" y="0" on="1"/>
        <pt x="174" y="0" on="1"/>
        <pt x="174" y="1140" on="1"/>
        <pt x="486" y="1140" on="1"/>
        <pt x="486" y="0" on="1"/>
        <pt x="433" y="0" on="1"/>
        <pt x="339" y="-62" on="0"/>
        <pt x="309" y="-95" on="1"/>
        <pt x="254" y="-155" on="0"/>
        <pt x="254" y="-210" on="1"/>
        <pt x="254" y="-217" on="0"/>
        <pt x="255" y="-223" on="1"/>
        <pt x="259" y="-311" on="0"/>
        <pt x="376" y="-311" on="1"/>
        <pt x="430" y="-311" on="0"/>
        <pt x="501" y="-291" on="1"/>
      </contour>
    </TTGlyph>
    <TTGlyph name="itilde" xMin="-115" yMin="0" xMax="761" yMax="1699">
      <component glyphName="dotlessi" x="0" y="0" flags="0x1204"/>
      <component glyphName="tilde" x="-147" y="0" flags="0x1004"/>
    </TTGlyph>
    <TTGlyph name="j" xMin="-104" yMin="-507" xMax="518" yMax="1665">
      <component glyphName="dotlessj" x="0" y="0" flags="0x1204"/>
      <component glyphName="dotaccent" x="84" y="0" flags="0x1004"/>
    </TTGlyph>
    <TTGlyph name="jcircumflex" xMin="-104" yMin="-507" xMax="727" yMax="1699">
      <component glyphName="dotlessj" x="0" y="0" flags="0x1204"/>
      <component glyphName="circumflex" x="-108" y="0" flags="0x1004"/>
    </TTGlyph>
    <TTGlyph name="k" xMin="168" yMin="0" xMax="1248" yMax="1661">
      <contour>
        <pt x="168" y="1661" on="1"/>
        <pt x="480" y="1661" on="1"/>
        <pt x="480" y="977" on="1"/>
        <pt x="469" y="690" on="1"/>
        <pt x="855" y="1140" on="1"/>
        <pt x="1208" y="1140" on="1"/>
        <pt x="801" y="696" on="1"/>
        <pt x="1248" y="0" on="1"/>
        <pt x="893" y="0" on="1"/>
        <pt x="597" y="475" on="1"/>
        <pt x="475" y="342" on="1"/>
        <pt x="480" y="213" on="1"/>
        <pt x="480" y="0" on="1"/>
        <pt x="168" y="0" on="1"/>
      </contour>
    </TTGlyph>
    <TTGlyph name="kcommaaccent" xMin="168" yMin="-560" xMax="1248" yMax="1661">
      <component glyphName="commaaccent" x="474" y="0" flags="0x1004"/>
      <component glyphName="k" x="0" y="0" flags="0x1004"/>
    </TTGlyph>
    <TTGlyph name="kgreenlandic" xMin="174" yMin="0" xMax="1257" yMax="1140">
      <contour>
        <pt x="174" y="1140" on="1"/>
        <pt x="486" y="1140" on="1"/>
        <pt x="486" y="779" on="1"/>
        <pt x="479" y="624" on="1"/>
        <pt x="875" y="1140" on="1"/>
        <pt x="1224" y="1140" on="1"/>
        <pt x="814" y="666" on="1"/>
        <pt x="1257" y="0" on="1"/>
        <pt x="902" y="0" on="1"/>
        <pt x="615" y="436" on="1"/>
        <pt x="484" y="284" on="1"/>
        <pt x="486" y="160" on="1"/>
        <pt x="486" y="0" on="1"/>
        <pt x="174" y="0" on="1"/>
      </contour>
    </TTGlyph>
    <TTGlyph name="l" xMin="180" yMin="0" xMax="492" yMax="1662">
      <contour>
        <pt x="180" y="1662" on="1"/>
        <pt x="492" y="1662" on="1"/>
        <pt x="492" y="0" on="1"/>
        <pt x="180" y="0" on="1"/>
      </contour>
    </TTGlyph>
    <TTGlyph name="lacute" xMin="180" yMin="0" xMax="694" yMax="1980">
      <contour>
        <pt x="180" y="1527" on="1"/>
        <pt x="492" y="1527" on="1"/>
        <pt x="492" y="0" on="1"/>
        <pt x="180" y="0" on="1"/>
      </contour>
      <contour>
        <pt x="182" y="1668" on="1"/>
        <pt x="210" y="1692" on="0"/>
        <pt x="368" y="1850" on="0"/>
        <pt x="398" y="1882" on="1"/>
        <pt x="468" y="1957" on="0"/>
        <pt x="477" y="1980" on="1"/>
        <pt x="694" y="1849" on="1"/>
        <pt x="578" y="1701" on="0"/>
        <pt x="414" y="1589" on="1"/>
        <pt x="365" y="1555" on="0"/>
        <pt x="328" y="1543" on="1"/>
      </contour>
    </TTGlyph>
    <TTGlyph name="lcaron" xMin="180" yMin="0" xMax="952" yMax="1708">
      <component glyphName="l" x="0" y="0" flags="0x1004"/>
      <component glyphName="caronvertical" x="589" y="0" flags="0x1004"/>
    </TTGlyph>
    <TTGlyph name="lcommaaccent" xMin="180" yMin="-560" xMax="503" yMax="1662">
      <component glyphName="commaaccent" x="155" y="0" flags="0x1004"/>
      <component glyphName="l" x="0" y="0" flags="0x1004"/>
    </TTGlyph>
    <TTGlyph name="ldot" xMin="180" yMin="0" xMax="1056" yMax="1662">
      <component glyphName="l" x="0" y="0" flags="0x1004"/>
      <component glyphName="period" x="540" y="682" flags="0x1004"/>
    </TTGlyph>
    <TTGlyph name="less" xMin="197" yMin="229" xMax="1149" yMax="1331">
      <contour>
        <pt x="197" y="852" on="1"/>
        <pt x="1149" y="1331" on="1"/>
        <pt x="1149" y="1057" on="1"/>
        <pt x="552" y="773" on="1"/>
        <pt x="1149" y="511" on="1"/>
        <pt x="1149" y="229" on="1"/>
        <pt x="197" y="698" on="1"/>
      </contour>
    </TTGlyph>
    <TTGlyph name="lessequal" xMin="175" yMin="-1" xMax="1144" yMax="1271">
      <contour>
        <pt x="175" y="851" on="1"/>
        <pt x="1144" y="1271" on="1"/>
        <pt x="1144" y="1009" on="1"/>
        <pt x="513" y="773" on="1"/>
        <pt x="1144" y="541" on="1"/>
        <pt x="1144" y="278" on="1"/>
        <pt x="175" y="696" on="1"/>
      </contour>
      <contour>
        <pt x="175" y="204" on="1"/>
        <pt x="1144" y="204" on="1"/>
        <pt x="1144" y="-1" on="1"/>
        <pt x="175" y="-1" on="1"/>
      </contour>
    </TTGlyph>
    <TTGlyph name="logicalnot" xMin="245" yMin="323" xMax="1235" yMax="852">
      <contour>
        <pt x="245" y="852" on="1"/>
        <pt x="1235" y="852" on="1"/>
        <pt x="1235" y="323" on="1"/>
        <pt x="991" y="323" on="1"/>
        <pt x="991" y="639" on="1"/>
        <pt x="245" y="639" on="1"/>
      </contour>
    </TTGlyph>
    <TTGlyph name="lozenge" xMin="70" yMin="0" xMax="1245" yMax="1536">
      <contour>
        <pt x="70" y="762" on="1"/>
        <pt x="70" y="775" on="1"/>
        <pt x="656" y="1536" on="1"/>
        <pt x="660" y="1536" on="1"/>
        <pt x="1245" y="775" on="1"/>
        <pt x="1245" y="762" on="1"/>
        <pt x="660" y="0" on="1"/>
        <pt x="655" y="0" on="1"/>
      </contour>
      <contour>
        <pt x="659" y="363" on="1"/>
        <pt x="958" y="769" on="1"/>
        <pt x="958" y="772" on="1"/>
        <pt x="659" y="1156" on="1"/>
        <pt x="656" y="1156" on="1"/>
        <pt x="357" y="772" on="1"/>
        <pt x="357" y="766" on="1"/>
        <pt x="656" y="363" on="1"/>
      </contour>
    </TTGlyph>
    <TTGlyph name="lslash" xMin="30" yMin="0" xMax="684" yMax="1662">
      <contour>
        <pt x="180" y="714" on="1"/>
        <pt x="30" y="659" on="1"/>
        <pt x="30" y="854" on="1"/>
        <pt x="180" y="912" on="1"/>
        <pt x="180" y="1662" on="1"/>
        <pt x="492" y="1662" on="1"/>
        <pt x="492" y="1032" on="1"/>
        <pt x="684" y="1106" on="1"/>
        <pt x="684" y="900" on="1"/>
        <pt x="492" y="829" on="1"/>
        <pt x="492" y="0" on="1"/>
        <pt x="180" y="0" on="1"/>
      </contour>
    </TTGlyph>
    <TTGlyph name="m" xMin="174" yMin="0" xMax="1885" yMax="1161">
      <contour>
        <pt x="1183" y="811" on="1"/>
        <pt x="1188" y="751" on="0"/>
        <pt x="1188" y="707" on="1"/>
        <pt x="1188" y="0" on="1"/>
        <pt x="876" y="0" on="1"/>
        <pt x="876" y="648" on="1"/>
        <pt x="876" y="790" on="0"/>
        <pt x="842" y="843" on="1"/>
        <pt x="809" y="896" on="0"/>
        <pt x="719" y="896" on="1"/>
        <pt x="634" y="896" on="0"/>
        <pt x="542" y="848" on="1"/>
        <pt x="512" y="832" on="0"/>
        <pt x="486" y="809" on="1"/>
        <pt x="486" y="0" on="1"/>
        <pt x="174" y="0" on="1"/>
        <pt x="174" y="1140" on="1"/>
        <pt x="457" y="1140" on="1"/>
        <pt x="463" y="1018" on="1"/>
        <pt x="577" y="1105" on="0"/>
        <pt x="728" y="1144" on="1"/>
        <pt x="790" y="1160" on="0"/>
        <pt x="852" y="1160" on="1"/>
        <pt x="1050" y="1160" on="0"/>
        <pt x="1128" y="1022" on="1"/>
        <pt x="1241" y="1109" on="0"/>
        <pt x="1394" y="1146" on="1"/>
        <pt x="1452" y="1160" on="0"/>
        <pt x="1605" y="1160" on="0"/>
        <pt x="1741" y="1116" on="0"/>
        <pt x="1788" y="1064" on="1"/>
        <pt x="1885" y="958" on="0"/>
        <pt x="1885" y="717" on="1"/>
        <pt x="1885" y="0" on="1"/>
        <pt x="1573" y="0" on="1"/>
        <pt x="1573" y="649" on="1"/>
        <pt x="1573" y="792" on="0"/>
        <pt x="1522" y="873" on="0"/>
        <pt x="1460" y="896" on="0"/>
        <pt x="1411" y="896" on="0"/>
        <pt x="1378" y="896" on="0"/>
        <pt x="1316" y="882" on="0"/>
        <pt x="1287" y="870" on="1"/>
        <pt x="1223" y="844" on="0"/>
      </contour>
    </TTGlyph>
    <TTGlyph name="macron" xMin="55" yMin="1420" xMax="646" yMax="1626">
      <contour>
        <pt x="55" y="1626" on="1"/>
        <pt x="646" y="1626" on="1"/>
        <pt x="646" y="1420" on="1"/>
        <pt x="55" y="1420" on="1"/>
      </contour>
    </TTGlyph>
    <TTGlyph name="macron.cap" xMin="55" yMin="1687" xMax="646" yMax="1893">
      <contour>
        <pt x="55" y="1893" on="1"/>
        <pt x="646" y="1893" on="1"/>
        <pt x="646" y="1687" on="1"/>
        <pt x="55" y="1687" on="1"/>
      </contour>
    </TTGlyph>
    <TTGlyph name="minus" xMin="255" yMin="644" xMax="1105" yMax="889">
      <contour>
        <pt x="255" y="889" on="1"/>
        <pt x="1105" y="889" on="1"/>
        <pt x="1105" y="644" on="1"/>
        <pt x="255" y="644" on="1"/>
      </contour>
    </TTGlyph>
    <TTGlyph name="minute" xMin="161" yMin="1190" xMax="571" yMax="1826">
      <contour>
        <pt x="270" y="1826" on="1"/>
        <pt x="571" y="1826" on="1"/>
        <pt x="395" y="1190" on="1"/>
        <pt x="161" y="1190" on="1"/>
      </contour>
    </TTGlyph>
    <TTGlyph name="mu" xMin="181" yMin="-371" xMax="1337" yMax="1140">
      <contour>
        <pt x="932" y="120" on="1"/>
        <pt x="835" y="-16" on="0"/>
        <pt x="510" y="-16" on="0"/>
        <pt x="433" y="52" on="1"/>
        <pt x="463" y="-371" on="1"/>
        <pt x="181" y="-371" on="1"/>
        <pt x="181" y="1140" on="1"/>
        <pt x="493" y="1140" on="1"/>
        <pt x="493" y="484" on="1"/>
        <pt x="493" y="348" on="0"/>
        <pt x="539" y="290" on="1"/>
        <pt x="585" y="232" on="0"/>
        <pt x="792" y="232" on="0"/>
        <pt x="869" y="300" on="1"/>
        <pt x="869" y="1140" on="1"/>
        <pt x="1181" y="1140" on="1"/>
        <pt x="1181" y="281" on="1"/>
        <pt x="1181" y="205" on="0"/>
        <pt x="1224" y="205" on="1"/>
        <pt x="1262" y="205" on="0"/>
        <pt x="1306" y="232" on="1"/>
        <pt x="1337" y="87" on="1"/>
        <pt x="1303" y="33" on="0"/>
        <pt x="1180" y="-4" on="1"/>
        <pt x="1136" y="-18" on="0"/>
        <pt x="1083" y="-18" on="1"/>
        <pt x="938" y="-18" on="0"/>
      </contour>
    </TTGlyph>
    <TTGlyph name="multiply" xMin="168" yMin="237" xMax="1215" yMax="1320">
      <contour>
        <pt x="168" y="408" on="1"/>
        <pt x="527" y="776" on="1"/>
        <pt x="168" y="1160" on="1"/>
        <pt x="339" y="1320" on="1"/>
        <pt x="693" y="942" on="1"/>
        <pt x="1044" y="1320" on="1"/>
        <pt x="1215" y="1160" on="1"/>
        <pt x="856" y="777" on="1"/>
        <pt x="1212" y="408" on="1"/>
        <pt x="1041" y="237" on="1"/>
        <pt x="690" y="605" on="1"/>
        <pt x="339" y="237" on="1"/>
      </contour>
    </TTGlyph>
    <TTGlyph name="n" xMin="174" yMin="0" xMax="1190" yMax="1160">
      <contour>
        <pt x="174" y="1140" on="1"/>
        <pt x="457" y="1140" on="1"/>
        <pt x="463" y="1018" on="1"/>
        <pt x="575" y="1103" on="0"/>
        <pt x="728" y="1143" on="1"/>
        <pt x="790" y="1159" on="0"/>
        <pt x="932" y="1159" on="0"/>
        <pt x="1058" y="1118" on="0"/>
        <pt x="1102" y="1066" on="1"/>
        <pt x="1190" y="962" on="0"/>
        <pt x="1190" y="715" on="1"/>
        <pt x="1190" y="0" on="1"/>
        <pt x="878" y="0" on="1"/>
        <pt x="878" y="648" on="1"/>
        <pt x="878" y="791" on="0"/>
        <pt x="843" y="844" on="1"/>
        <pt x="809" y="896" on="0"/>
        <pt x="717" y="896" on="1"/>
        <pt x="632" y="896" on="0"/>
        <pt x="542" y="848" on="1"/>
        <pt x="512" y="832" on="0"/>
        <pt x="486" y="809" on="1"/>
        <pt x="486" y="0" on="1"/>
        <pt x="174" y="0" on="1"/>
      </contour>
    </TTGlyph>
    <TTGlyph name="nacute" xMin="174" yMin="0" xMax="1190" yMax="1808">
      <component glyphName="acute" x="573" y="0" flags="0x1004"/>
      <component glyphName="n" x="0" y="0" flags="0x1004"/>
    </TTGlyph>
    <TTGlyph name="napostrophe" xMin="174" yMin="-560" xMax="1190" yMax="1160">
      <component glyphName="commaaccent" x="499" y="0" flags="0x1004"/>
      <component glyphName="n" x="0" y="0" flags="0x1004"/>
    </TTGlyph>
    <TTGlyph name="ncaron" xMin="174" yMin="0" xMax="1190" yMax="1712">
      <component glyphName="caron" x="319" y="13" flags="0x1004"/>
      <component glyphName="n" x="0" y="0" flags="0x1004"/>
    </TTGlyph>
    <TTGlyph name="ncommaaccent" xMin="174" yMin="-560" xMax="1190" yMax="1160">
      <component glyphName="commaaccent" x="499" y="0" flags="0x1004"/>
      <component glyphName="n" x="0" y="0" flags="0x1004"/>
    </TTGlyph>
    <TTGlyph name="nine" xMin="135" yMin="-394" xMax="1288" yMax="1272">
      <contour>
        <pt x="533" y="509" on="0"/>
        <pt x="606" y="473" on="0"/>
        <pt x="737" y="473" on="0"/>
        <pt x="803" y="506" on="1"/>
        <pt x="863" y="328" on="1"/>
        <pt x="811" y="268" on="0"/>
        <pt x="678" y="243" on="1"/>
        <pt x="630" y="234" on="0"/>
        <pt x="465" y="234" on="0"/>
        <pt x="303" y="311" on="0"/>
        <pt x="248" y="376" on="1"/>
        <pt x="135" y="508" on="0"/>
        <pt x="135" y="708" on="1"/>
        <pt x="135" y="957" on="0"/>
        <pt x="283" y="1109" on="1"/>
        <pt x="442" y="1272" on="0"/>
        <pt x="729" y="1272" on="1"/>
        <pt x="989" y="1272" on="0"/>
        <pt x="1143" y="1094" on="1"/>
        <pt x="1288" y="925" on="0"/>
        <pt x="1288" y="670" on="1"/>
        <pt x="1288" y="386" on="0"/>
        <pt x="1140" y="139" on="1"/>
        <pt x="1012" y="-76" on="0"/>
        <pt x="796" y="-226" on="1"/>
        <pt x="600" y="-362" on="0"/>
        <pt x="403" y="-394" on="1"/>
        <pt x="320" y="-210" on="1"/>
        <pt x="600" y="-139" on="0"/>
        <pt x="785" y="114" on="1"/>
        <pt x="893" y="263" on="0"/>
        <pt x="935" y="428" on="1"/>
        <pt x="956" y="512" on="0"/>
        <pt x="956" y="594" on="1"/>
        <pt x="956" y="1052" on="0"/>
        <pt x="698" y="1052" on="1"/>
        <pt x="518" y="1052" on="0"/>
        <pt x="466" y="896" on="1"/>
        <pt x="449" y="848" on="0"/>
        <pt x="449" y="706" on="0"/>
        <pt x="479" y="586" on="0"/>
      </contour>
    </TTGlyph>
    <TTGlyph name="notequal" xMin="251" yMin="203" xMax="1172" yMax="1319">
      <contour>
        <pt x="479" y="411" on="1"/>
        <pt x="251" y="411" on="1"/>
        <pt x="251" y="627" on="1"/>
        <pt x="556" y="627" on="1"/>
        <pt x="660" y="923" on="1"/>
        <pt x="251" y="923" on="1"/>
        <pt x="251" y="1139" on="1"/>
        <pt x="738" y="1139" on="1"/>
        <pt x="803" y="1319" on="1"/>
        <pt x="997" y="1319" on="1"/>
        <pt x="931" y="1139" on="1"/>
        <pt x="1172" y="1139" on="1"/>
        <pt x="1172" y="923" on="1"/>
        <pt x="853" y="923" on="1"/>
        <pt x="750" y="627" on="1"/>
        <pt x="1172" y="627" on="1"/>
        <pt x="1172" y="411" on="1"/>
        <pt x="672" y="411" on="1"/>
        <pt x="598" y="203" on="1"/>
        <pt x="406" y="203" on="1"/>
      </contour>
    </TTGlyph>
    <TTGlyph name="ntilde" xMin="174" yMin="0" xMax="1191" yMax="1699">
      <component glyphName="n" x="0" y="0" flags="0x1204"/>
      <component glyphName="tilde" x="283" y="0" flags="0x1004"/>
    </TTGlyph>
    <TTGlyph name="numbersign" xMin="196" yMin="0" xMax="1449" yMax="1373">
      <contour>
        <pt x="382" y="326" on="1"/>
        <pt x="196" y="326" on="1"/>
        <pt x="196" y="536" on="1"/>
        <pt x="402" y="536" on="1"/>
        <pt x="432" y="856" on="1"/>
        <pt x="234" y="856" on="1"/>
        <pt x="234" y="1058" on="1"/>
        <pt x="451" y="1058" on="1"/>
        <pt x="481" y="1373" on="1"/>
        <pt x="742" y="1373" on="1"/>
        <pt x="712" y="1058" on="1"/>
        <pt x="987" y="1058" on="1"/>
        <pt x="1016" y="1373" on="1"/>
        <pt x="1275" y="1373" on="1"/>
        <pt x="1245" y="1058" on="1"/>
        <pt x="1449" y="1058" on="1"/>
        <pt x="1449" y="856" on="1"/>
        <pt x="1226" y="856" on="1"/>
        <pt x="1196" y="536" on="1"/>
        <pt x="1405" y="536" on="1"/>
        <pt x="1405" y="326" on="1"/>
        <pt x="1176" y="326" on="1"/>
        <pt x="1145" y="0" on="1"/>
        <pt x="891" y="0" on="1"/>
        <pt x="920" y="326" on="1"/>
        <pt x="641" y="326" on="1"/>
        <pt x="610" y="0" on="1"/>
        <pt x="352" y="0" on="1"/>
      </contour>
      <contour>
        <pt x="939" y="536" on="1"/>
        <pt x="968" y="856" on="1"/>
        <pt x="692" y="856" on="1"/>
        <pt x="661" y="536" on="1"/>
      </contour>
    </TTGlyph>
    <TTGlyph name="o" xMin="95" yMin="-16" xMax="1207" yMax="1156">
      <contour>
        <pt x="216" y="167" on="1"/>
        <pt x="151" y="251" on="0"/>
        <pt x="96" y="465" on="0"/>
        <pt x="96" y="726" on="0"/>
        <pt x="185" y="941" on="0"/>
        <pt x="260" y="1012" on="1"/>
        <pt x="412" y="1156" on="0"/>
        <pt x="662" y="1156" on="1"/>
        <pt x="946" y="1156" on="0"/>
        <pt x="1086" y="973" on="1"/>
        <pt x="1206" y="817" on="0"/>
        <pt x="1206" y="562" on="1"/>
        <pt x="1206" y="282" on="0"/>
        <pt x="1043" y="128" on="1"/>
        <pt x="891" y="-16" on="0"/>
        <pt x="641" y="-16" on="1"/>
        <pt x="358" y="-16" on="0"/>
      </contour>
      <contour>
        <pt x="655" y="934" on="1"/>
        <pt x="419" y="934" on="0"/>
        <pt x="419" y="586" on="1"/>
        <pt x="419" y="327" on="0"/>
        <pt x="544" y="236" on="1"/>
        <pt x="588" y="204" on="0"/>
        <pt x="653" y="204" on="1"/>
        <pt x="883" y="204" on="0"/>
        <pt x="883" y="561" on="1"/>
        <pt x="883" y="814" on="0"/>
        <pt x="760" y="902" on="1"/>
        <pt x="716" y="933" on="0"/>
      </contour>
    </TTGlyph>
    <TTGlyph name="oacute" xMin="95" yMin="-16" xMax="1207" yMax="1808">
      <component glyphName="acute" x="472" y="0" flags="0x1004"/>
      <component glyphName="o" x="0" y="0" flags="0x1004"/>
    </TTGlyph>
    <TTGlyph name="obreve" xMin="95" yMin="-16" xMax="1207" yMax="1685">
      <component glyphName="o" x="0" y="0" flags="0x1204"/>
      <component glyphName="breve" x="253" y="0" flags="0x1004"/>
    </TTGlyph>
    <TTGlyph name="ocircumflex" xMin="95" yMin="-16" xMax="1207" yMax="1699">
      <component glyphName="circumflex" x="222" y="0" flags="0x1004"/>
      <component glyphName="o" x="0" y="0" flags="0x1004"/>
    </TTGlyph>
    <TTGlyph name="odieresis" xMin="95" yMin="-16" xMax="1207" yMax="1663">
      <component glyphName="dieresis" x="173" y="0" flags="0x1004"/>
      <component glyphName="o" x="0" y="0" flags="0x1004"/>
    </TTGlyph>
    <TTGlyph name="oe" xMin="95" yMin="-16" xMax="1865" yMax="1157">
      <contour>
        <pt x="1023" y="125" on="1"/>
        <pt x="878" y="-16" on="0"/>
        <pt x="635" y="-16" on="1"/>
        <pt x="352" y="-16" on="0"/>
        <pt x="213" y="167" on="1"/>
        <pt x="96" y="321" on="0"/>
        <pt x="96" y="578" on="1"/>
        <pt x="96" y="859" on="0"/>
        <pt x="256" y="1012" on="1"/>
        <pt x="408" y="1156" on="0"/>
        <pt x="901" y="1156" on="0"/>
        <pt x="1035" y="1013" on="1"/>
        <pt x="1180" y="1156" on="0"/>
        <pt x="1419" y="1156" on="1"/>
        <pt x="1724" y="1156" on="0"/>
        <pt x="1828" y="919" on="1"/>
        <pt x="1865" y="833" on="0"/>
        <pt x="1865" y="565" on="0"/>
        <pt x="1854" y="495" on="1"/>
        <pt x="1179" y="495" on="1"/>
        <pt x="1198" y="216" on="0"/>
        <pt x="1484" y="216" on="1"/>
        <pt x="1596" y="216" on="0"/>
        <pt x="1754" y="263" on="0"/>
        <pt x="1777" y="275" on="1"/>
        <pt x="1828" y="98" on="1"/>
        <pt x="1734" y="21" on="0"/>
        <pt x="1535" y="-7" on="1"/>
        <pt x="1471" y="-16" on="0"/>
        <pt x="1405" y="-16" on="1"/>
        <pt x="1158" y="-16" on="0"/>
      </contour>
      <contour>
        <pt x="1576" y="712" on="1"/>
        <pt x="1576" y="934" on="0"/>
        <pt x="1402" y="934" on="1"/>
        <pt x="1309" y="934" on="0"/>
        <pt x="1258" y="877" on="1"/>
        <pt x="1200" y="811" on="0"/>
        <pt x="1185" y="668" on="1"/>
        <pt x="1575" y="668" on="1"/>
        <pt x="1576" y="691" on="0"/>
      </contour>
      <contour>
        <pt x="647" y="204" on="1"/>
        <pt x="873" y="204" on="0"/>
        <pt x="873" y="561" on="1"/>
        <pt x="873" y="815" on="0"/>
        <pt x="753" y="902" on="1"/>
        <pt x="710" y="933" on="0"/>
        <pt x="587" y="934" on="0"/>
        <pt x="500" y="888" on="0"/>
        <pt x="472" y="844" on="1"/>
        <pt x="419" y="759" on="0"/>
        <pt x="419" y="586" on="1"/>
        <pt x="419" y="325" on="0"/>
        <pt x="538" y="236" on="1"/>
        <pt x="582" y="204" on="0"/>
      </contour>
    </TTGlyph>
</ttFont>
